M48
; DRILL file {KiCad 8.0.2} date 2024-05-10T00:01:26+0800
; FORMAT={-:-/ absolute / inch / decimal}
; #@! TF.CreationDate,2024-05-10T00:01:26+08:00
; #@! TF.GenerationSoftware,Kicad,Pcbnew,8.0.2
; #@! TF.FileFunction,Plated,1,2,PTH
FMAT,2
INCH
; #@! TA.AperFunction,Plated,PTH,ViaDrill
T1C0.0118
; #@! TA.AperFunction,Plated,PTH,ViaDrill
T2C0.0157
; #@! TA.AperFunction,Plated,PTH,ComponentDrill
T3C0.0236
; #@! TA.AperFunction,Plated,PTH,ComponentDrill
T4C0.0256
; #@! TA.AperFunction,Plated,PTH,ComponentDrill
T5C0.0394
; #@! TA.AperFunction,Plated,PTH,ComponentDrill
T6C0.0984
; #@! TA.AperFunction,Plated,PTH,ComponentDrill
T7C0.0984
; #@! TA.AperFunction,Plated,PTH,ComponentDrill
T8C0.1201
%
G90
G05
T1
X0.0413Y3.0531
X0.1697Y2.0728
X0.576Y0.2528
X0.6366Y3.5252
X0.6713Y2.4587
X0.7037Y3.4122
X0.7461Y3.4122
X0.7634Y1.7559
X0.7979Y3.5262
X0.9512Y1.0016
X0.9677Y1.7689
X0.9677Y1.7283
X0.998Y1.728
X0.9984Y1.7689
X1.2425Y0.1866
X1.2602Y3.0528
X1.3354Y2.8717
X1.5134Y0.2531
X1.5217Y1.6799
X1.522Y0.9799
X1.5354Y3.2559
X1.6075Y2.4594
X1.7098Y3.2185
X1.7948Y1.7493
X1.8445Y2.911
X1.8449Y3.0852
X1.9823Y3.2559
X2.085Y2.9213
X2.1697Y1.0028
X2.1803Y0.1965
X2.3575Y2.4594
X2.3669Y0.9406
X2.4512Y0.2528
X2.5448Y1.7497
X2.6906Y0.2476
X2.7142Y0.2468
X2.7323Y3.2559
X2.7898Y0.7492
X2.9197Y1.002
X3.1073Y2.4596
X3.2953Y1.7492
X3.3992Y0.9181
X3.5409Y0.6516
X3.6701Y1.0016
X3.774Y0.7811
X3.8571Y2.4594
X3.9181Y1.0768
X3.9508Y1.0764
X3.9724Y0.7807
X4.0449Y1.7492
X4.1198Y0.7569
X4.1478Y0.965
X4.174Y1.4945
X4.22Y0.8365
X4.2323Y3.2539
X4.2701Y0.8362
X4.2949Y0.7661
X4.3449Y0.7429
X4.3949Y0.7197
X4.4197Y1.0028
X4.4197Y0.8362
X4.4449Y0.6965
X4.4701Y0.836
X4.5571Y0.6654
X4.6071Y2.4591
X4.6524Y0.7945
X4.7949Y1.7488
X4.9705Y0.8193
X4.9823Y3.2543
X5.1697Y1.0024
X5.1807Y0.1126
X5.2638Y0.2591
X5.2646Y0.0236
X5.2862Y0.1126
X5.3Y1.972
X5.3575Y2.4591
X5.6472Y0.978
X5.7323Y3.2547
X5.9197Y1.0024
X5.987Y0.1024
X6.1067Y2.4591
X6.2949Y1.7472
X6.2953Y1.5461
X6.3984Y0.9539
X6.4823Y3.2539
X6.6697Y1.0024
X6.8579Y2.4587
X7.0448Y1.7477
X7.148Y0.9299
X7.2323Y3.2559
X7.4197Y1.0028
X7.6075Y2.4591
X7.7948Y1.7477
X7.8937Y0.9071
X7.9823Y3.2539
X8.076Y0.2595
X8.1697Y1.0024
X8.3583Y2.4587
X8.5449Y1.7476
X8.6937Y0.8378
X8.7323Y3.2559
X8.9197Y1.002
X9.0138Y0.2591
X9.0272Y0.815
X9.1083Y2.4587
X9.2209Y0.2423
X9.2445Y0.2423
X9.2681Y0.2423
X9.2917Y0.2423
X9.2948Y1.7485
X9.2957Y3.0917
X9.4823Y3.2539
X9.4996Y2.4583
X9.5193Y1.7461
X9.5295Y1.0004
X9.585Y0.7925
X9.8583Y2.4587
X9.9512Y0.2591
X10.326Y1.0016
X10.5051Y0.6673
X10.5134Y1.7472
X10.5504Y2.7386
X10.6083Y3.2539
X10.8886Y0.2591
T2
X0.1031Y3.5181
X0.1035Y3.6354
X0.2114Y3.6346
X0.2126Y3.5126
X0.5039Y1.5236
X0.5039Y1.4506
X0.6339Y0.6953
X0.8188Y0.6953
X0.88Y2.9878
X1.0037Y0.6953
X1.1335Y2.3744
X1.1886Y0.6953
X1.2087Y2.1898
X1.2556Y1.5717
X1.3184Y2.3744
X1.3906Y0.6957
X1.3935Y2.1898
X1.4405Y1.5717
X1.5033Y2.3744
X1.5784Y2.1898
X1.6254Y1.5717
X1.6882Y2.3744
X1.7604Y0.6957
X1.7633Y2.1898
X1.8102Y1.5717
X1.8902Y2.3748
X1.9453Y0.6957
X1.9654Y2.1902
X2.0123Y1.572
X2.0751Y2.3748
X2.1502Y2.1902
X2.26Y2.3748
X2.3351Y2.1902
X2.382Y1.572
X2.4449Y2.3748
X2.52Y2.1902
X2.5669Y1.572
X2.7417Y2.3744
X2.8122Y2.374
X2.8654Y2.174
X2.878Y0.6854
X2.878Y0.6031
X2.8996Y1.8205
X2.95Y2.1748
X2.9957Y0.6854
X2.9957Y0.6031
X3.0748Y0.3713
X3.0748Y0.2992
X3.1563Y0.3713
X3.1563Y0.2992
X3.2091Y1.4228
X3.2374Y0.3713
X3.2374Y0.2992
X3.2811Y2.2693
X3.2925Y1.4217
X3.4823Y3.2547
X3.4911Y0.3749
X3.6766Y0.4317
X3.7437Y0.6217
X3.8079Y0.6791
X3.8268Y2.2776
X3.8776Y0.9287
X3.9176Y0.4442
X3.9176Y0.3442
X3.9176Y0.2942
X3.9183Y1.565
X4.0082Y0.5192
X4.0082Y0.4692
X4.0082Y0.3692
X4.0117Y2.2776
X4.02Y0.6251
X4.02Y0.1133
X4.0201Y0.7965
X4.0701Y0.1133
X4.1031Y1.565
X4.12Y0.6251
X4.12Y0.1133
X4.17Y0.1133
X4.1701Y0.0429
X4.1965Y2.2776
X4.2002Y1.8201
X4.22Y0.1133
X4.27Y0.1133
X4.32Y0.1133
X4.3256Y2.9827
X4.37Y0.1133
X4.3814Y2.2776
X4.385Y1.8201
X4.42Y0.1133
X4.47Y0.1133
X4.5181Y2.9827
X4.5256Y1.4516
X4.526Y1.4024
X4.5835Y2.278
X4.7105Y2.9827
X4.7683Y2.278
X4.903Y2.9827
X4.9532Y2.278
X5.0954Y2.9827
X5.1381Y2.278
X5.2879Y2.9827
X5.4804Y2.9827
X5.5079Y2.278
X5.6728Y2.9815
X5.6928Y2.278
X5.8653Y2.9815
X5.8776Y2.278
X6.0578Y2.9815
X6.0625Y2.2768
X6.2474Y2.2768
X6.2502Y2.9815
X6.4323Y2.2768
X6.4427Y2.9815
X6.6172Y2.2768
X6.6352Y2.9815
X6.802Y2.2768
X6.8276Y2.9815
X6.9869Y2.2768
X7.0201Y2.9815
X7.1718Y2.2768
X7.3567Y2.2768
T4
X1.4839Y3.6102
X1.4839Y3.5602
X1.4839Y3.5102
X4.652Y1.1516
X4.652Y1.1016
T5
X0.0803Y2.2728
X0.0803Y2.1728
X0.0803Y2.0728
X0.0803Y1.9728
T7
X0.9921Y2.622
T8
X0.2602Y3.1602
X0.304Y0.4602
X0.3977Y2.7102
X0.4915Y1.9602
X0.5102Y3.2602
X0.554Y0.5602
X0.6477Y2.8102
X0.679Y1.2102
X0.7415Y2.0602
X0.929Y1.3102
X1.0102Y3.1602
X1.2415Y0.4602
X1.2602Y3.2602
X1.3352Y2.7102
X1.4915Y0.5602
X1.5227Y1.9602
X1.5852Y2.8102
X1.7102Y3.4602
X1.7727Y2.0602
X1.8977Y1.2102
X1.9602Y3.5602
X2.0852Y2.7102
X2.1477Y1.3102
X2.179Y0.4602
X2.2727Y1.9602
X2.3352Y2.8102
X2.429Y0.5602
X2.4602Y3.4602
X2.5227Y2.0602
X2.6477Y1.2102
X2.7102Y3.5602
X2.8352Y2.7102
X2.8977Y1.3102
X3.0227Y1.9602
X3.0852Y2.8102
X3.2102Y3.4602
X3.2727Y2.0602
X3.3977Y1.2102
X3.4602Y3.5602
X3.5852Y2.7102
X3.6477Y1.3102
X3.7727Y1.9602
X3.8352Y2.8102
X3.9602Y3.4602
X4.0227Y2.0602
X4.1477Y1.2102
X4.2102Y3.5602
X4.3352Y2.7102
X4.3977Y1.3102
X4.5227Y1.9602
X4.5852Y2.8102
X4.7102Y3.4602
X4.7727Y2.0602
X4.8977Y1.2102
X4.9602Y3.5602
X4.9915Y0.4602
X5.0852Y2.7102
X5.1477Y1.3102
X5.2415Y0.5602
X5.3227Y1.6602
X5.3352Y2.8102
X5.4602Y3.4602
X5.5727Y1.7602
X5.6477Y1.2102
X5.7102Y3.5602
X5.8352Y2.7102
X5.8977Y1.3102
X6.0227Y1.9602
X6.0852Y2.8102
X6.2102Y3.4602
X6.2727Y2.0602
X6.3977Y1.2102
X6.4602Y3.5602
X6.5852Y2.7102
X6.6477Y1.3102
X6.7727Y1.9602
X6.8352Y2.8102
X6.9602Y3.4602
X7.0227Y2.0602
X7.1477Y1.2102
X7.2102Y3.5602
X7.3352Y2.7102
X7.3977Y1.3102
X7.5227Y1.9602
X7.5852Y2.8102
X7.7102Y3.4602
X7.7727Y2.0602
X7.804Y0.4602
X7.8977Y1.2102
X7.9602Y3.5602
X8.054Y0.5602
X8.0852Y2.7102
X8.1477Y1.3102
X8.2727Y1.9602
X8.3352Y2.8102
X8.4602Y3.4602
X8.5227Y2.0602
X8.6477Y1.2102
X8.7102Y3.5602
X8.7415Y0.4602
X8.8352Y2.7102
X8.8977Y1.3102
X8.9915Y0.5602
X9.0227Y1.9602
X9.0852Y2.8102
X9.2102Y3.4602
X9.2727Y2.0602
X9.4602Y3.5602
X9.5852Y2.7102
X9.679Y0.4602
X9.8352Y2.8102
X9.929Y0.5602
X10.054Y1.2102
X10.2415Y1.9602
X10.304Y1.3102
X10.3352Y3.4602
X10.4915Y2.0602
X10.5727Y2.4102
X10.5852Y3.5602
X10.6165Y0.4602
X10.8227Y2.5102
X10.8665Y0.5602
T3
G00X0.5465Y3.6752
M15
G01X0.5465Y3.6437
M16
G05
G00X0.5465Y3.5165
M15
G01X0.5465Y3.4732
M16
G05
G00X0.8866Y3.6752
M15
G01X0.8866Y3.6437
M16
G05
G00X0.8866Y3.5165
M15
G01X0.8866Y3.4732
M16
G05
T6
G00X-0.0311Y1.5
M15
G01X0.1461Y1.5
M16
G05
G00X4.998Y1.874
M15
G01X5.0965Y1.874
M16
G05
G00X10.1889Y2.626
M15
G01X10.2874Y2.626
M16
G05
G00X11.0744Y1.5
M15
G01X11.2516Y1.5
M16
G05
M30
