%TF.GenerationSoftware,KiCad,Pcbnew,8.0.2*%
%TF.CreationDate,2024-05-13T14:37:15+08:00*%
%TF.ProjectId,rmk-ble-keyboard,726d6b2d-626c-4652-9d6b-6579626f6172,0*%
%TF.SameCoordinates,Original*%
%TF.FileFunction,Paste,Bot*%
%TF.FilePolarity,Positive*%
%FSLAX46Y46*%
G04 Gerber Fmt 4.6, Leading zero omitted, Abs format (unit mm)*
G04 Created by KiCad (PCBNEW 8.0.2) date 2024-05-13 14:37:15*
%MOMM*%
%LPD*%
G01*
G04 APERTURE LIST*
G04 Aperture macros list*
%AMRoundRect*
0 Rectangle with rounded corners*
0 $1 Rounding radius*
0 $2 $3 $4 $5 $6 $7 $8 $9 X,Y pos of 4 corners*
0 Add a 4 corners polygon primitive as box body*
4,1,4,$2,$3,$4,$5,$6,$7,$8,$9,$2,$3,0*
0 Add four circle primitives for the rounded corners*
1,1,$1+$1,$2,$3*
1,1,$1+$1,$4,$5*
1,1,$1+$1,$6,$7*
1,1,$1+$1,$8,$9*
0 Add four rect primitives between the rounded corners*
20,1,$1+$1,$2,$3,$4,$5,0*
20,1,$1+$1,$4,$5,$6,$7,0*
20,1,$1+$1,$6,$7,$8,$9,0*
20,1,$1+$1,$8,$9,$2,$3,0*%
G04 Aperture macros list end*
%ADD10RoundRect,0.250000X-1.025000X-1.000000X1.025000X-1.000000X1.025000X1.000000X-1.025000X1.000000X0*%
%ADD11RoundRect,0.250000X1.025000X1.000000X-1.025000X1.000000X-1.025000X-1.000000X1.025000X-1.000000X0*%
%ADD12RoundRect,0.237500X0.300000X0.237500X-0.300000X0.237500X-0.300000X-0.237500X0.300000X-0.237500X0*%
%ADD13RoundRect,0.225000X0.375000X-0.225000X0.375000X0.225000X-0.375000X0.225000X-0.375000X-0.225000X0*%
%ADD14RoundRect,0.150000X-0.512500X-0.150000X0.512500X-0.150000X0.512500X0.150000X-0.512500X0.150000X0*%
%ADD15R,0.950000X1.200000*%
%ADD16RoundRect,0.150000X-0.150000X-0.425000X0.150000X-0.425000X0.150000X0.425000X-0.150000X0.425000X0*%
%ADD17RoundRect,0.075000X-0.075000X-0.500000X0.075000X-0.500000X0.075000X0.500000X-0.075000X0.500000X0*%
%ADD18O,1.000000X1.800000*%
%ADD19O,1.000000X2.100000*%
%ADD20R,0.600000X1.200000*%
%ADD21R,3.300000X2.400000*%
%ADD22RoundRect,0.237500X-0.237500X0.300000X-0.237500X-0.300000X0.237500X-0.300000X0.237500X0.300000X0*%
%ADD23R,0.800000X2.000000*%
%ADD24R,0.800000X1.200000*%
%ADD25R,2.000000X0.800000*%
%ADD26R,1.200000X0.800000*%
%ADD27RoundRect,0.150000X-0.150000X-0.625000X0.150000X-0.625000X0.150000X0.625000X-0.150000X0.625000X0*%
%ADD28RoundRect,0.250000X-0.350000X-0.650000X0.350000X-0.650000X0.350000X0.650000X-0.350000X0.650000X0*%
%ADD29RoundRect,0.250000X0.450000X-0.350000X0.450000X0.350000X-0.450000X0.350000X-0.450000X-0.350000X0*%
%ADD30R,1.800000X1.000000*%
%ADD31RoundRect,0.225000X-0.375000X0.225000X-0.375000X-0.225000X0.375000X-0.225000X0.375000X0.225000X0*%
%ADD32RoundRect,0.237500X0.250000X0.237500X-0.250000X0.237500X-0.250000X-0.237500X0.250000X-0.237500X0*%
%ADD33RoundRect,0.150000X-0.587500X-0.150000X0.587500X-0.150000X0.587500X0.150000X-0.587500X0.150000X0*%
%ADD34RoundRect,0.237500X-0.300000X-0.237500X0.300000X-0.237500X0.300000X0.237500X-0.300000X0.237500X0*%
%ADD35RoundRect,0.237500X-0.250000X-0.237500X0.250000X-0.237500X0.250000X0.237500X-0.250000X0.237500X0*%
%ADD36RoundRect,0.237500X-0.237500X0.250000X-0.237500X-0.250000X0.237500X-0.250000X0.237500X0.250000X0*%
%ADD37RoundRect,0.237500X0.237500X-0.250000X0.237500X0.250000X-0.237500X0.250000X-0.237500X-0.250000X0*%
G04 APERTURE END LIST*
D10*
%TO.C,SW33*%
X92552500Y49790000D03*
X105479500Y52330000D03*
%TD*%
%TO.C,SW7*%
X116365000Y87890000D03*
X129292000Y90430000D03*
%TD*%
%TO.C,SW21*%
X125890000Y68840000D03*
X138817000Y71380000D03*
%TD*%
%TO.C,SW38*%
X187802500Y49790000D03*
X200729500Y52330000D03*
%TD*%
%TO.C,SW23*%
X163990000Y68840000D03*
X176917000Y71380000D03*
%TD*%
%TO.C,SW11*%
X192565000Y87890000D03*
X205492000Y90430000D03*
%TD*%
D11*
%TO.C,SW1*%
X16235000Y82810000D03*
X3308000Y80270000D03*
%TD*%
D10*
%TO.C,SW24*%
X183040000Y68840000D03*
X195967000Y71380000D03*
%TD*%
%TO.C,SW60*%
X242571250Y11690000D03*
X255498250Y14230000D03*
%TD*%
%TO.C,SW39*%
X206852500Y49790000D03*
X219779500Y52330000D03*
%TD*%
%TO.C,SW8*%
X135415000Y87890000D03*
X148342000Y90430000D03*
%TD*%
%TO.C,SW37*%
X168752500Y49790000D03*
X181679500Y52330000D03*
%TD*%
%TO.C,SW55*%
X28258750Y11690000D03*
X41185750Y14230000D03*
%TD*%
%TO.C,SW61*%
X266383750Y11690000D03*
X279310750Y14230000D03*
%TD*%
%TO.C,SW56*%
X52071250Y11690000D03*
X64998250Y14230000D03*
%TD*%
%TO.C,SW43*%
X44927500Y30740000D03*
X57854500Y33280000D03*
%TD*%
%TO.C,SW26*%
X221140000Y68840000D03*
X234067000Y71380000D03*
%TD*%
%TO.C,SW13*%
X230665000Y87890000D03*
X243592000Y90430000D03*
%TD*%
%TO.C,SW40*%
X225902500Y49790000D03*
X238829500Y52330000D03*
%TD*%
%TO.C,SW25*%
X202090000Y68840000D03*
X215017000Y71380000D03*
%TD*%
%TO.C,SW18*%
X68740000Y68840000D03*
X81667000Y71380000D03*
%TD*%
%TO.C,SW16*%
X30640000Y68840000D03*
X43567000Y71380000D03*
%TD*%
%TO.C,SW9*%
X154465000Y87890000D03*
X167392000Y90430000D03*
%TD*%
%TO.C,SW42*%
X13971250Y30740000D03*
X26898250Y33280000D03*
%TD*%
%TO.C,SW32*%
X73502500Y49790000D03*
X86429500Y52330000D03*
%TD*%
D11*
%TO.C,SW35*%
X144822500Y44710000D03*
X131895500Y42170000D03*
%TD*%
D10*
%TO.C,SW51*%
X197327500Y30740000D03*
X210254500Y33280000D03*
%TD*%
%TO.C,SW6*%
X97315000Y87890000D03*
X110242000Y90430000D03*
%TD*%
%TO.C,SW10*%
X173515000Y87890000D03*
X186442000Y90430000D03*
%TD*%
%TO.C,SW36*%
X149702500Y49790000D03*
X162629500Y52330000D03*
%TD*%
%TO.C,SW46*%
X102077500Y30740000D03*
X115004500Y33280000D03*
%TD*%
%TO.C,SW3*%
X40165000Y87890000D03*
X53092000Y90430000D03*
%TD*%
%TO.C,SW20*%
X106840000Y68840000D03*
X119767000Y71380000D03*
%TD*%
%TO.C,SW30*%
X35402500Y49790000D03*
X48329500Y52330000D03*
%TD*%
D11*
%TO.C,SW28*%
X278172500Y63760000D03*
X265245500Y61220000D03*
%TD*%
D10*
%TO.C,SW41*%
X256858750Y49790000D03*
X269785750Y52330000D03*
%TD*%
%TO.C,SW59*%
X218758750Y11690000D03*
X231685750Y14230000D03*
%TD*%
%TO.C,SW57*%
X123508750Y11690000D03*
X136435750Y14230000D03*
%TD*%
%TO.C,SW19*%
X87790000Y68840000D03*
X100717000Y71380000D03*
%TD*%
%TO.C,SW15*%
X6827500Y68840000D03*
X19754500Y71380000D03*
%TD*%
%TO.C,SW50*%
X178277500Y30740000D03*
X191204500Y33280000D03*
%TD*%
%TO.C,SW31*%
X54452500Y49790000D03*
X67379500Y52330000D03*
%TD*%
%TO.C,SW54*%
X4446250Y11690000D03*
X17373250Y14230000D03*
%TD*%
%TO.C,SW47*%
X121127500Y30740000D03*
X134054500Y33280000D03*
%TD*%
%TO.C,SW5*%
X78265000Y87890000D03*
X91192000Y90430000D03*
%TD*%
%TO.C,SW4*%
X59215000Y87890000D03*
X72142000Y90430000D03*
%TD*%
%TO.C,SW49*%
X159227500Y30740000D03*
X172154500Y33280000D03*
%TD*%
%TO.C,SW45*%
X83027500Y30740000D03*
X95954500Y33280000D03*
%TD*%
%TO.C,SW44*%
X63977500Y30740000D03*
X76904500Y33280000D03*
%TD*%
%TO.C,SW34*%
X111602500Y49790000D03*
X124529500Y52330000D03*
%TD*%
%TO.C,SW22*%
X144940000Y68840000D03*
X157867000Y71380000D03*
%TD*%
%TO.C,SW58*%
X194946250Y11690000D03*
X207873250Y14230000D03*
%TD*%
%TO.C,SW12*%
X211615000Y87890000D03*
X224542000Y90430000D03*
%TD*%
%TO.C,SW29*%
X9208750Y49790000D03*
X22135750Y52330000D03*
%TD*%
D11*
%TO.C,SW2*%
X35285000Y82810000D03*
X22358000Y80270000D03*
%TD*%
D10*
%TO.C,SW17*%
X49690000Y68840000D03*
X62617000Y71380000D03*
%TD*%
%TO.C,SW27*%
X240190000Y68840000D03*
X253117000Y71380000D03*
%TD*%
%TO.C,SW14*%
X259240000Y87890000D03*
X272167000Y90430000D03*
%TD*%
%TO.C,SW52*%
X216377500Y30740000D03*
X229304500Y33280000D03*
%TD*%
%TO.C,SW48*%
X140177500Y30740000D03*
X153104500Y33280000D03*
%TD*%
%TO.C,SW53*%
X252096250Y30740000D03*
X265023250Y33280000D03*
%TD*%
D12*
%TO.C,C4*%
X95132500Y8450000D03*
X93407500Y8450000D03*
%TD*%
D13*
%TO.C,D31*%
X64637500Y45600000D03*
X64637500Y48900000D03*
%TD*%
%TO.C,D52*%
X226562500Y26550000D03*
X226562500Y29850000D03*
%TD*%
D14*
%TO.C,U2*%
X22352500Y74940000D03*
X22352500Y75890000D03*
X22352500Y76840000D03*
X24627500Y76840000D03*
X24627500Y75890000D03*
X24627500Y74940000D03*
%TD*%
D13*
%TO.C,D34*%
X121787500Y45600000D03*
X121787500Y48900000D03*
%TD*%
%TO.C,D8*%
X145600000Y83700000D03*
X145600000Y87000000D03*
%TD*%
%TO.C,D17*%
X59875000Y64650000D03*
X59875000Y67950000D03*
%TD*%
%TO.C,D49*%
X169412500Y26550000D03*
X169412500Y29850000D03*
%TD*%
%TO.C,D48*%
X150362500Y26550000D03*
X150362500Y29850000D03*
%TD*%
%TO.C,D32*%
X83687500Y45600000D03*
X83687500Y48900000D03*
%TD*%
D15*
%TO.C,D63*%
X74980000Y12770000D03*
X74980000Y9370000D03*
%TD*%
D16*
%TO.C,J1*%
X15000000Y88195000D03*
X15800000Y88195000D03*
D17*
X16950000Y88195000D03*
X17950000Y88195000D03*
X18450000Y88195000D03*
X19450000Y88195000D03*
D16*
X20600000Y88195000D03*
X21400000Y88195000D03*
X21400000Y88195000D03*
X20600000Y88195000D03*
D17*
X19950000Y88195000D03*
X18950000Y88195000D03*
X17450000Y88195000D03*
X16450000Y88195000D03*
D16*
X15800000Y88195000D03*
X15000000Y88195000D03*
D18*
X13880000Y92950000D03*
D19*
X13880000Y88770000D03*
D18*
X22520000Y92950000D03*
D19*
X22520000Y88770000D03*
%TD*%
D13*
%TO.C,D7*%
X126550000Y83700000D03*
X126550000Y87000000D03*
%TD*%
%TO.C,D12*%
X221800000Y83700000D03*
X221800000Y87000000D03*
%TD*%
%TO.C,D27*%
X250375000Y64650000D03*
X250375000Y67950000D03*
%TD*%
D20*
%TO.C,U3*%
X91215000Y9521500D03*
X89945000Y9521500D03*
X88675000Y9521500D03*
X87405000Y9521500D03*
X87405000Y15338500D03*
X88675000Y15338500D03*
X89945000Y15338500D03*
X91215000Y15338500D03*
D21*
X89310000Y12430000D03*
%TD*%
D13*
%TO.C,D20*%
X117025000Y64650000D03*
X117025000Y67950000D03*
%TD*%
%TO.C,D51*%
X207512500Y26550000D03*
X207512500Y29850000D03*
%TD*%
%TO.C,D40*%
X236087500Y45600000D03*
X236087500Y48900000D03*
%TD*%
D22*
%TO.C,C1*%
X85765000Y13271000D03*
X85765000Y11546000D03*
%TD*%
D13*
%TO.C,D4*%
X69400000Y83700000D03*
X69400000Y87000000D03*
%TD*%
%TO.C,D42*%
X267043750Y45600000D03*
X267043750Y48900000D03*
%TD*%
%TO.C,D6*%
X107500000Y83700000D03*
X107500000Y87000000D03*
%TD*%
D23*
%TO.C,U1*%
X113537200Y15878600D03*
D24*
X112897200Y13578600D03*
D23*
X112264400Y15878900D03*
D24*
X111632200Y13578600D03*
D23*
X110997200Y15878600D03*
D24*
X110362200Y13578600D03*
D23*
X109727200Y15878600D03*
D24*
X109092200Y13578600D03*
D23*
X108457200Y15878600D03*
D24*
X107822200Y13578600D03*
D23*
X107187200Y15878600D03*
D24*
X106552200Y13578600D03*
D23*
X105917200Y15878600D03*
D24*
X105282200Y13578600D03*
D23*
X104647200Y15878600D03*
D24*
X104012200Y13578600D03*
D23*
X103377200Y15878600D03*
X102107200Y15878600D03*
D25*
X99507200Y13823600D03*
D26*
X101807200Y13188600D03*
D25*
X99507200Y12553600D03*
D26*
X101807200Y11918850D03*
D25*
X99507200Y11283600D03*
D26*
X101807200Y10648850D03*
D25*
X99507200Y10013600D03*
D26*
X101807200Y9378850D03*
D25*
X99507200Y8743600D03*
D26*
X101807200Y8108850D03*
D25*
X99507200Y7473600D03*
D26*
X101807200Y6838850D03*
D25*
X99507200Y6203600D03*
D26*
X101807200Y5568850D03*
D25*
X99507200Y4933600D03*
D23*
X102107200Y2878600D03*
X103380000Y2878300D03*
X104647200Y2878600D03*
X105917200Y2878600D03*
X107187200Y2878600D03*
X108457200Y2878600D03*
X109727200Y2878600D03*
X110997200Y2878600D03*
X112267200Y2878600D03*
X113537200Y2878600D03*
%TD*%
D27*
%TO.C,J6*%
X108649800Y37960200D03*
X109649800Y37960200D03*
D28*
X107349800Y41835200D03*
X110949800Y41835200D03*
%TD*%
D29*
%TO.C,R4*%
X86150000Y5180000D03*
X86150000Y7180000D03*
%TD*%
D13*
%TO.C,D54*%
X14631250Y7500000D03*
X14631250Y10800000D03*
%TD*%
%TO.C,D33*%
X102737500Y45600000D03*
X102737500Y48900000D03*
%TD*%
%TO.C,D9*%
X164650000Y83700000D03*
X164650000Y87000000D03*
%TD*%
%TO.C,D5*%
X88450000Y83700000D03*
X88450000Y87000000D03*
%TD*%
%TO.C,D36*%
X159887500Y45600000D03*
X159887500Y48900000D03*
%TD*%
D30*
%TO.C,Y1*%
X94750000Y4315000D03*
X94750000Y6815000D03*
%TD*%
D13*
%TO.C,D11*%
X202750000Y83700000D03*
X202750000Y87000000D03*
%TD*%
D14*
%TO.C,U5*%
X93386500Y10014600D03*
X93386500Y10964600D03*
X93386500Y11914600D03*
X95661500Y11914600D03*
X95661500Y10014600D03*
%TD*%
D13*
%TO.C,D16*%
X40825000Y64650000D03*
X40825000Y67950000D03*
%TD*%
D22*
%TO.C,C2*%
X87905000Y7238500D03*
X87905000Y5513500D03*
%TD*%
D13*
%TO.C,D39*%
X217037500Y45600000D03*
X217037500Y48900000D03*
%TD*%
%TO.C,D10*%
X183700000Y83700000D03*
X183700000Y87000000D03*
%TD*%
%TO.C,D19*%
X97975000Y64650000D03*
X97975000Y67950000D03*
%TD*%
%TO.C,D46*%
X112262500Y26550000D03*
X112262500Y29850000D03*
%TD*%
%TO.C,D37*%
X178937500Y45600000D03*
X178937500Y48900000D03*
%TD*%
%TO.C,D56*%
X62256250Y7500000D03*
X62256250Y10800000D03*
%TD*%
%TO.C,D26*%
X231325000Y64650000D03*
X231325000Y67950000D03*
%TD*%
%TO.C,D25*%
X212275000Y64650000D03*
X212275000Y67950000D03*
%TD*%
%TO.C,D58*%
X205131250Y7500000D03*
X205131250Y10800000D03*
%TD*%
D31*
%TO.C,D2*%
X25100000Y87000000D03*
X25100000Y83700000D03*
%TD*%
%TO.C,D35*%
X134637500Y48900000D03*
X134637500Y45600000D03*
%TD*%
D13*
%TO.C,D50*%
X188462500Y26550000D03*
X188462500Y29850000D03*
%TD*%
%TO.C,D24*%
X193225000Y64650000D03*
X193225000Y67950000D03*
%TD*%
%TO.C,D41*%
X24156250Y26550000D03*
X24156250Y29850000D03*
%TD*%
%TO.C,D45*%
X93212500Y26550000D03*
X93212500Y29850000D03*
%TD*%
%TO.C,D18*%
X78925000Y64650000D03*
X78925000Y67950000D03*
%TD*%
%TO.C,D21*%
X136075000Y64650000D03*
X136075000Y67950000D03*
%TD*%
D32*
%TO.C,R2*%
X9986300Y92462000D03*
X8161300Y92462000D03*
%TD*%
D33*
%TO.C,Q1*%
X71045300Y10207500D03*
X71045300Y12107500D03*
X72920300Y11157500D03*
%TD*%
D13*
%TO.C,D43*%
X55112500Y26550000D03*
X55112500Y29850000D03*
%TD*%
%TO.C,D3*%
X50350000Y83700000D03*
X50350000Y87000000D03*
%TD*%
%TO.C,D47*%
X131312500Y26550000D03*
X131312500Y29850000D03*
%TD*%
%TO.C,D60*%
X252756250Y7500000D03*
X252756250Y10800000D03*
%TD*%
D34*
%TO.C,C3*%
X93382100Y13453800D03*
X95107100Y13453800D03*
%TD*%
D13*
%TO.C,D59*%
X228943750Y7500000D03*
X228943750Y10800000D03*
%TD*%
D32*
%TO.C,R1*%
X9986300Y90963400D03*
X8161300Y90963400D03*
%TD*%
D13*
%TO.C,D38*%
X197987500Y45600000D03*
X197987500Y48900000D03*
%TD*%
D31*
%TO.C,D28*%
X267987500Y67950000D03*
X267987500Y64650000D03*
%TD*%
D13*
%TO.C,D22*%
X155125000Y64650000D03*
X155125000Y67950000D03*
%TD*%
%TO.C,D13*%
X240850000Y83700000D03*
X240850000Y87000000D03*
%TD*%
D31*
%TO.C,D1*%
X6050000Y87000000D03*
X6050000Y83700000D03*
%TD*%
D13*
%TO.C,D61*%
X276568750Y7500000D03*
X276568750Y10800000D03*
%TD*%
%TO.C,D44*%
X74162500Y26550000D03*
X74162500Y29850000D03*
%TD*%
%TO.C,D57*%
X133693750Y7500000D03*
X133693750Y10800000D03*
%TD*%
%TO.C,D14*%
X269425000Y83700000D03*
X269425000Y87000000D03*
%TD*%
%TO.C,D23*%
X174175000Y64650000D03*
X174175000Y67950000D03*
%TD*%
D35*
%TO.C,R7*%
X27236700Y91674600D03*
X29061700Y91674600D03*
%TD*%
D13*
%TO.C,D55*%
X38443750Y7500000D03*
X38443750Y10800000D03*
%TD*%
D36*
%TO.C,R9*%
X114950000Y40762500D03*
X114950000Y38937500D03*
%TD*%
D13*
%TO.C,D30*%
X45587500Y45600000D03*
X45587500Y48900000D03*
%TD*%
D37*
%TO.C,R8*%
X113420000Y38937500D03*
X113420000Y40762500D03*
%TD*%
%TO.C,R3*%
X89435000Y5456000D03*
X89435000Y7281000D03*
%TD*%
D13*
%TO.C,D53*%
X262281250Y26550000D03*
X262281250Y29850000D03*
%TD*%
%TO.C,D15*%
X17012500Y64650000D03*
X17012500Y67950000D03*
%TD*%
%TO.C,D29*%
X19393750Y45600000D03*
X19393750Y48900000D03*
%TD*%
M02*
