M48
; DRILL file {KiCad 8.0.5} date 2024-10-17T14:13:38+0800
; FORMAT={-:-/ absolute / inch / decimal}
; #@! TF.CreationDate,2024-10-17T14:13:38+08:00
; #@! TF.GenerationSoftware,Kicad,Pcbnew,8.0.5
; #@! TF.FileFunction,NonPlated,1,2,NPTH
FMAT,2
INCH
; #@! TA.AperFunction,NonPlated,NPTH,ComponentDrill
T1C0.0256
; #@! TA.AperFunction,NonPlated,NPTH,ComponentDrill
T2C0.0354
; #@! TA.AperFunction,NonPlated,NPTH,ComponentDrill
T3C0.0689
; #@! TA.AperFunction,NonPlated,NPTH,ComponentDrill
T4C0.1200
; #@! TA.AperFunction,NonPlated,NPTH,ComponentDrill
T5C0.1570
; #@! TA.AperFunction,NonPlated,NPTH,ComponentDrill
T6C0.1575
%
G90
G05
T1
X0.6028Y3.5343
X0.8303Y3.5343
T2
X1.1285Y1.9984
X1.1285Y1.8803
T3
X0.1602Y3.3602
X0.254Y0.3602
X0.3477Y2.6102
X0.4415Y1.8602
X0.5602Y3.3602
X0.629Y1.1102
X0.654Y0.3602
X0.7477Y2.6102
X0.8415Y1.8602
X0.9102Y3.3602
X1.029Y1.1102
X1.1915Y0.3602
X1.2852Y2.6102
X1.3102Y3.3602
X1.4727Y1.8602
X1.5915Y0.3602
X1.6602Y3.3602
X1.6852Y2.6102
X1.8477Y1.1102
X1.8727Y1.8602
X2.0352Y2.6102
X2.0602Y3.3602
X2.129Y0.3602
X2.2227Y1.8602
X2.2477Y1.1102
X2.4102Y3.3602
X2.4352Y2.6102
X2.529Y0.3602
X2.5977Y1.1102
X2.6227Y1.8602
X2.7852Y2.6102
X2.8102Y3.3602
X2.9727Y1.8602
X2.9977Y1.1102
X3.1602Y3.3602
X3.1852Y2.6102
X3.3477Y1.1102
X3.3727Y1.8602
X3.5352Y2.6102
X3.5602Y3.3602
X3.7227Y1.8602
X3.7477Y1.1102
X3.9102Y3.3602
X3.9352Y2.6102
X4.0977Y1.1102
X4.1227Y1.8602
X4.2852Y2.6102
X4.3102Y3.3602
X4.4727Y1.8602
X4.4977Y1.1102
X4.6602Y3.3602
X4.6852Y2.6102
X4.8477Y1.1102
X4.8727Y1.8602
X4.9415Y0.3602
X5.0352Y2.6102
X5.0602Y3.3602
X5.2227Y1.8602
X5.2477Y1.1102
X5.3415Y0.3602
X5.4102Y3.3602
X5.4352Y2.6102
X5.5977Y1.1102
X5.6227Y1.8602
X5.7852Y2.6102
X5.8102Y3.3602
X5.9727Y1.8602
X5.9977Y1.1102
X6.1602Y3.3602
X6.1852Y2.6102
X6.3477Y1.1102
X6.3727Y1.8602
X6.5352Y2.6102
X6.5602Y3.3602
X6.7227Y1.8602
X6.7477Y1.1102
X6.9102Y3.3602
X6.9352Y2.6102
X7.0977Y1.1102
X7.1227Y1.8602
X7.2852Y2.6102
X7.3102Y3.3602
X7.4727Y1.8602
X7.4977Y1.1102
X7.6602Y3.3602
X7.6852Y2.6102
X7.754Y0.3602
X7.8477Y1.1102
X7.8727Y1.8602
X8.0352Y2.6102
X8.0602Y3.3602
X8.154Y0.3602
X8.2227Y1.8602
X8.2477Y1.1102
X8.4102Y3.3602
X8.4352Y2.6102
X8.5977Y1.1102
X8.6227Y1.8602
X8.6915Y0.3602
X8.7852Y2.6102
X8.8102Y3.3602
X8.9727Y1.8602
X8.9977Y1.1102
X9.0915Y0.3602
X9.1602Y3.3602
X9.1852Y2.6102
X9.3727Y1.8602
X9.5352Y2.6102
X9.5602Y3.3602
X9.629Y0.3602
X9.9352Y2.6102
X10.004Y1.1102
X10.029Y0.3602
X10.1915Y1.8602
X10.2852Y3.3602
X10.404Y1.1102
X10.4727Y2.6102
X10.5665Y0.3602
X10.5915Y1.8602
X10.6852Y3.3602
X10.8727Y2.6102
X10.9665Y0.3602
T4
X0.359Y1.3852
X1.299Y1.3852
X3.173Y0.0852
X7.11Y0.0852
X9.734Y1.3852
X9.9215Y2.1352
X10.0152Y3.6352
X10.674Y1.3852
X10.8615Y2.1352
X10.9552Y3.6352
T5
X0.359Y0.7864
X1.299Y0.7864
X3.173Y0.6841
X7.11Y0.6841
X9.734Y0.7864
X9.9215Y1.5364
X10.0152Y3.0364
X10.674Y0.7864
X10.8615Y1.5364
X10.9552Y3.0364
T6
X0.3602Y3.3602
X0.454Y0.3602
X0.5477Y2.6102
X0.6415Y1.8602
X0.829Y1.1102
X1.1102Y3.3602
X1.3915Y0.3602
X1.4852Y2.6102
X1.6727Y1.8602
X1.8602Y3.3602
X2.0477Y1.1102
X2.2352Y2.6102
X2.329Y0.3602
X2.4227Y1.8602
X2.6102Y3.3602
X2.7977Y1.1102
X2.9852Y2.6102
X3.1727Y1.8602
X3.3602Y3.3602
X3.5477Y1.1102
X3.7352Y2.6102
X3.9227Y1.8602
X4.1102Y3.3602
X4.2977Y1.1102
X4.4852Y2.6102
X4.6727Y1.8602
X4.8602Y3.3602
X5.0477Y1.1102
X5.1415Y0.3602
X5.2352Y2.6102
X5.4227Y1.8602
X5.6102Y3.3602
X5.7977Y1.1102
X5.9852Y2.6102
X6.1727Y1.8602
X6.3602Y3.3602
X6.5477Y1.1102
X6.7352Y2.6102
X6.9227Y1.8602
X7.1102Y3.3602
X7.2977Y1.1102
X7.4852Y2.6102
X7.6727Y1.8602
X7.8602Y3.3602
X7.954Y0.3602
X8.0477Y1.1102
X8.2352Y2.6102
X8.4227Y1.8602
X8.6102Y3.3602
X8.7977Y1.1102
X8.8915Y0.3602
X8.9852Y2.6102
X9.1727Y1.8602
X9.3602Y3.3602
X9.7352Y2.6102
X9.829Y0.3602
X10.204Y1.1102
X10.3915Y1.8602
X10.4852Y3.3602
X10.6727Y2.6102
X10.7665Y0.3602
M30
