%TF.GenerationSoftware,KiCad,Pcbnew,8.0.2*%
%TF.CreationDate,2024-05-10T14:21:02+08:00*%
%TF.ProjectId,rmk-ble-keyboard,726d6b2d-626c-4652-9d6b-6579626f6172,0*%
%TF.SameCoordinates,Original*%
%TF.FileFunction,Soldermask,Top*%
%TF.FilePolarity,Negative*%
%FSLAX46Y46*%
G04 Gerber Fmt 4.6, Leading zero omitted, Abs format (unit mm)*
G04 Created by KiCad (PCBNEW 8.0.2) date 2024-05-10 14:21:02*
%MOMM*%
%LPD*%
G01*
G04 APERTURE LIST*
G04 Aperture macros list*
%AMRoundRect*
0 Rectangle with rounded corners*
0 $1 Rounding radius*
0 $2 $3 $4 $5 $6 $7 $8 $9 X,Y pos of 4 corners*
0 Add a 4 corners polygon primitive as box body*
4,1,4,$2,$3,$4,$5,$6,$7,$8,$9,$2,$3,0*
0 Add four circle primitives for the rounded corners*
1,1,$1+$1,$2,$3*
1,1,$1+$1,$4,$5*
1,1,$1+$1,$6,$7*
1,1,$1+$1,$8,$9*
0 Add four rect primitives between the rounded corners*
20,1,$1+$1,$2,$3,$4,$5,0*
20,1,$1+$1,$4,$5,$6,$7,0*
20,1,$1+$1,$6,$7,$8,$9,0*
20,1,$1+$1,$8,$9,$2,$3,0*%
G04 Aperture macros list end*
%ADD10C,1.750000*%
%ADD11C,4.000000*%
%ADD12C,3.600000*%
%ADD13RoundRect,0.237500X-0.250000X-0.237500X0.250000X-0.237500X0.250000X0.237500X-0.250000X0.237500X0*%
%ADD14C,3.048000*%
%ADD15C,3.987800*%
%ADD16R,1.700000X1.700000*%
%ADD17O,1.700000X1.700000*%
%ADD18O,9.999980X5.001260*%
%ADD19R,0.800000X1.000000*%
%ADD20C,0.900000*%
%ADD21R,1.500000X0.700000*%
%ADD22RoundRect,0.237500X0.287500X0.237500X-0.287500X0.237500X-0.287500X-0.237500X0.287500X-0.237500X0*%
%ADD23R,1.000000X1.000000*%
%ADD24O,1.000000X1.000000*%
%ADD25C,6.000000*%
%ADD26RoundRect,0.237500X0.237500X-0.250000X0.237500X0.250000X-0.237500X0.250000X-0.237500X-0.250000X0*%
%ADD27C,7.001300*%
%ADD28RoundRect,0.237500X0.250000X0.237500X-0.250000X0.237500X-0.250000X-0.237500X0.250000X-0.237500X0*%
%ADD29C,7.000240*%
%ADD30RoundRect,0.237500X-0.237500X0.287500X-0.237500X-0.287500X0.237500X-0.287500X0.237500X0.287500X0*%
%ADD31C,0.650000*%
%ADD32O,1.000000X1.800000*%
%ADD33O,1.000000X2.100000*%
G04 APERTURE END LIST*
D10*
%TO.C,SW33*%
X94557500Y47250000D03*
D11*
X99637500Y47250000D03*
D10*
X104717500Y47250000D03*
D12*
X95827500Y49790000D03*
X102177500Y52330000D03*
%TD*%
D10*
%TO.C,SW7*%
X118370000Y85350000D03*
D11*
X123450000Y85350000D03*
D10*
X128530000Y85350000D03*
D12*
X119640000Y87890000D03*
X125990000Y90430000D03*
%TD*%
D13*
%TO.C,R10*%
X155387500Y2600000D03*
X157212500Y2600000D03*
%TD*%
D10*
%TO.C,SW21*%
X127895000Y66300000D03*
D11*
X132975000Y66300000D03*
D10*
X138055000Y66300000D03*
D12*
X129165000Y68840000D03*
X135515000Y71380000D03*
%TD*%
D10*
%TO.C,SW38*%
X189807500Y47250000D03*
D11*
X194887500Y47250000D03*
D10*
X199967500Y47250000D03*
D12*
X191077500Y49790000D03*
X197427500Y52330000D03*
%TD*%
D10*
%TO.C,SW23*%
X165995000Y66300000D03*
D11*
X171075000Y66300000D03*
D10*
X176155000Y66300000D03*
D12*
X167265000Y68840000D03*
X173615000Y71380000D03*
%TD*%
D14*
%TO.C,REF\u002A\u002A*%
X252005750Y55089950D03*
D15*
X252005750Y39879950D03*
D14*
X275881750Y55089950D03*
D15*
X275881750Y39879950D03*
%TD*%
D10*
%TO.C,SW11*%
X194570000Y85350000D03*
D11*
X199650000Y85350000D03*
D10*
X204730000Y85350000D03*
D12*
X195840000Y87890000D03*
X202190000Y90430000D03*
%TD*%
D16*
%TO.C,J3*%
X2040000Y57730000D03*
D17*
X2040000Y55190000D03*
X2040000Y52650000D03*
X2040000Y50110000D03*
%TD*%
D10*
%TO.C,SW1*%
X14230000Y85350000D03*
D11*
X9150000Y85350000D03*
D10*
X4070000Y85350000D03*
D12*
X12960000Y82810000D03*
X6610000Y80270000D03*
%TD*%
D18*
%TO.C,HOLE*%
X1461100Y38100000D03*
%TD*%
D10*
%TO.C,SW24*%
X185045000Y66300000D03*
D11*
X190125000Y66300000D03*
D10*
X195205000Y66300000D03*
D12*
X186315000Y68840000D03*
X192665000Y71380000D03*
%TD*%
D10*
%TO.C,SW60*%
X244576250Y9150000D03*
D11*
X249656250Y9150000D03*
D10*
X254736250Y9150000D03*
D12*
X245846250Y11690000D03*
X252196250Y14230000D03*
%TD*%
D10*
%TO.C,SW39*%
X208857500Y47250000D03*
D11*
X213937500Y47250000D03*
D10*
X219017500Y47250000D03*
D12*
X210127500Y49790000D03*
X216477500Y52330000D03*
%TD*%
D18*
%TO.C,HOLE*%
X283540000Y38100000D03*
%TD*%
D10*
%TO.C,SW8*%
X137420000Y85350000D03*
D11*
X142500000Y85350000D03*
D10*
X147580000Y85350000D03*
D12*
X138690000Y87890000D03*
X145040000Y90430000D03*
%TD*%
D10*
%TO.C,SW37*%
X170757500Y47250000D03*
D11*
X175837500Y47250000D03*
D10*
X180917500Y47250000D03*
D12*
X172027500Y49790000D03*
X178377500Y52330000D03*
%TD*%
D10*
%TO.C,SW55*%
X30263750Y9150000D03*
D11*
X35343750Y9150000D03*
D10*
X40423750Y9150000D03*
D12*
X31533750Y11690000D03*
X37883750Y14230000D03*
%TD*%
D10*
%TO.C,SW61*%
X268388750Y9150000D03*
D11*
X273468750Y9150000D03*
D10*
X278548750Y9150000D03*
D12*
X269658750Y11690000D03*
X276008750Y14230000D03*
%TD*%
D10*
%TO.C,SW56*%
X54076250Y9150000D03*
D11*
X59156250Y9150000D03*
D10*
X64236250Y9150000D03*
D12*
X55346250Y11690000D03*
X61696250Y14230000D03*
%TD*%
D19*
%TO.C,SW62*%
X27555000Y45610000D03*
X29765000Y45610000D03*
D20*
X28665000Y47760000D03*
X28665000Y50760000D03*
D19*
X27555000Y52910000D03*
X29765000Y52910000D03*
D21*
X26905000Y47010000D03*
X26905000Y50010000D03*
X26905000Y51510000D03*
%TD*%
D22*
%TO.C,D64*%
X160527000Y2600000D03*
X158777000Y2600000D03*
%TD*%
D10*
%TO.C,SW43*%
X46932500Y28200000D03*
D11*
X52012500Y28200000D03*
D10*
X57092500Y28200000D03*
D12*
X48202500Y30740000D03*
X54552500Y33280000D03*
%TD*%
D10*
%TO.C,SW26*%
X223145000Y66300000D03*
D11*
X228225000Y66300000D03*
D10*
X233305000Y66300000D03*
D12*
X224415000Y68840000D03*
X230765000Y71380000D03*
%TD*%
D10*
%TO.C,SW13*%
X232670000Y85350000D03*
D11*
X237750000Y85350000D03*
D10*
X242830000Y85350000D03*
D12*
X233940000Y87890000D03*
X240290000Y90430000D03*
%TD*%
D10*
%TO.C,SW40*%
X227907500Y47250000D03*
D11*
X232987500Y47250000D03*
D10*
X238067500Y47250000D03*
D12*
X229177500Y49790000D03*
X235527500Y52330000D03*
%TD*%
D10*
%TO.C,SW25*%
X204095000Y66300000D03*
D11*
X209175000Y66300000D03*
D10*
X214255000Y66300000D03*
D12*
X205365000Y68840000D03*
X211715000Y71380000D03*
%TD*%
D10*
%TO.C,SW18*%
X70745000Y66300000D03*
D11*
X75825000Y66300000D03*
D10*
X80905000Y66300000D03*
D12*
X72015000Y68840000D03*
X78365000Y71380000D03*
%TD*%
D10*
%TO.C,SW16*%
X32645000Y66300000D03*
D11*
X37725000Y66300000D03*
D10*
X42805000Y66300000D03*
D12*
X33915000Y68840000D03*
X40265000Y71380000D03*
%TD*%
D23*
%TO.C,J5*%
X118160000Y27980000D03*
D24*
X118160000Y29250000D03*
%TD*%
D25*
%TO.C,HOLE*%
X128200000Y47600000D03*
%TD*%
D23*
%TO.C,J4*%
X37690000Y91700000D03*
D24*
X37690000Y90430000D03*
X37690000Y89160000D03*
%TD*%
D10*
%TO.C,SW9*%
X156470000Y85350000D03*
D11*
X161550000Y85350000D03*
D10*
X166630000Y85350000D03*
D12*
X157740000Y87890000D03*
X164090000Y90430000D03*
%TD*%
D10*
%TO.C,SW42*%
X15976250Y28200000D03*
D11*
X21056250Y28200000D03*
D10*
X26136250Y28200000D03*
D12*
X17246250Y30740000D03*
X23596250Y33280000D03*
%TD*%
D10*
%TO.C,SW32*%
X75507500Y47250000D03*
D11*
X80587500Y47250000D03*
D10*
X85667500Y47250000D03*
D12*
X76777500Y49790000D03*
X83127500Y52330000D03*
%TD*%
D10*
%TO.C,SW35*%
X142817500Y47250000D03*
D11*
X137737500Y47250000D03*
D10*
X132657500Y47250000D03*
D12*
X141547500Y44710000D03*
X135197500Y42170000D03*
%TD*%
D10*
%TO.C,SW51*%
X199332500Y28200000D03*
D11*
X204412500Y28200000D03*
D10*
X209492500Y28200000D03*
D12*
X200602500Y30740000D03*
X206952500Y33280000D03*
%TD*%
D10*
%TO.C,SW6*%
X99320000Y85350000D03*
D11*
X104400000Y85350000D03*
D10*
X109480000Y85350000D03*
D12*
X100590000Y87890000D03*
X106940000Y90430000D03*
%TD*%
D10*
%TO.C,SW10*%
X175520000Y85350000D03*
D11*
X180600000Y85350000D03*
D10*
X185680000Y85350000D03*
D12*
X176790000Y87890000D03*
X183140000Y90430000D03*
%TD*%
D10*
%TO.C,SW36*%
X151707500Y47250000D03*
D11*
X156787500Y47250000D03*
D10*
X161867500Y47250000D03*
D12*
X152977500Y49790000D03*
X159327500Y52330000D03*
%TD*%
D14*
%TO.C,REF\u002A\u002A*%
X180593750Y2165000D03*
D15*
X180593750Y17375000D03*
D14*
X80593750Y2165000D03*
D15*
X80593750Y17375000D03*
%TD*%
D26*
%TO.C,R6*%
X6680000Y45551123D03*
X6680000Y47376123D03*
%TD*%
D10*
%TO.C,SW46*%
X104082500Y28200000D03*
D11*
X109162500Y28200000D03*
D10*
X114242500Y28200000D03*
D12*
X105352500Y30740000D03*
X111702500Y33280000D03*
%TD*%
D10*
%TO.C,SW3*%
X42170000Y85350000D03*
D11*
X47250000Y85350000D03*
D10*
X52330000Y85350000D03*
D12*
X43440000Y87890000D03*
X49790000Y90430000D03*
%TD*%
D14*
%TO.C,REF\u002A\u002A*%
X254387000Y92335000D03*
D15*
X254387000Y77125000D03*
D14*
X278263000Y92335000D03*
D15*
X278263000Y77125000D03*
%TD*%
D10*
%TO.C,SW20*%
X108845000Y66300000D03*
D11*
X113925000Y66300000D03*
D10*
X119005000Y66300000D03*
D12*
X110115000Y68840000D03*
X116465000Y71380000D03*
%TD*%
D10*
%TO.C,SW30*%
X37407500Y47250000D03*
D11*
X42487500Y47250000D03*
D10*
X47567500Y47250000D03*
D12*
X38677500Y49790000D03*
X45027500Y52330000D03*
%TD*%
D14*
%TO.C,REF\u002A\u002A*%
X9118250Y35185000D03*
D15*
X9118250Y19975000D03*
D14*
X32994250Y35185000D03*
D15*
X32994250Y19975000D03*
%TD*%
D10*
%TO.C,SW28*%
X276167500Y66300000D03*
D11*
X271087500Y66300000D03*
D10*
X266007500Y66300000D03*
D12*
X274897500Y63760000D03*
X268547500Y61220000D03*
%TD*%
D10*
%TO.C,SW41*%
X258863750Y47250000D03*
D11*
X263943750Y47250000D03*
D10*
X269023750Y47250000D03*
D12*
X260133750Y49790000D03*
X266483750Y52330000D03*
%TD*%
D10*
%TO.C,SW59*%
X220763750Y9150000D03*
D11*
X225843750Y9150000D03*
D10*
X230923750Y9150000D03*
D12*
X222033750Y11690000D03*
X228383750Y14230000D03*
%TD*%
D10*
%TO.C,SW57*%
X125513750Y9150000D03*
D11*
X130593750Y9150000D03*
D10*
X135673750Y9150000D03*
D12*
X126783750Y11690000D03*
X133133750Y14230000D03*
%TD*%
D10*
%TO.C,SW19*%
X89795000Y66300000D03*
D11*
X94875000Y66300000D03*
D10*
X99955000Y66300000D03*
D12*
X91065000Y68840000D03*
X97415000Y71380000D03*
%TD*%
D27*
%TO.C,HOLE*%
X25200000Y66600000D03*
%TD*%
D10*
%TO.C,SW15*%
X8832500Y66300000D03*
D11*
X13912500Y66300000D03*
D10*
X18992500Y66300000D03*
D12*
X10102500Y68840000D03*
X16452500Y71380000D03*
%TD*%
D28*
%TO.C,R5*%
X28442500Y54530000D03*
X26617500Y54530000D03*
%TD*%
D10*
%TO.C,SW50*%
X180282500Y28200000D03*
D11*
X185362500Y28200000D03*
D10*
X190442500Y28200000D03*
D12*
X181552500Y30740000D03*
X187902500Y33280000D03*
%TD*%
D10*
%TO.C,SW31*%
X56457500Y47250000D03*
D11*
X61537500Y47250000D03*
D10*
X66617500Y47250000D03*
D12*
X57727500Y49790000D03*
X64077500Y52330000D03*
%TD*%
D10*
%TO.C,SW54*%
X6451250Y9150000D03*
D11*
X11531250Y9150000D03*
D10*
X16611250Y9150000D03*
D12*
X7721250Y11690000D03*
X14071250Y14230000D03*
%TD*%
D10*
%TO.C,SW47*%
X123132500Y28200000D03*
D11*
X128212500Y28200000D03*
D10*
X133292500Y28200000D03*
D12*
X124402500Y30740000D03*
X130752500Y33280000D03*
%TD*%
D10*
%TO.C,SW5*%
X80270000Y85350000D03*
D11*
X85350000Y85350000D03*
D10*
X90430000Y85350000D03*
D12*
X81540000Y87890000D03*
X87890000Y90430000D03*
%TD*%
D10*
%TO.C,SW4*%
X61220000Y85350000D03*
D11*
X66300000Y85350000D03*
D10*
X71380000Y85350000D03*
D12*
X62490000Y87890000D03*
X68840000Y90430000D03*
%TD*%
D29*
%TO.C,HOLE*%
X260050000Y66700000D03*
%TD*%
D10*
%TO.C,SW49*%
X161232500Y28200000D03*
D11*
X166312500Y28200000D03*
D10*
X171392500Y28200000D03*
D12*
X162502500Y30740000D03*
X168852500Y33280000D03*
%TD*%
D10*
%TO.C,SW45*%
X85032500Y28200000D03*
D11*
X90112500Y28200000D03*
D10*
X95192500Y28200000D03*
D12*
X86302500Y30740000D03*
X92652500Y33280000D03*
%TD*%
D10*
%TO.C,SW44*%
X65982500Y28200000D03*
D11*
X71062500Y28200000D03*
D10*
X76142500Y28200000D03*
D12*
X67252500Y30740000D03*
X73602500Y33280000D03*
%TD*%
D10*
%TO.C,SW34*%
X113607500Y47250000D03*
D11*
X118687500Y47250000D03*
D10*
X123767500Y47250000D03*
D12*
X114877500Y49790000D03*
X121227500Y52330000D03*
%TD*%
D10*
%TO.C,SW22*%
X146945000Y66300000D03*
D11*
X152025000Y66300000D03*
D10*
X157105000Y66300000D03*
D12*
X148215000Y68840000D03*
X154565000Y71380000D03*
%TD*%
D10*
%TO.C,SW58*%
X196951250Y9150000D03*
D11*
X202031250Y9150000D03*
D10*
X207111250Y9150000D03*
D12*
X198221250Y11690000D03*
X204571250Y14230000D03*
%TD*%
D30*
%TO.C,D62*%
X6678000Y50715623D03*
X6678000Y48965623D03*
%TD*%
D10*
%TO.C,SW12*%
X213620000Y85350000D03*
D11*
X218700000Y85350000D03*
D10*
X223780000Y85350000D03*
D12*
X214890000Y87890000D03*
X221240000Y90430000D03*
%TD*%
D10*
%TO.C,SW29*%
X11213750Y47250000D03*
D11*
X16293750Y47250000D03*
D10*
X21373750Y47250000D03*
D12*
X12483750Y49790000D03*
X18833750Y52330000D03*
%TD*%
D10*
%TO.C,SW2*%
X33280000Y85350000D03*
D11*
X28200000Y85350000D03*
D10*
X23120000Y85350000D03*
D12*
X32010000Y82810000D03*
X25660000Y80270000D03*
%TD*%
D10*
%TO.C,SW17*%
X51695000Y66300000D03*
D11*
X56775000Y66300000D03*
D10*
X61855000Y66300000D03*
D12*
X52965000Y68840000D03*
X59315000Y71380000D03*
%TD*%
D10*
%TO.C,SW27*%
X242195000Y66300000D03*
D11*
X247275000Y66300000D03*
D10*
X252355000Y66300000D03*
D12*
X243465000Y68840000D03*
X249815000Y71380000D03*
%TD*%
D10*
%TO.C,SW14*%
X261245000Y85350000D03*
D11*
X266325000Y85350000D03*
D10*
X271405000Y85350000D03*
D12*
X262515000Y87890000D03*
X268865000Y90430000D03*
%TD*%
D10*
%TO.C,SW52*%
X218382500Y28200000D03*
D11*
X223462500Y28200000D03*
D10*
X228542500Y28200000D03*
D12*
X219652500Y30740000D03*
X226002500Y33280000D03*
%TD*%
D10*
%TO.C,SW48*%
X142182500Y28200000D03*
D11*
X147262500Y28200000D03*
D10*
X152342500Y28200000D03*
D12*
X143452500Y30740000D03*
X149802500Y33280000D03*
%TD*%
D10*
%TO.C,SW53*%
X254101250Y28200000D03*
D11*
X259181250Y28200000D03*
D10*
X264261250Y28200000D03*
D12*
X255371250Y30740000D03*
X261721250Y33280000D03*
%TD*%
D31*
%TO.C,J1*%
X15310000Y89270000D03*
X21090000Y89270000D03*
D32*
X13880000Y92950000D03*
D33*
X13880000Y88770000D03*
D32*
X22520000Y92950000D03*
D33*
X22520000Y88770000D03*
%TD*%
D15*
%TO.C,REF\u002A\u002A*%
X271119250Y20829950D03*
D14*
X271119250Y36039950D03*
D15*
X247243250Y20829950D03*
D14*
X247243250Y36039950D03*
%TD*%
M02*
