%TF.GenerationSoftware,KiCad,Pcbnew,8.0.2*%
%TF.CreationDate,2024-05-19T17:04:35+08:00*%
%TF.ProjectId,rmk-ble-keyboard,726d6b2d-626c-4652-9d6b-6579626f6172,0*%
%TF.SameCoordinates,Original*%
%TF.FileFunction,Legend,Bot*%
%TF.FilePolarity,Positive*%
%FSLAX46Y46*%
G04 Gerber Fmt 4.6, Leading zero omitted, Abs format (unit mm)*
G04 Created by KiCad (PCBNEW 8.0.2) date 2024-05-19 17:04:35*
%MOMM*%
%LPD*%
G01*
G04 APERTURE LIST*
G04 Aperture macros list*
%AMRoundRect*
0 Rectangle with rounded corners*
0 $1 Rounding radius*
0 $2 $3 $4 $5 $6 $7 $8 $9 X,Y pos of 4 corners*
0 Add a 4 corners polygon primitive as box body*
4,1,4,$2,$3,$4,$5,$6,$7,$8,$9,$2,$3,0*
0 Add four circle primitives for the rounded corners*
1,1,$1+$1,$2,$3*
1,1,$1+$1,$4,$5*
1,1,$1+$1,$6,$7*
1,1,$1+$1,$8,$9*
0 Add four rect primitives between the rounded corners*
20,1,$1+$1,$2,$3,$4,$5,0*
20,1,$1+$1,$4,$5,$6,$7,0*
20,1,$1+$1,$6,$7,$8,$9,0*
20,1,$1+$1,$8,$9,$2,$3,0*%
G04 Aperture macros list end*
%ADD10C,0.150000*%
%ADD11C,0.250000*%
%ADD12C,0.120000*%
%ADD13C,0.254000*%
%ADD14C,0.000000*%
%ADD15C,0.100000*%
%ADD16O,0.800000X0.800000*%
%ADD17RoundRect,0.250000X-1.025000X-1.000000X1.025000X-1.000000X1.025000X1.000000X-1.025000X1.000000X0*%
%ADD18C,1.750000*%
%ADD19C,4.000000*%
%ADD20C,3.600000*%
%ADD21C,3.048000*%
%ADD22C,3.987800*%
%ADD23R,1.700000X1.700000*%
%ADD24O,1.700000X1.700000*%
%ADD25RoundRect,0.250000X1.025000X1.000000X-1.025000X1.000000X-1.025000X-1.000000X1.025000X-1.000000X0*%
%ADD26O,9.999980X5.001260*%
%ADD27C,0.900000*%
%ADD28R,1.000000X1.000000*%
%ADD29O,1.000000X1.000000*%
%ADD30C,6.000000*%
%ADD31C,7.001300*%
%ADD32C,7.000240*%
%ADD33RoundRect,0.237500X0.300000X0.237500X-0.300000X0.237500X-0.300000X-0.237500X0.300000X-0.237500X0*%
%ADD34RoundRect,0.225000X0.375000X-0.225000X0.375000X0.225000X-0.375000X0.225000X-0.375000X-0.225000X0*%
%ADD35RoundRect,0.150000X-0.512500X-0.150000X0.512500X-0.150000X0.512500X0.150000X-0.512500X0.150000X0*%
%ADD36R,0.950000X1.200000*%
%ADD37C,0.650000*%
%ADD38RoundRect,0.150000X-0.150000X-0.425000X0.150000X-0.425000X0.150000X0.425000X-0.150000X0.425000X0*%
%ADD39RoundRect,0.075000X-0.075000X-0.500000X0.075000X-0.500000X0.075000X0.500000X-0.075000X0.500000X0*%
%ADD40O,1.000000X1.800000*%
%ADD41O,1.000000X2.100000*%
%ADD42R,0.600000X1.200000*%
%ADD43R,3.300000X2.400000*%
%ADD44RoundRect,0.237500X-0.237500X0.300000X-0.237500X-0.300000X0.237500X-0.300000X0.237500X0.300000X0*%
%ADD45R,0.800000X2.000000*%
%ADD46R,2.000000X0.800000*%
%ADD47R,1.200000X0.800000*%
%ADD48R,0.800000X1.200000*%
%ADD49RoundRect,0.150000X-0.150000X-0.625000X0.150000X-0.625000X0.150000X0.625000X-0.150000X0.625000X0*%
%ADD50RoundRect,0.250000X-0.350000X-0.650000X0.350000X-0.650000X0.350000X0.650000X-0.350000X0.650000X0*%
%ADD51RoundRect,0.250000X0.450000X-0.350000X0.450000X0.350000X-0.450000X0.350000X-0.450000X-0.350000X0*%
%ADD52R,1.800000X1.000000*%
%ADD53RoundRect,0.225000X-0.375000X0.225000X-0.375000X-0.225000X0.375000X-0.225000X0.375000X0.225000X0*%
%ADD54RoundRect,0.237500X0.250000X0.237500X-0.250000X0.237500X-0.250000X-0.237500X0.250000X-0.237500X0*%
%ADD55RoundRect,0.150000X-0.587500X-0.150000X0.587500X-0.150000X0.587500X0.150000X-0.587500X0.150000X0*%
%ADD56RoundRect,0.237500X-0.300000X-0.237500X0.300000X-0.237500X0.300000X0.237500X-0.300000X0.237500X0*%
%ADD57RoundRect,0.237500X-0.250000X-0.237500X0.250000X-0.237500X0.250000X0.237500X-0.250000X0.237500X0*%
%ADD58RoundRect,0.237500X-0.237500X0.250000X-0.237500X-0.250000X0.237500X-0.250000X0.237500X0.250000X0*%
%ADD59RoundRect,0.237500X0.237500X-0.250000X0.237500X0.250000X-0.237500X0.250000X-0.237500X-0.250000X0*%
G04 APERTURE END LIST*
D10*
X107377030Y43920181D02*
X107853220Y43920181D01*
X107853220Y43920181D02*
X107853220Y44920181D01*
X107043696Y43920181D02*
X107043696Y44586848D01*
X107043696Y44920181D02*
X107091315Y44872562D01*
X107091315Y44872562D02*
X107043696Y44824943D01*
X107043696Y44824943D02*
X106996077Y44872562D01*
X106996077Y44872562D02*
X107043696Y44920181D01*
X107043696Y44920181D02*
X107043696Y44824943D01*
X106567506Y44301134D02*
X105805602Y44301134D01*
X106186554Y43920181D02*
X106186554Y44682086D01*
X111197030Y43880181D02*
X111673220Y43880181D01*
X111673220Y43880181D02*
X111673220Y44880181D01*
X110863696Y43880181D02*
X110863696Y44546848D01*
X110863696Y44880181D02*
X110911315Y44832562D01*
X110911315Y44832562D02*
X110863696Y44784943D01*
X110863696Y44784943D02*
X110816077Y44832562D01*
X110816077Y44832562D02*
X110863696Y44880181D01*
X110863696Y44880181D02*
X110863696Y44784943D01*
X110387506Y44261134D02*
X109625602Y44261134D01*
D11*
G36*
X175962568Y10548460D02*
G01*
X176516999Y10548460D01*
X176516999Y10106380D01*
X176032482Y10106380D01*
X176032482Y9981817D01*
X176516999Y9981817D01*
X176516999Y9422500D01*
X176671482Y9422500D01*
X176671482Y10673024D01*
X175943639Y10673024D01*
X175962568Y10548460D01*
G37*
G36*
X175305554Y10829339D02*
G01*
X175244517Y10813567D01*
X175225870Y10798809D01*
X175196801Y10742265D01*
X175195340Y10723094D01*
X175211112Y10663866D01*
X175225870Y10645241D01*
X175282141Y10616333D01*
X175305554Y10614406D01*
X175365186Y10630493D01*
X175383712Y10645547D01*
X175412334Y10700959D01*
X175414242Y10723094D01*
X175397069Y10782742D01*
X175383712Y10798809D01*
X175328299Y10827431D01*
X175305554Y10829339D01*
G37*
G36*
X175618796Y10379932D02*
G01*
X175185265Y10379932D01*
X175185265Y9547064D01*
X174918735Y9547064D01*
X174918735Y9422500D01*
X175627955Y9422500D01*
X175627955Y9547064D01*
X175336085Y9547064D01*
X175336085Y10255369D01*
X175618796Y10255369D01*
X175618796Y10379932D01*
G37*
G36*
X173949701Y10399472D02*
G01*
X173888313Y10395460D01*
X173882534Y10394587D01*
X173822685Y10381773D01*
X173815978Y10379932D01*
X173837655Y10060280D01*
X173961303Y10060280D01*
X173961303Y10262696D01*
X173969546Y10262696D01*
X174034727Y10255004D01*
X174093647Y10231927D01*
X174146306Y10193466D01*
X174156086Y10183928D01*
X174197192Y10133269D01*
X174229798Y10077575D01*
X174255291Y10020609D01*
X174277950Y9955959D01*
X174280956Y9946096D01*
X174280956Y9547064D01*
X174088920Y9547064D01*
X174088920Y9422500D01*
X174578932Y9422500D01*
X174578932Y9547064D01*
X174431775Y9547064D01*
X174431775Y10262696D01*
X174578932Y10262696D01*
X174578932Y10379932D01*
X174316676Y10379932D01*
X174288893Y10155840D01*
X174258821Y10213313D01*
X174221705Y10268665D01*
X174176387Y10318611D01*
X174152117Y10339022D01*
X174098242Y10370900D01*
X174035840Y10390971D01*
X173972387Y10398941D01*
X173949701Y10399472D01*
G37*
G36*
X172889077Y10399472D02*
G01*
X172828477Y10390100D01*
X172774147Y10359045D01*
X172757491Y10342685D01*
X172726235Y10286872D01*
X172711209Y10220159D01*
X172706400Y10153564D01*
X172706200Y10135079D01*
X172706200Y9422500D01*
X172846029Y9422500D01*
X172846029Y10106075D01*
X172847321Y10168524D01*
X172850608Y10207741D01*
X172870148Y10258116D01*
X172918691Y10274908D01*
X172979945Y10260622D01*
X173031560Y10222841D01*
X173074700Y10168648D01*
X173083860Y10154008D01*
X173083860Y9422500D01*
X173224911Y9422500D01*
X173224911Y10106075D01*
X173226203Y10168524D01*
X173229490Y10207741D01*
X173249030Y10258116D01*
X173297573Y10274908D01*
X173358653Y10260622D01*
X173410173Y10222841D01*
X173453278Y10168648D01*
X173462437Y10154008D01*
X173462437Y9422500D01*
X173601655Y9422500D01*
X173601655Y10379932D01*
X173483197Y10379932D01*
X173474344Y10255369D01*
X173438460Y10306240D01*
X173394802Y10352040D01*
X173382752Y10361920D01*
X173326436Y10391221D01*
X173268874Y10399472D01*
X173208004Y10390713D01*
X173153849Y10359922D01*
X173114861Y10306961D01*
X173097294Y10259338D01*
X173061953Y10309709D01*
X173018420Y10354306D01*
X173006313Y10363751D01*
X172948897Y10391623D01*
X172889077Y10399472D01*
G37*
G36*
X171571081Y10379932D02*
G01*
X171735945Y9422500D01*
X171949658Y9422500D01*
X172071779Y10124699D01*
X172204586Y9422500D01*
X172412803Y9422500D01*
X172584994Y10379932D01*
X172430816Y10379932D01*
X172310526Y9516839D01*
X172159706Y10257811D01*
X171981104Y10257811D01*
X171838222Y9516839D01*
X171718237Y10379932D01*
X171571081Y10379932D01*
G37*
G36*
X171084408Y10398033D02*
G01*
X171151208Y10391186D01*
X171218679Y10378699D01*
X171286823Y10360573D01*
X171345767Y10340548D01*
X171306383Y10226365D01*
X171255314Y10242862D01*
X171190761Y10259549D01*
X171122975Y10271068D01*
X171060308Y10274908D01*
X171008502Y10272122D01*
X170948049Y10259194D01*
X170892697Y10230334D01*
X170867585Y10204803D01*
X170842082Y10148827D01*
X170835300Y10087452D01*
X170835300Y10008683D01*
X170974213Y10008683D01*
X170987585Y10008606D01*
X171051468Y10005882D01*
X171121574Y9997478D01*
X171184532Y9983471D01*
X171248949Y9960048D01*
X171303635Y9928999D01*
X171310641Y9923970D01*
X171358684Y9878818D01*
X171392491Y9824927D01*
X171412064Y9762297D01*
X171417513Y9700327D01*
X171415760Y9662138D01*
X171404598Y9601702D01*
X171380877Y9543401D01*
X171368550Y9523156D01*
X171325707Y9474403D01*
X171274937Y9439597D01*
X171234193Y9421888D01*
X171173857Y9407290D01*
X171112515Y9402961D01*
X171067254Y9405213D01*
X171003083Y9417034D01*
X170943377Y9438987D01*
X170906588Y9459270D01*
X170857701Y9497639D01*
X170816371Y9545538D01*
X170799029Y9502841D01*
X170759936Y9452560D01*
X170705145Y9418799D01*
X170643264Y9402656D01*
X170606322Y9516229D01*
X170613846Y9518699D01*
X170665551Y9555308D01*
X170675806Y9577068D01*
X170683564Y9638045D01*
X170683564Y9663080D01*
X170835300Y9663080D01*
X170846162Y9647562D01*
X170889363Y9600086D01*
X170940629Y9563245D01*
X170948555Y9558920D01*
X171009673Y9535374D01*
X171073742Y9527525D01*
X171106315Y9529122D01*
X171169859Y9545265D01*
X171221121Y9585002D01*
X171249600Y9647446D01*
X171256008Y9709181D01*
X171251810Y9755167D01*
X171229771Y9813413D01*
X171188841Y9858779D01*
X171155378Y9879122D01*
X171093888Y9899515D01*
X171033103Y9908488D01*
X170971465Y9910986D01*
X170835300Y9910986D01*
X170835300Y9663080D01*
X170683564Y9663080D01*
X170683564Y10092947D01*
X170686741Y10144578D01*
X170700861Y10206640D01*
X170730249Y10267201D01*
X170773934Y10317956D01*
X170791551Y10332524D01*
X170845666Y10364366D01*
X170910161Y10386019D01*
X170975110Y10396606D01*
X171037105Y10399472D01*
X171084408Y10398033D01*
G37*
G36*
X169646142Y10399472D02*
G01*
X169584754Y10395460D01*
X169578975Y10394587D01*
X169519126Y10381773D01*
X169512419Y10379932D01*
X169534096Y10060280D01*
X169657744Y10060280D01*
X169657744Y10262696D01*
X169665987Y10262696D01*
X169731168Y10255004D01*
X169790088Y10231927D01*
X169842747Y10193466D01*
X169852527Y10183928D01*
X169893633Y10133269D01*
X169926239Y10077575D01*
X169951732Y10020609D01*
X169974391Y9955959D01*
X169977397Y9946096D01*
X169977397Y9547064D01*
X169785361Y9547064D01*
X169785361Y9422500D01*
X170275373Y9422500D01*
X170275373Y9547064D01*
X170128217Y9547064D01*
X170128217Y10262696D01*
X170275373Y10262696D01*
X170275373Y10379932D01*
X170013117Y10379932D01*
X169985334Y10155840D01*
X169955262Y10213313D01*
X169918146Y10268665D01*
X169872828Y10318611D01*
X169848558Y10339022D01*
X169794683Y10370900D01*
X169732281Y10390971D01*
X169668828Y10398941D01*
X169646142Y10399472D01*
G37*
G36*
X168872941Y10397907D02*
G01*
X168937566Y10387200D01*
X168997361Y10366351D01*
X169052327Y10335358D01*
X169080405Y10314203D01*
X169125799Y10270001D01*
X169164576Y10217925D01*
X169196735Y10157977D01*
X169199891Y10150867D01*
X169221529Y10091800D01*
X169236756Y10028841D01*
X169245572Y9961989D01*
X169248026Y9900301D01*
X169247977Y9891043D01*
X169244859Y9828211D01*
X169235356Y9760624D01*
X169219519Y9697541D01*
X169197346Y9638961D01*
X169180273Y9605000D01*
X169143793Y9550145D01*
X169099923Y9503356D01*
X169048663Y9464632D01*
X169004109Y9440602D01*
X168941502Y9418379D01*
X168880823Y9406816D01*
X168815411Y9402961D01*
X168766564Y9405231D01*
X168701735Y9415320D01*
X168642609Y9431660D01*
X168600935Y9447535D01*
X168543004Y9476501D01*
X168490568Y9511649D01*
X168561399Y9612399D01*
X168573429Y9604415D01*
X168628293Y9572475D01*
X168684741Y9547980D01*
X168688435Y9546722D01*
X168750450Y9532020D01*
X168813579Y9527525D01*
X168827593Y9527823D01*
X168889653Y9537089D01*
X168950050Y9561414D01*
X168968477Y9573001D01*
X169014125Y9615042D01*
X169048663Y9666743D01*
X169070476Y9719906D01*
X169084280Y9781583D01*
X169089879Y9845041D01*
X168454542Y9845041D01*
X168452940Y9865973D01*
X168450879Y9928999D01*
X168452343Y9969604D01*
X168596203Y9969604D01*
X169088963Y9969604D01*
X169084735Y10015188D01*
X169071894Y10080495D01*
X169048506Y10142743D01*
X169011416Y10197972D01*
X169007083Y10202705D01*
X168959355Y10241774D01*
X168897626Y10267395D01*
X168833119Y10274908D01*
X168769822Y10267275D01*
X168710457Y10241248D01*
X168661844Y10196750D01*
X168634156Y10153245D01*
X168611995Y10093718D01*
X168600283Y10031397D01*
X168596203Y9969604D01*
X168452343Y9969604D01*
X168453099Y9990590D01*
X168461075Y10056435D01*
X168474852Y10117434D01*
X168497285Y10180264D01*
X168506286Y10199748D01*
X168537571Y10252950D01*
X168579866Y10302830D01*
X168630092Y10342991D01*
X168646574Y10353085D01*
X168705583Y10379560D01*
X168770854Y10395004D01*
X168834951Y10399472D01*
X168872941Y10397907D01*
G37*
G36*
X166780849Y10398033D02*
G01*
X166847649Y10391186D01*
X166915120Y10378699D01*
X166983264Y10360573D01*
X167042208Y10340548D01*
X167002824Y10226365D01*
X166951755Y10242862D01*
X166887202Y10259549D01*
X166819416Y10271068D01*
X166756749Y10274908D01*
X166704943Y10272122D01*
X166644490Y10259194D01*
X166589138Y10230334D01*
X166564026Y10204803D01*
X166538523Y10148827D01*
X166531741Y10087452D01*
X166531741Y10008683D01*
X166670654Y10008683D01*
X166684026Y10008606D01*
X166747909Y10005882D01*
X166818015Y9997478D01*
X166880973Y9983471D01*
X166945390Y9960048D01*
X167000076Y9928999D01*
X167007082Y9923970D01*
X167055125Y9878818D01*
X167088932Y9824927D01*
X167108505Y9762297D01*
X167113954Y9700327D01*
X167112201Y9662138D01*
X167101039Y9601702D01*
X167077318Y9543401D01*
X167064991Y9523156D01*
X167022148Y9474403D01*
X166971378Y9439597D01*
X166930634Y9421888D01*
X166870298Y9407290D01*
X166808956Y9402961D01*
X166763695Y9405213D01*
X166699524Y9417034D01*
X166639818Y9438987D01*
X166603029Y9459270D01*
X166554142Y9497639D01*
X166512812Y9545538D01*
X166495470Y9502841D01*
X166456377Y9452560D01*
X166401586Y9418799D01*
X166339705Y9402656D01*
X166302763Y9516229D01*
X166310287Y9518699D01*
X166361992Y9555308D01*
X166372247Y9577068D01*
X166380005Y9638045D01*
X166380005Y9663080D01*
X166531741Y9663080D01*
X166542603Y9647562D01*
X166585804Y9600086D01*
X166637070Y9563245D01*
X166644996Y9558920D01*
X166706114Y9535374D01*
X166770183Y9527525D01*
X166802756Y9529122D01*
X166866300Y9545265D01*
X166917562Y9585002D01*
X166946041Y9647446D01*
X166952449Y9709181D01*
X166948251Y9755167D01*
X166926212Y9813413D01*
X166885282Y9858779D01*
X166851819Y9879122D01*
X166790329Y9899515D01*
X166729545Y9908488D01*
X166667906Y9910986D01*
X166531741Y9910986D01*
X166531741Y9663080D01*
X166380005Y9663080D01*
X166380005Y10092947D01*
X166383182Y10144578D01*
X166397302Y10206640D01*
X166426690Y10267201D01*
X166470375Y10317956D01*
X166487992Y10332524D01*
X166542107Y10364366D01*
X166606602Y10386019D01*
X166671551Y10396606D01*
X166733546Y10399472D01*
X166780849Y10398033D01*
G37*
G36*
X165230537Y9470738D02*
G01*
X165287345Y9441270D01*
X165347773Y9421279D01*
X165407888Y9408757D01*
X165471130Y9403122D01*
X165483633Y9402961D01*
X165548741Y9407254D01*
X165612196Y9421730D01*
X165654603Y9439292D01*
X165706909Y9473695D01*
X165750954Y9521112D01*
X165763597Y9540653D01*
X165789267Y9601177D01*
X165800232Y9663866D01*
X165801149Y9689641D01*
X165801149Y10255369D01*
X166018525Y10255369D01*
X166018525Y10379932D01*
X165801149Y10379932D01*
X165801149Y10597309D01*
X165650329Y10615322D01*
X165650329Y10379932D01*
X165323654Y10379932D01*
X165341667Y10255369D01*
X165650329Y10255369D01*
X165650329Y9689946D01*
X165642206Y9626659D01*
X165610503Y9570708D01*
X165607892Y9568130D01*
X165552098Y9537676D01*
X165487544Y9527882D01*
X165470200Y9527525D01*
X165405382Y9532828D01*
X165343160Y9548738D01*
X165288850Y9572405D01*
X165230537Y9470738D01*
G37*
G36*
X164692897Y10214763D02*
G01*
X164680200Y10275228D01*
X164673663Y10288036D01*
X164631642Y10334493D01*
X164621762Y10340854D01*
X164563344Y10359706D01*
X164548489Y10360393D01*
X164486753Y10347494D01*
X164473995Y10340854D01*
X164427836Y10298181D01*
X164421482Y10288036D01*
X164402924Y10229432D01*
X164402248Y10214763D01*
X164414946Y10153896D01*
X164421482Y10140880D01*
X164462009Y10095082D01*
X164473995Y10087146D01*
X164533312Y10067999D01*
X164548489Y10067302D01*
X164609139Y10080402D01*
X164621762Y10087146D01*
X164667325Y10130632D01*
X164673663Y10140880D01*
X164692221Y10200073D01*
X164692897Y10214763D01*
G37*
G36*
X164692897Y9550423D02*
G01*
X164679204Y9612158D01*
X164673663Y9622780D01*
X164631642Y9669671D01*
X164621762Y9676208D01*
X164563344Y9695355D01*
X164548489Y9696052D01*
X164487435Y9682952D01*
X164474605Y9676208D01*
X164429210Y9634890D01*
X164421482Y9622780D01*
X164402718Y9562413D01*
X164402248Y9550423D01*
X164414946Y9488671D01*
X164421482Y9475623D01*
X164463938Y9428869D01*
X164473995Y9422500D01*
X164533312Y9403648D01*
X164548489Y9402961D01*
X164609139Y9415860D01*
X164621762Y9422500D01*
X164667325Y9465391D01*
X164673663Y9475623D01*
X164692221Y9535421D01*
X164692897Y9550423D01*
G37*
G36*
X162043611Y10455631D02*
G01*
X162102091Y10434582D01*
X162105282Y10433577D01*
X162166642Y10418503D01*
X162227266Y10408936D01*
X162283134Y10403548D01*
X162348310Y10400396D01*
X162415638Y10399472D01*
X162422465Y10399429D01*
X162488177Y10394313D01*
X162549238Y10380670D01*
X162611032Y10355813D01*
X162660823Y10325408D01*
X162707190Y10284318D01*
X162744755Y10235219D01*
X162770032Y10185165D01*
X162787024Y10125562D01*
X162792688Y10061196D01*
X162790847Y10021652D01*
X162779126Y9960050D01*
X162754220Y9902132D01*
X162735196Y9874437D01*
X162688937Y9828430D01*
X162633625Y9792223D01*
X162670675Y9764068D01*
X162710867Y9717118D01*
X162725035Y9690327D01*
X162737733Y9629496D01*
X162735199Y9600314D01*
X162711782Y9541569D01*
X162686112Y9511941D01*
X162632098Y9478066D01*
X162625249Y9475182D01*
X162563673Y9458810D01*
X162499902Y9454252D01*
X162331374Y9454252D01*
X162296920Y9452996D01*
X162235611Y9442950D01*
X162176891Y9418532D01*
X162132469Y9374720D01*
X162117662Y9315339D01*
X162118797Y9295976D01*
X162140653Y9238199D01*
X162190324Y9195965D01*
X162226029Y9180500D01*
X162290620Y9164997D01*
X162353799Y9158175D01*
X162417470Y9156276D01*
X162448856Y9156708D01*
X162514816Y9161273D01*
X162578670Y9173983D01*
X162610763Y9186619D01*
X162657438Y9226801D01*
X162671671Y9259607D01*
X162679420Y9322056D01*
X162815891Y9322056D01*
X162814094Y9279760D01*
X162802652Y9215546D01*
X162778339Y9157802D01*
X162759409Y9131449D01*
X162711697Y9090802D01*
X162653164Y9062853D01*
X162605518Y9049229D01*
X162542747Y9038554D01*
X162478800Y9033202D01*
X162416554Y9031712D01*
X162403122Y9031785D01*
X162338859Y9034342D01*
X162268119Y9042231D01*
X162204335Y9055379D01*
X162138710Y9077366D01*
X162082552Y9106511D01*
X162031127Y9147975D01*
X161994395Y9197568D01*
X161972356Y9255290D01*
X161965010Y9321140D01*
X161965394Y9334534D01*
X161978824Y9398044D01*
X162008668Y9452115D01*
X162023036Y9469998D01*
X162071990Y9513408D01*
X162128958Y9544927D01*
X162173391Y9561309D01*
X162236768Y9574811D01*
X162299012Y9578816D01*
X162469371Y9578816D01*
X162508721Y9580903D01*
X162567374Y9600187D01*
X162570849Y9602922D01*
X162596072Y9659111D01*
X162582334Y9711318D01*
X162546613Y9751923D01*
X162544704Y9751356D01*
X162484331Y9738795D01*
X162467406Y9737192D01*
X162405868Y9735131D01*
X162340228Y9739186D01*
X162274635Y9753013D01*
X162215969Y9776653D01*
X162178188Y9799474D01*
X162130389Y9841434D01*
X162093237Y9892668D01*
X162072576Y9936189D01*
X162055546Y9999251D01*
X162050716Y10059364D01*
X162206505Y10059364D01*
X162209844Y10008493D01*
X162225341Y9948390D01*
X162259933Y9892057D01*
X162289471Y9866145D01*
X162349517Y9839827D01*
X162411974Y9832828D01*
X162470801Y9837658D01*
X162530828Y9856680D01*
X162581418Y9893889D01*
X162608868Y9931716D01*
X162631494Y9992445D01*
X162638204Y10058448D01*
X162634693Y10106991D01*
X162616261Y10170074D01*
X162582028Y10221480D01*
X162537022Y10256070D01*
X162479245Y10276302D01*
X162415638Y10282235D01*
X162372902Y10279518D01*
X162310856Y10262216D01*
X162259628Y10225449D01*
X162231614Y10184960D01*
X162211693Y10122678D01*
X162206505Y10059364D01*
X162050716Y10059364D01*
X162050495Y10062111D01*
X162054498Y10111653D01*
X162073550Y10173724D01*
X162108293Y10227292D01*
X162158726Y10272357D01*
X162214443Y10304217D01*
X162180264Y10304410D01*
X162118412Y10305956D01*
X162057212Y10309713D01*
X161999422Y10317700D01*
X161938143Y10332916D01*
X161984855Y10480072D01*
X162043611Y10455631D01*
G37*
G36*
X161318988Y10829339D02*
G01*
X161257950Y10813567D01*
X161239303Y10798809D01*
X161210234Y10742265D01*
X161208773Y10723094D01*
X161224545Y10663866D01*
X161239303Y10645241D01*
X161295575Y10616333D01*
X161318988Y10614406D01*
X161378620Y10630493D01*
X161397145Y10645547D01*
X161425768Y10700959D01*
X161427676Y10723094D01*
X161410502Y10782742D01*
X161397145Y10798809D01*
X161341733Y10827431D01*
X161318988Y10829339D01*
G37*
G36*
X161632229Y10379932D02*
G01*
X161198698Y10379932D01*
X161198698Y9547064D01*
X160932168Y9547064D01*
X160932168Y9422500D01*
X161641388Y9422500D01*
X161641388Y9547064D01*
X161349518Y9547064D01*
X161349518Y10255369D01*
X161632229Y10255369D01*
X161632229Y10379932D01*
G37*
G36*
X159851088Y9470738D02*
G01*
X159907896Y9441270D01*
X159968325Y9421279D01*
X160028440Y9408757D01*
X160091681Y9403122D01*
X160104185Y9402961D01*
X160169292Y9407254D01*
X160232747Y9421730D01*
X160275155Y9439292D01*
X160327460Y9473695D01*
X160371505Y9521112D01*
X160384148Y9540653D01*
X160409819Y9601177D01*
X160420784Y9663866D01*
X160421700Y9689641D01*
X160421700Y10255369D01*
X160639077Y10255369D01*
X160639077Y10379932D01*
X160421700Y10379932D01*
X160421700Y10597309D01*
X160270881Y10615322D01*
X160270881Y10379932D01*
X159944206Y10379932D01*
X159962219Y10255369D01*
X160270881Y10255369D01*
X160270881Y9689946D01*
X160262758Y9626659D01*
X160231054Y9570708D01*
X160228443Y9568130D01*
X160172649Y9537676D01*
X160108096Y9527882D01*
X160090751Y9527525D01*
X160025933Y9532828D01*
X159963712Y9548738D01*
X159909401Y9572405D01*
X159851088Y9470738D01*
G37*
G36*
X159374509Y10235524D02*
G01*
X159333907Y10285558D01*
X159287245Y10326934D01*
X159239565Y10357035D01*
X159178528Y10382895D01*
X159115860Y10396820D01*
X159073175Y10399472D01*
X159009805Y10394930D01*
X158949052Y10378965D01*
X158894634Y10347743D01*
X158872590Y10326810D01*
X158838297Y10275164D01*
X158816705Y10211057D01*
X158808132Y10142704D01*
X158807561Y10117677D01*
X158807561Y9422500D01*
X158958075Y9422500D01*
X158958075Y10110349D01*
X158964626Y10171853D01*
X158992959Y10229776D01*
X158997765Y10234913D01*
X159052277Y10266120D01*
X159116190Y10274869D01*
X159121413Y10274908D01*
X159185426Y10265383D01*
X159242774Y10239480D01*
X159264295Y10225144D01*
X159311707Y10185559D01*
X159354835Y10137056D01*
X159374509Y10108518D01*
X159374509Y9422500D01*
X159525329Y9422500D01*
X159525329Y10763088D01*
X159374509Y10779575D01*
X159374509Y10235524D01*
G37*
G36*
X158298620Y9704906D02*
G01*
X158293253Y9642238D01*
X158271451Y9584068D01*
X158260457Y9569657D01*
X158207415Y9536782D01*
X158144970Y9527566D01*
X158139862Y9527525D01*
X158075497Y9535706D01*
X158017196Y9557954D01*
X157995148Y9570267D01*
X157942784Y9608620D01*
X157900296Y9653724D01*
X157884017Y9676818D01*
X157884017Y10379932D01*
X157733197Y10379932D01*
X157733197Y9422500D01*
X157861730Y9422500D01*
X157874248Y9555308D01*
X157914958Y9509524D01*
X157966528Y9468136D01*
X158010108Y9442956D01*
X158071617Y9418584D01*
X158134328Y9405461D01*
X158176803Y9402961D01*
X158240268Y9407522D01*
X158301722Y9423554D01*
X158357655Y9454908D01*
X158380746Y9475929D01*
X158416971Y9527777D01*
X158439779Y9591729D01*
X158448836Y9659636D01*
X158449439Y9684451D01*
X158449439Y10379932D01*
X158298620Y10379932D01*
X158298620Y9704906D01*
G37*
G36*
X157373550Y10764920D02*
G01*
X157373550Y9422500D01*
X157241659Y9422500D01*
X157230973Y9522945D01*
X157218818Y9508243D01*
X157172369Y9464449D01*
X157119842Y9432576D01*
X157099440Y9424044D01*
X157037397Y9407849D01*
X156973297Y9402961D01*
X156951223Y9403519D01*
X156888704Y9411891D01*
X156825753Y9432976D01*
X156769659Y9466464D01*
X156749237Y9483113D01*
X156703817Y9531496D01*
X156669822Y9583301D01*
X156642348Y9642930D01*
X156639680Y9650022D01*
X156621391Y9709103D01*
X156608520Y9772344D01*
X156601069Y9839745D01*
X156598995Y9902132D01*
X156599000Y9902438D01*
X156763248Y9902438D01*
X156763494Y9879335D01*
X156767179Y9814434D01*
X156777067Y9747073D01*
X156795738Y9681108D01*
X156826140Y9620948D01*
X156838437Y9604252D01*
X156886713Y9560460D01*
X156946200Y9534915D01*
X157009323Y9527525D01*
X157070994Y9535539D01*
X157129002Y9559582D01*
X157132494Y9561629D01*
X157183432Y9601032D01*
X157222730Y9649341D01*
X157222730Y10115845D01*
X157205675Y10140778D01*
X157164818Y10189131D01*
X157118621Y10229723D01*
X157103389Y10240313D01*
X157046998Y10266259D01*
X156985814Y10274908D01*
X156979035Y10274817D01*
X156916913Y10263833D01*
X156860493Y10230607D01*
X156820034Y10181180D01*
X156806725Y10156388D01*
X156785430Y10098190D01*
X156772620Y10037843D01*
X156765244Y9968702D01*
X156763248Y9902438D01*
X156599000Y9902438D01*
X156599749Y9945296D01*
X156604357Y10013167D01*
X156613153Y10075956D01*
X156629239Y10144592D01*
X156651357Y10205908D01*
X156684785Y10268191D01*
X156713965Y10306011D01*
X156762780Y10348190D01*
X156820888Y10377805D01*
X156888286Y10394857D01*
X156953452Y10399472D01*
X156983040Y10398077D01*
X157044350Y10385480D01*
X157101830Y10359782D01*
X157134917Y10337915D01*
X157180970Y10296957D01*
X157222730Y10246210D01*
X157222730Y10783849D01*
X157373550Y10764920D01*
G37*
G36*
X156098602Y9560192D02*
G01*
X156086924Y9620185D01*
X156077841Y9638350D01*
X156036272Y9684742D01*
X156021360Y9694526D01*
X155962856Y9714275D01*
X155941371Y9715592D01*
X155881272Y9704709D01*
X155860160Y9694526D01*
X155813082Y9653143D01*
X155803374Y9638350D01*
X155783606Y9578542D01*
X155782613Y9560192D01*
X155794291Y9498998D01*
X155803374Y9480508D01*
X155845025Y9433639D01*
X155860160Y9423722D01*
X155919465Y9404259D01*
X155941371Y9402961D01*
X156002851Y9414639D01*
X156021360Y9423722D01*
X156068043Y9465582D01*
X156077841Y9480508D01*
X156097305Y9538840D01*
X156098602Y9560192D01*
G37*
G36*
X154794651Y9527525D02*
G01*
X154731892Y9532734D01*
X154670010Y9548362D01*
X154609007Y9574408D01*
X154556349Y9605745D01*
X154548881Y9610873D01*
X154475303Y9510733D01*
X154529644Y9474071D01*
X154587317Y9446043D01*
X154624291Y9432270D01*
X154683679Y9415583D01*
X154747478Y9405279D01*
X154794651Y9402961D01*
X154861817Y9406758D01*
X154924099Y9418150D01*
X154988328Y9440043D01*
X155034009Y9463716D01*
X155086398Y9501924D01*
X155131253Y9548199D01*
X155168572Y9602539D01*
X155186050Y9636213D01*
X155208757Y9694450D01*
X155224976Y9757419D01*
X155234707Y9825120D01*
X155237901Y9888240D01*
X155237951Y9897553D01*
X155235424Y9959271D01*
X155226346Y10026228D01*
X155210666Y10089368D01*
X155188383Y10148692D01*
X155185134Y10155840D01*
X155155615Y10209707D01*
X155115335Y10262963D01*
X155067569Y10308443D01*
X155031566Y10334442D01*
X154972071Y10365877D01*
X154906587Y10387025D01*
X154843351Y10397186D01*
X154792819Y10399472D01*
X154726734Y10395651D01*
X154663804Y10384188D01*
X154604030Y10365082D01*
X154547412Y10338335D01*
X154493949Y10303945D01*
X154476830Y10290784D01*
X154550408Y10180875D01*
X154603836Y10217515D01*
X154664897Y10248369D01*
X154725957Y10267470D01*
X154787018Y10274816D01*
X154794651Y10274908D01*
X154858995Y10267904D01*
X154916587Y10246893D01*
X154940891Y10232471D01*
X154987456Y10191084D01*
X155022390Y10140179D01*
X155039199Y10104854D01*
X155059362Y10041501D01*
X155070429Y9975957D01*
X155074476Y9910491D01*
X155074614Y9895110D01*
X155071952Y9828829D01*
X155062118Y9759910D01*
X155045038Y9700050D01*
X155016644Y9642729D01*
X154998899Y9618505D01*
X154952007Y9574526D01*
X154896857Y9544939D01*
X154833447Y9529746D01*
X154794651Y9527525D01*
G37*
G36*
X153825727Y10397944D02*
G01*
X153892634Y10387492D01*
X153953454Y10367139D01*
X154008189Y10336885D01*
X154035818Y10316104D01*
X154080066Y10272537D01*
X154117262Y10221049D01*
X154147407Y10161640D01*
X154150300Y10154583D01*
X154170135Y10095545D01*
X154184093Y10031927D01*
X154192174Y9963730D01*
X154194424Y9900301D01*
X154194378Y9890875D01*
X154191504Y9827066D01*
X154182746Y9758792D01*
X154168149Y9695480D01*
X154147712Y9637129D01*
X154132034Y9603440D01*
X154098366Y9548998D01*
X154057695Y9502525D01*
X154010020Y9464022D01*
X153974393Y9443271D01*
X153915719Y9420194D01*
X153850766Y9406777D01*
X153787759Y9402961D01*
X153748319Y9404497D01*
X153681947Y9414999D01*
X153621515Y9435451D01*
X153567025Y9465854D01*
X153539491Y9486803D01*
X153495415Y9530560D01*
X153458390Y9582093D01*
X153428417Y9641403D01*
X153425525Y9648479D01*
X153405689Y9707574D01*
X153391731Y9771096D01*
X153383650Y9839045D01*
X153381422Y9901522D01*
X153542906Y9901522D01*
X153543145Y9878203D01*
X153546722Y9812812D01*
X153556323Y9745177D01*
X153574450Y9679294D01*
X153603967Y9619727D01*
X153615958Y9603249D01*
X153663757Y9560030D01*
X153723601Y9534818D01*
X153787759Y9527525D01*
X153810284Y9528335D01*
X153871322Y9540491D01*
X153927642Y9571105D01*
X153971857Y9619727D01*
X153986169Y9644275D01*
X154009066Y9702359D01*
X154022841Y9763012D01*
X154030772Y9832840D01*
X154032918Y9899995D01*
X154032676Y9923425D01*
X154029045Y9989106D01*
X154019300Y10056997D01*
X154000901Y10123067D01*
X153970942Y10182706D01*
X153958784Y10199184D01*
X153910508Y10242403D01*
X153850306Y10267615D01*
X153785928Y10274908D01*
X153763785Y10274098D01*
X153703667Y10261942D01*
X153647973Y10231328D01*
X153603967Y10182706D01*
X153589656Y10158144D01*
X153566758Y10099945D01*
X153552983Y10039098D01*
X153545053Y9968988D01*
X153542906Y9901522D01*
X153381422Y9901522D01*
X153381400Y9902132D01*
X153381445Y9911615D01*
X153384282Y9975787D01*
X153392926Y10044404D01*
X153407332Y10107983D01*
X153427501Y10166525D01*
X153439723Y10193797D01*
X153472315Y10249195D01*
X153511958Y10296333D01*
X153564277Y10339022D01*
X153599697Y10359565D01*
X153658140Y10382411D01*
X153722959Y10395694D01*
X153785928Y10399472D01*
X153825727Y10397944D01*
G37*
G36*
X152447172Y10399472D02*
G01*
X152386571Y10390100D01*
X152332242Y10359045D01*
X152315586Y10342685D01*
X152284330Y10286872D01*
X152269304Y10220159D01*
X152264495Y10153564D01*
X152264295Y10135079D01*
X152264295Y9422500D01*
X152404124Y9422500D01*
X152404124Y10106075D01*
X152405416Y10168524D01*
X152408703Y10207741D01*
X152428243Y10258116D01*
X152476786Y10274908D01*
X152538040Y10260622D01*
X152589655Y10222841D01*
X152632795Y10168648D01*
X152641955Y10154008D01*
X152641955Y9422500D01*
X152783005Y9422500D01*
X152783005Y10106075D01*
X152784298Y10168524D01*
X152787585Y10207741D01*
X152807124Y10258116D01*
X152855668Y10274908D01*
X152916747Y10260622D01*
X152968267Y10222841D01*
X153011372Y10168648D01*
X153020532Y10154008D01*
X153020532Y9422500D01*
X153159750Y9422500D01*
X153159750Y10379932D01*
X153041292Y10379932D01*
X153032438Y10255369D01*
X152996555Y10306240D01*
X152952897Y10352040D01*
X152940847Y10361920D01*
X152884531Y10391221D01*
X152826969Y10399472D01*
X152766099Y10390713D01*
X152711944Y10359922D01*
X152672955Y10306961D01*
X152655389Y10259338D01*
X152620048Y10309709D01*
X152576515Y10354306D01*
X152564408Y10363751D01*
X152506992Y10391623D01*
X152447172Y10399472D01*
G37*
G36*
X151191763Y10816211D02*
G01*
X151958381Y9237487D01*
X152080197Y9291525D01*
X151312053Y10875440D01*
X151191763Y10816211D01*
G37*
G36*
X150767391Y10235524D02*
G01*
X150726790Y10285558D01*
X150680127Y10326934D01*
X150632447Y10357035D01*
X150571410Y10382895D01*
X150508742Y10396820D01*
X150466057Y10399472D01*
X150402687Y10394930D01*
X150341934Y10378965D01*
X150287516Y10347743D01*
X150265472Y10326810D01*
X150231179Y10275164D01*
X150209587Y10211057D01*
X150201014Y10142704D01*
X150200443Y10117677D01*
X150200443Y9422500D01*
X150350957Y9422500D01*
X150350957Y10110349D01*
X150357508Y10171853D01*
X150385841Y10229776D01*
X150390647Y10234913D01*
X150445159Y10266120D01*
X150509072Y10274869D01*
X150514295Y10274908D01*
X150578308Y10265383D01*
X150635656Y10239480D01*
X150657177Y10225144D01*
X150704589Y10185559D01*
X150747717Y10137056D01*
X150767391Y10108518D01*
X150767391Y9422500D01*
X150918211Y9422500D01*
X150918211Y10763088D01*
X150767391Y10779575D01*
X150767391Y10235524D01*
G37*
G36*
X149566613Y10398033D02*
G01*
X149633413Y10391186D01*
X149700885Y10378699D01*
X149769028Y10360573D01*
X149827972Y10340548D01*
X149788588Y10226365D01*
X149737519Y10242862D01*
X149672966Y10259549D01*
X149605180Y10271068D01*
X149542513Y10274908D01*
X149490707Y10272122D01*
X149430254Y10259194D01*
X149374902Y10230334D01*
X149349791Y10204803D01*
X149324287Y10148827D01*
X149317505Y10087452D01*
X149317505Y10008683D01*
X149456418Y10008683D01*
X149469790Y10008606D01*
X149533673Y10005882D01*
X149603779Y9997478D01*
X149666737Y9983471D01*
X149731154Y9960048D01*
X149785840Y9928999D01*
X149792847Y9923970D01*
X149840889Y9878818D01*
X149874697Y9824927D01*
X149894269Y9762297D01*
X149899719Y9700327D01*
X149897966Y9662138D01*
X149886803Y9601702D01*
X149863082Y9543401D01*
X149850755Y9523156D01*
X149807913Y9474403D01*
X149757142Y9439597D01*
X149716398Y9421888D01*
X149656063Y9407290D01*
X149594720Y9402961D01*
X149549459Y9405213D01*
X149485288Y9417034D01*
X149425582Y9438987D01*
X149388793Y9459270D01*
X149339906Y9497639D01*
X149298576Y9545538D01*
X149281234Y9502841D01*
X149242141Y9452560D01*
X149187350Y9418799D01*
X149125469Y9402656D01*
X149088527Y9516229D01*
X149096051Y9518699D01*
X149147756Y9555308D01*
X149158011Y9577068D01*
X149165769Y9638045D01*
X149165769Y9663080D01*
X149317505Y9663080D01*
X149328367Y9647562D01*
X149371569Y9600086D01*
X149422834Y9563245D01*
X149430760Y9558920D01*
X149491878Y9535374D01*
X149555947Y9527525D01*
X149588520Y9529122D01*
X149652064Y9545265D01*
X149703326Y9585002D01*
X149731805Y9647446D01*
X149738213Y9709181D01*
X149734015Y9755167D01*
X149711976Y9813413D01*
X149671046Y9858779D01*
X149637583Y9879122D01*
X149576093Y9899515D01*
X149515309Y9908488D01*
X149453670Y9910986D01*
X149317505Y9910986D01*
X149317505Y9663080D01*
X149165769Y9663080D01*
X149165769Y10092947D01*
X149168946Y10144578D01*
X149183066Y10206640D01*
X149212454Y10267201D01*
X149256139Y10317956D01*
X149273756Y10332524D01*
X149327871Y10364366D01*
X149392366Y10386019D01*
X149457315Y10396606D01*
X149519310Y10399472D01*
X149566613Y10398033D01*
G37*
G36*
X148446279Y10397944D02*
G01*
X148513185Y10387492D01*
X148574005Y10367139D01*
X148628740Y10336885D01*
X148656369Y10316104D01*
X148700617Y10272537D01*
X148737814Y10221049D01*
X148767958Y10161640D01*
X148770851Y10154583D01*
X148790686Y10095545D01*
X148804644Y10031927D01*
X148812725Y9963730D01*
X148814975Y9900301D01*
X148814929Y9890875D01*
X148812056Y9827066D01*
X148803297Y9758792D01*
X148788700Y9695480D01*
X148768264Y9637129D01*
X148752586Y9603440D01*
X148718918Y9548998D01*
X148678246Y9502525D01*
X148630572Y9464022D01*
X148594944Y9443271D01*
X148536270Y9420194D01*
X148471318Y9406777D01*
X148408311Y9402961D01*
X148368870Y9404497D01*
X148302498Y9414999D01*
X148242067Y9435451D01*
X148187576Y9465854D01*
X148160042Y9486803D01*
X148115966Y9530560D01*
X148078941Y9582093D01*
X148048968Y9641403D01*
X148046076Y9648479D01*
X148026241Y9707574D01*
X148012283Y9771096D01*
X148004202Y9839045D01*
X148001974Y9901522D01*
X148163457Y9901522D01*
X148163696Y9878203D01*
X148167274Y9812812D01*
X148176874Y9745177D01*
X148195001Y9679294D01*
X148224518Y9619727D01*
X148236509Y9603249D01*
X148284308Y9560030D01*
X148344152Y9534818D01*
X148408311Y9527525D01*
X148430836Y9528335D01*
X148491873Y9540491D01*
X148548193Y9571105D01*
X148592409Y9619727D01*
X148606720Y9644275D01*
X148629618Y9702359D01*
X148643392Y9763012D01*
X148651323Y9832840D01*
X148653469Y9899995D01*
X148653227Y9923425D01*
X148649596Y9989106D01*
X148639852Y10056997D01*
X148621452Y10123067D01*
X148591493Y10182706D01*
X148579336Y10199184D01*
X148531059Y10242403D01*
X148470857Y10267615D01*
X148406479Y10274908D01*
X148384336Y10274098D01*
X148324219Y10261942D01*
X148268525Y10231328D01*
X148224518Y10182706D01*
X148210207Y10158144D01*
X148187309Y10099945D01*
X148173535Y10039098D01*
X148165604Y9968988D01*
X148163457Y9901522D01*
X148001974Y9901522D01*
X148001952Y9902132D01*
X148001997Y9911615D01*
X148004833Y9975787D01*
X148013477Y10044404D01*
X148027883Y10107983D01*
X148048053Y10166525D01*
X148060274Y10193797D01*
X148092866Y10249195D01*
X148132510Y10296333D01*
X148184829Y10339022D01*
X148220249Y10359565D01*
X148278691Y10382411D01*
X148343510Y10395694D01*
X148406479Y10399472D01*
X148446279Y10397944D01*
G37*
G36*
X147690542Y10764920D02*
G01*
X147690542Y9422500D01*
X147558651Y9422500D01*
X147547965Y9522945D01*
X147535810Y9508243D01*
X147489361Y9464449D01*
X147436835Y9432576D01*
X147416433Y9424044D01*
X147354389Y9407849D01*
X147290289Y9402961D01*
X147268215Y9403519D01*
X147205696Y9411891D01*
X147142745Y9432976D01*
X147086652Y9466464D01*
X147066230Y9483113D01*
X147020810Y9531496D01*
X146986815Y9583301D01*
X146959340Y9642930D01*
X146956673Y9650022D01*
X146938383Y9709103D01*
X146925513Y9772344D01*
X146918061Y9839745D01*
X146915987Y9902132D01*
X146915992Y9902438D01*
X147080240Y9902438D01*
X147080486Y9879335D01*
X147084171Y9814434D01*
X147094059Y9747073D01*
X147112731Y9681108D01*
X147143133Y9620948D01*
X147155430Y9604252D01*
X147203706Y9560460D01*
X147263192Y9534915D01*
X147326315Y9527525D01*
X147387986Y9535539D01*
X147445994Y9559582D01*
X147449487Y9561629D01*
X147500425Y9601032D01*
X147539722Y9649341D01*
X147539722Y10115845D01*
X147522667Y10140778D01*
X147481811Y10189131D01*
X147435614Y10229723D01*
X147420382Y10240313D01*
X147363990Y10266259D01*
X147302807Y10274908D01*
X147296027Y10274817D01*
X147233905Y10263833D01*
X147177485Y10230607D01*
X147137027Y10181180D01*
X147123717Y10156388D01*
X147102422Y10098190D01*
X147089612Y10037843D01*
X147082237Y9968702D01*
X147080240Y9902438D01*
X146915992Y9902438D01*
X146916741Y9945296D01*
X146921349Y10013167D01*
X146930146Y10075956D01*
X146946231Y10144592D01*
X146968349Y10205908D01*
X147001777Y10268191D01*
X147030957Y10306011D01*
X147079773Y10348190D01*
X147137880Y10377805D01*
X147205279Y10394857D01*
X147270444Y10399472D01*
X147300033Y10398077D01*
X147361342Y10385480D01*
X147418822Y10359782D01*
X147451909Y10337915D01*
X147497962Y10296957D01*
X147539722Y10246210D01*
X147539722Y10783849D01*
X147690542Y10764920D01*
G37*
G36*
X146294499Y10397944D02*
G01*
X146361405Y10387492D01*
X146422226Y10367139D01*
X146476960Y10336885D01*
X146504590Y10316104D01*
X146548838Y10272537D01*
X146586034Y10221049D01*
X146616179Y10161640D01*
X146619071Y10154583D01*
X146638907Y10095545D01*
X146652865Y10031927D01*
X146660946Y9963730D01*
X146663196Y9900301D01*
X146663150Y9890875D01*
X146660276Y9827066D01*
X146651518Y9758792D01*
X146636920Y9695480D01*
X146616484Y9637129D01*
X146600806Y9603440D01*
X146567138Y9548998D01*
X146526467Y9502525D01*
X146478792Y9464022D01*
X146443165Y9443271D01*
X146384491Y9420194D01*
X146319538Y9406777D01*
X146256531Y9402961D01*
X146217091Y9404497D01*
X146150719Y9414999D01*
X146090287Y9435451D01*
X146035797Y9465854D01*
X146008263Y9486803D01*
X145964186Y9530560D01*
X145927162Y9582093D01*
X145897189Y9641403D01*
X145894296Y9648479D01*
X145874461Y9707574D01*
X145860503Y9771096D01*
X145852422Y9839045D01*
X145850194Y9901522D01*
X146011678Y9901522D01*
X146011916Y9878203D01*
X146015494Y9812812D01*
X146025094Y9745177D01*
X146043222Y9679294D01*
X146072739Y9619727D01*
X146084729Y9603249D01*
X146132529Y9560030D01*
X146192373Y9534818D01*
X146256531Y9527525D01*
X146279056Y9528335D01*
X146340094Y9540491D01*
X146396414Y9571105D01*
X146440629Y9619727D01*
X146454940Y9644275D01*
X146477838Y9702359D01*
X146491613Y9763012D01*
X146499543Y9832840D01*
X146501690Y9899995D01*
X146501448Y9923425D01*
X146497816Y9989106D01*
X146488072Y10056997D01*
X146469673Y10123067D01*
X146439713Y10182706D01*
X146427556Y10199184D01*
X146379280Y10242403D01*
X146319078Y10267615D01*
X146254699Y10274908D01*
X146232557Y10274098D01*
X146172439Y10261942D01*
X146116745Y10231328D01*
X146072739Y10182706D01*
X146058427Y10158144D01*
X146035530Y10099945D01*
X146021755Y10039098D01*
X146013824Y9968988D01*
X146011678Y9901522D01*
X145850194Y9901522D01*
X145850172Y9902132D01*
X145850217Y9911615D01*
X145853054Y9975787D01*
X145861697Y10044404D01*
X145876104Y10107983D01*
X145896273Y10166525D01*
X145908495Y10193797D01*
X145941086Y10249195D01*
X145980730Y10296333D01*
X146033049Y10339022D01*
X146068469Y10359565D01*
X146126912Y10382411D01*
X146191731Y10395694D01*
X146254699Y10399472D01*
X146294499Y10397944D01*
G37*
G36*
X144829375Y10455631D02*
G01*
X144887855Y10434582D01*
X144891046Y10433577D01*
X144952406Y10418503D01*
X145013030Y10408936D01*
X145068898Y10403548D01*
X145134074Y10400396D01*
X145201402Y10399472D01*
X145208229Y10399429D01*
X145273941Y10394313D01*
X145335002Y10380670D01*
X145396796Y10355813D01*
X145446587Y10325408D01*
X145492955Y10284318D01*
X145530519Y10235219D01*
X145555796Y10185165D01*
X145572788Y10125562D01*
X145578452Y10061196D01*
X145576611Y10021652D01*
X145564890Y9960050D01*
X145539984Y9902132D01*
X145520960Y9874437D01*
X145474701Y9828430D01*
X145419389Y9792223D01*
X145456439Y9764068D01*
X145496631Y9717118D01*
X145510799Y9690327D01*
X145523497Y9629496D01*
X145520963Y9600314D01*
X145497547Y9541569D01*
X145471876Y9511941D01*
X145417862Y9478066D01*
X145411013Y9475182D01*
X145349437Y9458810D01*
X145285666Y9454252D01*
X145117138Y9454252D01*
X145082684Y9452996D01*
X145021376Y9442950D01*
X144962655Y9418532D01*
X144918233Y9374720D01*
X144903426Y9315339D01*
X144904561Y9295976D01*
X144926417Y9238199D01*
X144976088Y9195965D01*
X145011793Y9180500D01*
X145076384Y9164997D01*
X145139563Y9158175D01*
X145203234Y9156276D01*
X145234620Y9156708D01*
X145300580Y9161273D01*
X145364434Y9173983D01*
X145396527Y9186619D01*
X145443203Y9226801D01*
X145457435Y9259607D01*
X145465184Y9322056D01*
X145601655Y9322056D01*
X145599858Y9279760D01*
X145588416Y9215546D01*
X145564103Y9157802D01*
X145545173Y9131449D01*
X145497461Y9090802D01*
X145438928Y9062853D01*
X145391282Y9049229D01*
X145328511Y9038554D01*
X145264564Y9033202D01*
X145202318Y9031712D01*
X145188886Y9031785D01*
X145124623Y9034342D01*
X145053883Y9042231D01*
X144990099Y9055379D01*
X144924474Y9077366D01*
X144868316Y9106511D01*
X144816891Y9147975D01*
X144780160Y9197568D01*
X144758120Y9255290D01*
X144750774Y9321140D01*
X144751158Y9334534D01*
X144764588Y9398044D01*
X144794433Y9452115D01*
X144808800Y9469998D01*
X144857754Y9513408D01*
X144914722Y9544927D01*
X144959155Y9561309D01*
X145022532Y9574811D01*
X145084776Y9578816D01*
X145255136Y9578816D01*
X145294485Y9580903D01*
X145353138Y9600187D01*
X145356613Y9602922D01*
X145381837Y9659111D01*
X145368098Y9711318D01*
X145332377Y9751923D01*
X145330468Y9751356D01*
X145270095Y9738795D01*
X145253170Y9737192D01*
X145191632Y9735131D01*
X145125992Y9739186D01*
X145060400Y9753013D01*
X145001734Y9776653D01*
X144963952Y9799474D01*
X144916153Y9841434D01*
X144879002Y9892668D01*
X144858340Y9936189D01*
X144841310Y9999251D01*
X144836480Y10059364D01*
X144992269Y10059364D01*
X144995608Y10008493D01*
X145011105Y9948390D01*
X145045697Y9892057D01*
X145075235Y9866145D01*
X145135281Y9839827D01*
X145197739Y9832828D01*
X145256565Y9837658D01*
X145316592Y9856680D01*
X145367182Y9893889D01*
X145394632Y9931716D01*
X145417258Y9992445D01*
X145423968Y10058448D01*
X145420457Y10106991D01*
X145402025Y10170074D01*
X145367793Y10221480D01*
X145322786Y10256070D01*
X145265009Y10276302D01*
X145201402Y10282235D01*
X145158666Y10279518D01*
X145096620Y10262216D01*
X145045392Y10225449D01*
X145017378Y10184960D01*
X144997457Y10122678D01*
X144992269Y10059364D01*
X144836480Y10059364D01*
X144836259Y10062111D01*
X144840262Y10111653D01*
X144859314Y10173724D01*
X144894057Y10227292D01*
X144944490Y10272357D01*
X145000207Y10304217D01*
X144966029Y10304410D01*
X144904176Y10305956D01*
X144842976Y10309713D01*
X144785186Y10317700D01*
X144723907Y10332916D01*
X144770619Y10480072D01*
X144829375Y10455631D01*
G37*
G36*
X144312053Y9704906D02*
G01*
X144306686Y9642238D01*
X144284884Y9584068D01*
X144273890Y9569657D01*
X144220848Y9536782D01*
X144158404Y9527566D01*
X144153295Y9527525D01*
X144088931Y9535706D01*
X144030629Y9557954D01*
X144008581Y9570267D01*
X143956217Y9608620D01*
X143913730Y9653724D01*
X143897451Y9676818D01*
X143897451Y10379932D01*
X143746631Y10379932D01*
X143746631Y9422500D01*
X143875163Y9422500D01*
X143887681Y9555308D01*
X143928391Y9509524D01*
X143979961Y9468136D01*
X144023541Y9442956D01*
X144085050Y9418584D01*
X144147761Y9405461D01*
X144190237Y9402961D01*
X144253702Y9407522D01*
X144315155Y9423554D01*
X144371088Y9454908D01*
X144394180Y9475929D01*
X144430405Y9527777D01*
X144453213Y9591729D01*
X144462269Y9659636D01*
X144462873Y9684451D01*
X144462873Y10379932D01*
X144312053Y10379932D01*
X144312053Y9704906D01*
G37*
G36*
X142584645Y10816211D02*
G01*
X143351263Y9237487D01*
X143473079Y9291525D01*
X142704935Y10875440D01*
X142584645Y10816211D01*
G37*
G36*
X141673009Y10399472D02*
G01*
X141611620Y10395460D01*
X141605842Y10394587D01*
X141545993Y10381773D01*
X141539286Y10379932D01*
X141560963Y10060280D01*
X141684610Y10060280D01*
X141684610Y10262696D01*
X141692854Y10262696D01*
X141758035Y10255004D01*
X141816955Y10231927D01*
X141869614Y10193466D01*
X141879394Y10183928D01*
X141920500Y10133269D01*
X141953106Y10077575D01*
X141978599Y10020609D01*
X142001258Y9955959D01*
X142004263Y9946096D01*
X142004263Y9547064D01*
X141812227Y9547064D01*
X141812227Y9422500D01*
X142302240Y9422500D01*
X142302240Y9547064D01*
X142155083Y9547064D01*
X142155083Y10262696D01*
X142302240Y10262696D01*
X142302240Y10379932D01*
X142039984Y10379932D01*
X142012201Y10155840D01*
X141982129Y10213313D01*
X141945013Y10268665D01*
X141899694Y10318611D01*
X141875425Y10339022D01*
X141821550Y10370900D01*
X141759147Y10390971D01*
X141695695Y10398941D01*
X141673009Y10399472D01*
G37*
G36*
X140612384Y10399472D02*
G01*
X140551784Y10390100D01*
X140497455Y10359045D01*
X140480799Y10342685D01*
X140449543Y10286872D01*
X140434516Y10220159D01*
X140429708Y10153564D01*
X140429508Y10135079D01*
X140429508Y9422500D01*
X140569337Y9422500D01*
X140569337Y10106075D01*
X140570629Y10168524D01*
X140573916Y10207741D01*
X140593456Y10258116D01*
X140641999Y10274908D01*
X140703252Y10260622D01*
X140754868Y10222841D01*
X140798008Y10168648D01*
X140807168Y10154008D01*
X140807168Y9422500D01*
X140948218Y9422500D01*
X140948218Y10106075D01*
X140949511Y10168524D01*
X140952798Y10207741D01*
X140972337Y10258116D01*
X141020881Y10274908D01*
X141081960Y10260622D01*
X141133480Y10222841D01*
X141176585Y10168648D01*
X141185744Y10154008D01*
X141185744Y9422500D01*
X141324963Y9422500D01*
X141324963Y10379932D01*
X141206505Y10379932D01*
X141197651Y10255369D01*
X141161768Y10306240D01*
X141118110Y10352040D01*
X141106060Y10361920D01*
X141049744Y10391221D01*
X140992182Y10399472D01*
X140931312Y10390713D01*
X140877157Y10359922D01*
X140838168Y10306961D01*
X140820601Y10259338D01*
X140785261Y10309709D01*
X140741728Y10354306D01*
X140729621Y10363751D01*
X140672205Y10391623D01*
X140612384Y10399472D01*
G37*
G36*
X140149544Y10765226D02*
G01*
X139998724Y10784154D01*
X139998724Y9422500D01*
X140149544Y9422500D01*
X140149544Y10765226D01*
G37*
G36*
X139563361Y10379932D02*
G01*
X139367967Y10379932D01*
X139793255Y9948539D01*
X139318508Y9422500D01*
X139516650Y9422500D01*
X139981627Y9944875D01*
X139563361Y10379932D01*
G37*
D10*
X97299580Y8606667D02*
X97347200Y8654286D01*
X97347200Y8654286D02*
X97394819Y8797143D01*
X97394819Y8797143D02*
X97394819Y8892381D01*
X97394819Y8892381D02*
X97347200Y9035238D01*
X97347200Y9035238D02*
X97251961Y9130476D01*
X97251961Y9130476D02*
X97156723Y9178095D01*
X97156723Y9178095D02*
X96966247Y9225714D01*
X96966247Y9225714D02*
X96823390Y9225714D01*
X96823390Y9225714D02*
X96632914Y9178095D01*
X96632914Y9178095D02*
X96537676Y9130476D01*
X96537676Y9130476D02*
X96442438Y9035238D01*
X96442438Y9035238D02*
X96394819Y8892381D01*
X96394819Y8892381D02*
X96394819Y8797143D01*
X96394819Y8797143D02*
X96442438Y8654286D01*
X96442438Y8654286D02*
X96490057Y8606667D01*
X96728152Y7749524D02*
X97394819Y7749524D01*
X96347200Y7987619D02*
X97061485Y8225714D01*
X97061485Y8225714D02*
X97061485Y7606667D01*
X24251904Y74035181D02*
X24251904Y73225658D01*
X24251904Y73225658D02*
X24204285Y73130420D01*
X24204285Y73130420D02*
X24156666Y73082800D01*
X24156666Y73082800D02*
X24061428Y73035181D01*
X24061428Y73035181D02*
X23870952Y73035181D01*
X23870952Y73035181D02*
X23775714Y73082800D01*
X23775714Y73082800D02*
X23728095Y73130420D01*
X23728095Y73130420D02*
X23680476Y73225658D01*
X23680476Y73225658D02*
X23680476Y74035181D01*
X23251904Y73939943D02*
X23204285Y73987562D01*
X23204285Y73987562D02*
X23109047Y74035181D01*
X23109047Y74035181D02*
X22870952Y74035181D01*
X22870952Y74035181D02*
X22775714Y73987562D01*
X22775714Y73987562D02*
X22728095Y73939943D01*
X22728095Y73939943D02*
X22680476Y73844705D01*
X22680476Y73844705D02*
X22680476Y73749467D01*
X22680476Y73749467D02*
X22728095Y73606610D01*
X22728095Y73606610D02*
X23299523Y73035181D01*
X23299523Y73035181D02*
X22680476Y73035181D01*
X77354819Y12434286D02*
X76354819Y12434286D01*
X76354819Y12434286D02*
X76354819Y12196191D01*
X76354819Y12196191D02*
X76402438Y12053334D01*
X76402438Y12053334D02*
X76497676Y11958096D01*
X76497676Y11958096D02*
X76592914Y11910477D01*
X76592914Y11910477D02*
X76783390Y11862858D01*
X76783390Y11862858D02*
X76926247Y11862858D01*
X76926247Y11862858D02*
X77116723Y11910477D01*
X77116723Y11910477D02*
X77211961Y11958096D01*
X77211961Y11958096D02*
X77307200Y12053334D01*
X77307200Y12053334D02*
X77354819Y12196191D01*
X77354819Y12196191D02*
X77354819Y12434286D01*
X76354819Y11005715D02*
X76354819Y11196191D01*
X76354819Y11196191D02*
X76402438Y11291429D01*
X76402438Y11291429D02*
X76450057Y11339048D01*
X76450057Y11339048D02*
X76592914Y11434286D01*
X76592914Y11434286D02*
X76783390Y11481905D01*
X76783390Y11481905D02*
X77164342Y11481905D01*
X77164342Y11481905D02*
X77259580Y11434286D01*
X77259580Y11434286D02*
X77307200Y11386667D01*
X77307200Y11386667D02*
X77354819Y11291429D01*
X77354819Y11291429D02*
X77354819Y11100953D01*
X77354819Y11100953D02*
X77307200Y11005715D01*
X77307200Y11005715D02*
X77259580Y10958096D01*
X77259580Y10958096D02*
X77164342Y10910477D01*
X77164342Y10910477D02*
X76926247Y10910477D01*
X76926247Y10910477D02*
X76831009Y10958096D01*
X76831009Y10958096D02*
X76783390Y11005715D01*
X76783390Y11005715D02*
X76735771Y11100953D01*
X76735771Y11100953D02*
X76735771Y11291429D01*
X76735771Y11291429D02*
X76783390Y11386667D01*
X76783390Y11386667D02*
X76831009Y11434286D01*
X76831009Y11434286D02*
X76926247Y11481905D01*
X76354819Y10577143D02*
X76354819Y9958096D01*
X76354819Y9958096D02*
X76735771Y10291429D01*
X76735771Y10291429D02*
X76735771Y10148572D01*
X76735771Y10148572D02*
X76783390Y10053334D01*
X76783390Y10053334D02*
X76831009Y10005715D01*
X76831009Y10005715D02*
X76926247Y9958096D01*
X76926247Y9958096D02*
X77164342Y9958096D01*
X77164342Y9958096D02*
X77259580Y10005715D01*
X77259580Y10005715D02*
X77307200Y10053334D01*
X77307200Y10053334D02*
X77354819Y10148572D01*
X77354819Y10148572D02*
X77354819Y10434286D01*
X77354819Y10434286D02*
X77307200Y10529524D01*
X77307200Y10529524D02*
X77259580Y10577143D01*
X18573333Y94265181D02*
X18573333Y93550896D01*
X18573333Y93550896D02*
X18620952Y93408039D01*
X18620952Y93408039D02*
X18716190Y93312800D01*
X18716190Y93312800D02*
X18859047Y93265181D01*
X18859047Y93265181D02*
X18954285Y93265181D01*
X17573333Y93265181D02*
X18144761Y93265181D01*
X17859047Y93265181D02*
X17859047Y94265181D01*
X17859047Y94265181D02*
X17954285Y94122324D01*
X17954285Y94122324D02*
X18049523Y94027086D01*
X18049523Y94027086D02*
X18144761Y93979467D01*
X90071904Y12895181D02*
X90071904Y12085658D01*
X90071904Y12085658D02*
X90024285Y11990420D01*
X90024285Y11990420D02*
X89976666Y11942800D01*
X89976666Y11942800D02*
X89881428Y11895181D01*
X89881428Y11895181D02*
X89690952Y11895181D01*
X89690952Y11895181D02*
X89595714Y11942800D01*
X89595714Y11942800D02*
X89548095Y11990420D01*
X89548095Y11990420D02*
X89500476Y12085658D01*
X89500476Y12085658D02*
X89500476Y12895181D01*
X89119523Y12895181D02*
X88500476Y12895181D01*
X88500476Y12895181D02*
X88833809Y12514229D01*
X88833809Y12514229D02*
X88690952Y12514229D01*
X88690952Y12514229D02*
X88595714Y12466610D01*
X88595714Y12466610D02*
X88548095Y12418991D01*
X88548095Y12418991D02*
X88500476Y12323753D01*
X88500476Y12323753D02*
X88500476Y12085658D01*
X88500476Y12085658D02*
X88548095Y11990420D01*
X88548095Y11990420D02*
X88595714Y11942800D01*
X88595714Y11942800D02*
X88690952Y11895181D01*
X88690952Y11895181D02*
X88976666Y11895181D01*
X88976666Y11895181D02*
X89071904Y11942800D01*
X89071904Y11942800D02*
X89119523Y11990420D01*
X84694580Y12575167D02*
X84742200Y12622786D01*
X84742200Y12622786D02*
X84789819Y12765643D01*
X84789819Y12765643D02*
X84789819Y12860881D01*
X84789819Y12860881D02*
X84742200Y13003738D01*
X84742200Y13003738D02*
X84646961Y13098976D01*
X84646961Y13098976D02*
X84551723Y13146595D01*
X84551723Y13146595D02*
X84361247Y13194214D01*
X84361247Y13194214D02*
X84218390Y13194214D01*
X84218390Y13194214D02*
X84027914Y13146595D01*
X84027914Y13146595D02*
X83932676Y13098976D01*
X83932676Y13098976D02*
X83837438Y13003738D01*
X83837438Y13003738D02*
X83789819Y12860881D01*
X83789819Y12860881D02*
X83789819Y12765643D01*
X83789819Y12765643D02*
X83837438Y12622786D01*
X83837438Y12622786D02*
X83885057Y12575167D01*
X84789819Y11622786D02*
X84789819Y12194214D01*
X84789819Y11908500D02*
X83789819Y11908500D01*
X83789819Y11908500D02*
X83932676Y12003738D01*
X83932676Y12003738D02*
X84027914Y12098976D01*
X84027914Y12098976D02*
X84075533Y12194214D01*
X120341904Y9535181D02*
X120341904Y8725658D01*
X120341904Y8725658D02*
X120294285Y8630420D01*
X120294285Y8630420D02*
X120246666Y8582800D01*
X120246666Y8582800D02*
X120151428Y8535181D01*
X120151428Y8535181D02*
X119960952Y8535181D01*
X119960952Y8535181D02*
X119865714Y8582800D01*
X119865714Y8582800D02*
X119818095Y8630420D01*
X119818095Y8630420D02*
X119770476Y8725658D01*
X119770476Y8725658D02*
X119770476Y9535181D01*
X118770476Y8535181D02*
X119341904Y8535181D01*
X119056190Y8535181D02*
X119056190Y9535181D01*
X119056190Y9535181D02*
X119151428Y9392324D01*
X119151428Y9392324D02*
X119246666Y9297086D01*
X119246666Y9297086D02*
X119341904Y9249467D01*
X106103333Y40165181D02*
X106103333Y39450896D01*
X106103333Y39450896D02*
X106150952Y39308039D01*
X106150952Y39308039D02*
X106246190Y39212800D01*
X106246190Y39212800D02*
X106389047Y39165181D01*
X106389047Y39165181D02*
X106484285Y39165181D01*
X105198571Y40165181D02*
X105389047Y40165181D01*
X105389047Y40165181D02*
X105484285Y40117562D01*
X105484285Y40117562D02*
X105531904Y40069943D01*
X105531904Y40069943D02*
X105627142Y39927086D01*
X105627142Y39927086D02*
X105674761Y39736610D01*
X105674761Y39736610D02*
X105674761Y39355658D01*
X105674761Y39355658D02*
X105627142Y39260420D01*
X105627142Y39260420D02*
X105579523Y39212800D01*
X105579523Y39212800D02*
X105484285Y39165181D01*
X105484285Y39165181D02*
X105293809Y39165181D01*
X105293809Y39165181D02*
X105198571Y39212800D01*
X105198571Y39212800D02*
X105150952Y39260420D01*
X105150952Y39260420D02*
X105103333Y39355658D01*
X105103333Y39355658D02*
X105103333Y39593753D01*
X105103333Y39593753D02*
X105150952Y39688991D01*
X105150952Y39688991D02*
X105198571Y39736610D01*
X105198571Y39736610D02*
X105293809Y39784229D01*
X105293809Y39784229D02*
X105484285Y39784229D01*
X105484285Y39784229D02*
X105579523Y39736610D01*
X105579523Y39736610D02*
X105627142Y39688991D01*
X105627142Y39688991D02*
X105674761Y39593753D01*
X86306666Y3145181D02*
X86639999Y3621372D01*
X86878094Y3145181D02*
X86878094Y4145181D01*
X86878094Y4145181D02*
X86497142Y4145181D01*
X86497142Y4145181D02*
X86401904Y4097562D01*
X86401904Y4097562D02*
X86354285Y4049943D01*
X86354285Y4049943D02*
X86306666Y3954705D01*
X86306666Y3954705D02*
X86306666Y3811848D01*
X86306666Y3811848D02*
X86354285Y3716610D01*
X86354285Y3716610D02*
X86401904Y3668991D01*
X86401904Y3668991D02*
X86497142Y3621372D01*
X86497142Y3621372D02*
X86878094Y3621372D01*
X85449523Y3811848D02*
X85449523Y3145181D01*
X85687618Y4192800D02*
X85925713Y3478515D01*
X85925713Y3478515D02*
X85306666Y3478515D01*
X92728628Y6041191D02*
X93204819Y6041191D01*
X92204819Y6374524D02*
X92728628Y6041191D01*
X92728628Y6041191D02*
X92204819Y5707858D01*
X93204819Y4850715D02*
X93204819Y5422143D01*
X93204819Y5136429D02*
X92204819Y5136429D01*
X92204819Y5136429D02*
X92347676Y5231667D01*
X92347676Y5231667D02*
X92442914Y5326905D01*
X92442914Y5326905D02*
X92490533Y5422143D01*
X96394819Y11731905D02*
X97204342Y11731905D01*
X97204342Y11731905D02*
X97299580Y11684286D01*
X97299580Y11684286D02*
X97347200Y11636667D01*
X97347200Y11636667D02*
X97394819Y11541429D01*
X97394819Y11541429D02*
X97394819Y11350953D01*
X97394819Y11350953D02*
X97347200Y11255715D01*
X97347200Y11255715D02*
X97299580Y11208096D01*
X97299580Y11208096D02*
X97204342Y11160477D01*
X97204342Y11160477D02*
X96394819Y11160477D01*
X96394819Y10208096D02*
X96394819Y10684286D01*
X96394819Y10684286D02*
X96871009Y10731905D01*
X96871009Y10731905D02*
X96823390Y10684286D01*
X96823390Y10684286D02*
X96775771Y10589048D01*
X96775771Y10589048D02*
X96775771Y10350953D01*
X96775771Y10350953D02*
X96823390Y10255715D01*
X96823390Y10255715D02*
X96871009Y10208096D01*
X96871009Y10208096D02*
X96966247Y10160477D01*
X96966247Y10160477D02*
X97204342Y10160477D01*
X97204342Y10160477D02*
X97299580Y10208096D01*
X97299580Y10208096D02*
X97347200Y10255715D01*
X97347200Y10255715D02*
X97394819Y10350953D01*
X97394819Y10350953D02*
X97394819Y10589048D01*
X97394819Y10589048D02*
X97347200Y10684286D01*
X97347200Y10684286D02*
X97299580Y10731905D01*
X88066666Y3240420D02*
X88114285Y3192800D01*
X88114285Y3192800D02*
X88257142Y3145181D01*
X88257142Y3145181D02*
X88352380Y3145181D01*
X88352380Y3145181D02*
X88495237Y3192800D01*
X88495237Y3192800D02*
X88590475Y3288039D01*
X88590475Y3288039D02*
X88638094Y3383277D01*
X88638094Y3383277D02*
X88685713Y3573753D01*
X88685713Y3573753D02*
X88685713Y3716610D01*
X88685713Y3716610D02*
X88638094Y3907086D01*
X88638094Y3907086D02*
X88590475Y4002324D01*
X88590475Y4002324D02*
X88495237Y4097562D01*
X88495237Y4097562D02*
X88352380Y4145181D01*
X88352380Y4145181D02*
X88257142Y4145181D01*
X88257142Y4145181D02*
X88114285Y4097562D01*
X88114285Y4097562D02*
X88066666Y4049943D01*
X87685713Y4049943D02*
X87638094Y4097562D01*
X87638094Y4097562D02*
X87542856Y4145181D01*
X87542856Y4145181D02*
X87304761Y4145181D01*
X87304761Y4145181D02*
X87209523Y4097562D01*
X87209523Y4097562D02*
X87161904Y4049943D01*
X87161904Y4049943D02*
X87114285Y3954705D01*
X87114285Y3954705D02*
X87114285Y3859467D01*
X87114285Y3859467D02*
X87161904Y3716610D01*
X87161904Y3716610D02*
X87733332Y3145181D01*
X87733332Y3145181D02*
X87114285Y3145181D01*
X6326666Y91935181D02*
X6659999Y92411372D01*
X6898094Y91935181D02*
X6898094Y92935181D01*
X6898094Y92935181D02*
X6517142Y92935181D01*
X6517142Y92935181D02*
X6421904Y92887562D01*
X6421904Y92887562D02*
X6374285Y92839943D01*
X6374285Y92839943D02*
X6326666Y92744705D01*
X6326666Y92744705D02*
X6326666Y92601848D01*
X6326666Y92601848D02*
X6374285Y92506610D01*
X6374285Y92506610D02*
X6421904Y92458991D01*
X6421904Y92458991D02*
X6517142Y92411372D01*
X6517142Y92411372D02*
X6898094Y92411372D01*
X5945713Y92839943D02*
X5898094Y92887562D01*
X5898094Y92887562D02*
X5802856Y92935181D01*
X5802856Y92935181D02*
X5564761Y92935181D01*
X5564761Y92935181D02*
X5469523Y92887562D01*
X5469523Y92887562D02*
X5421904Y92839943D01*
X5421904Y92839943D02*
X5374285Y92744705D01*
X5374285Y92744705D02*
X5374285Y92649467D01*
X5374285Y92649467D02*
X5421904Y92506610D01*
X5421904Y92506610D02*
X5993332Y91935181D01*
X5993332Y91935181D02*
X5374285Y91935181D01*
X72078038Y8207443D02*
X72173276Y8255062D01*
X72173276Y8255062D02*
X72268514Y8350300D01*
X72268514Y8350300D02*
X72411371Y8493158D01*
X72411371Y8493158D02*
X72506609Y8540777D01*
X72506609Y8540777D02*
X72601847Y8540777D01*
X72554228Y8302681D02*
X72649466Y8350300D01*
X72649466Y8350300D02*
X72744704Y8445539D01*
X72744704Y8445539D02*
X72792323Y8636015D01*
X72792323Y8636015D02*
X72792323Y8969348D01*
X72792323Y8969348D02*
X72744704Y9159824D01*
X72744704Y9159824D02*
X72649466Y9255062D01*
X72649466Y9255062D02*
X72554228Y9302681D01*
X72554228Y9302681D02*
X72363752Y9302681D01*
X72363752Y9302681D02*
X72268514Y9255062D01*
X72268514Y9255062D02*
X72173276Y9159824D01*
X72173276Y9159824D02*
X72125657Y8969348D01*
X72125657Y8969348D02*
X72125657Y8636015D01*
X72125657Y8636015D02*
X72173276Y8445539D01*
X72173276Y8445539D02*
X72268514Y8350300D01*
X72268514Y8350300D02*
X72363752Y8302681D01*
X72363752Y8302681D02*
X72554228Y8302681D01*
X71173276Y8302681D02*
X71744704Y8302681D01*
X71458990Y8302681D02*
X71458990Y9302681D01*
X71458990Y9302681D02*
X71554228Y9159824D01*
X71554228Y9159824D02*
X71649466Y9064586D01*
X71649466Y9064586D02*
X71744704Y9016967D01*
X97299580Y13626667D02*
X97347200Y13674286D01*
X97347200Y13674286D02*
X97394819Y13817143D01*
X97394819Y13817143D02*
X97394819Y13912381D01*
X97394819Y13912381D02*
X97347200Y14055238D01*
X97347200Y14055238D02*
X97251961Y14150476D01*
X97251961Y14150476D02*
X97156723Y14198095D01*
X97156723Y14198095D02*
X96966247Y14245714D01*
X96966247Y14245714D02*
X96823390Y14245714D01*
X96823390Y14245714D02*
X96632914Y14198095D01*
X96632914Y14198095D02*
X96537676Y14150476D01*
X96537676Y14150476D02*
X96442438Y14055238D01*
X96442438Y14055238D02*
X96394819Y13912381D01*
X96394819Y13912381D02*
X96394819Y13817143D01*
X96394819Y13817143D02*
X96442438Y13674286D01*
X96442438Y13674286D02*
X96490057Y13626667D01*
X96394819Y13293333D02*
X96394819Y12674286D01*
X96394819Y12674286D02*
X96775771Y13007619D01*
X96775771Y13007619D02*
X96775771Y12864762D01*
X96775771Y12864762D02*
X96823390Y12769524D01*
X96823390Y12769524D02*
X96871009Y12721905D01*
X96871009Y12721905D02*
X96966247Y12674286D01*
X96966247Y12674286D02*
X97204342Y12674286D01*
X97204342Y12674286D02*
X97299580Y12721905D01*
X97299580Y12721905D02*
X97347200Y12769524D01*
X97347200Y12769524D02*
X97394819Y12864762D01*
X97394819Y12864762D02*
X97394819Y13150476D01*
X97394819Y13150476D02*
X97347200Y13245714D01*
X97347200Y13245714D02*
X97299580Y13293333D01*
X6256666Y90575181D02*
X6589999Y91051372D01*
X6828094Y90575181D02*
X6828094Y91575181D01*
X6828094Y91575181D02*
X6447142Y91575181D01*
X6447142Y91575181D02*
X6351904Y91527562D01*
X6351904Y91527562D02*
X6304285Y91479943D01*
X6304285Y91479943D02*
X6256666Y91384705D01*
X6256666Y91384705D02*
X6256666Y91241848D01*
X6256666Y91241848D02*
X6304285Y91146610D01*
X6304285Y91146610D02*
X6351904Y91098991D01*
X6351904Y91098991D02*
X6447142Y91051372D01*
X6447142Y91051372D02*
X6828094Y91051372D01*
X5304285Y90575181D02*
X5875713Y90575181D01*
X5589999Y90575181D02*
X5589999Y91575181D01*
X5589999Y91575181D02*
X5685237Y91432324D01*
X5685237Y91432324D02*
X5780475Y91337086D01*
X5780475Y91337086D02*
X5875713Y91289467D01*
X28315866Y89789781D02*
X28649199Y90265972D01*
X28887294Y89789781D02*
X28887294Y90789781D01*
X28887294Y90789781D02*
X28506342Y90789781D01*
X28506342Y90789781D02*
X28411104Y90742162D01*
X28411104Y90742162D02*
X28363485Y90694543D01*
X28363485Y90694543D02*
X28315866Y90599305D01*
X28315866Y90599305D02*
X28315866Y90456448D01*
X28315866Y90456448D02*
X28363485Y90361210D01*
X28363485Y90361210D02*
X28411104Y90313591D01*
X28411104Y90313591D02*
X28506342Y90265972D01*
X28506342Y90265972D02*
X28887294Y90265972D01*
X27982532Y90789781D02*
X27315866Y90789781D01*
X27315866Y90789781D02*
X27744437Y89789781D01*
X112564819Y40026667D02*
X112088628Y40360000D01*
X112564819Y40598095D02*
X111564819Y40598095D01*
X111564819Y40598095D02*
X111564819Y40217143D01*
X111564819Y40217143D02*
X111612438Y40121905D01*
X111612438Y40121905D02*
X111660057Y40074286D01*
X111660057Y40074286D02*
X111755295Y40026667D01*
X111755295Y40026667D02*
X111898152Y40026667D01*
X111898152Y40026667D02*
X111993390Y40074286D01*
X111993390Y40074286D02*
X112041009Y40121905D01*
X112041009Y40121905D02*
X112088628Y40217143D01*
X112088628Y40217143D02*
X112088628Y40598095D01*
X112564819Y39550476D02*
X112564819Y39360000D01*
X112564819Y39360000D02*
X112517200Y39264762D01*
X112517200Y39264762D02*
X112469580Y39217143D01*
X112469580Y39217143D02*
X112326723Y39121905D01*
X112326723Y39121905D02*
X112136247Y39074286D01*
X112136247Y39074286D02*
X111755295Y39074286D01*
X111755295Y39074286D02*
X111660057Y39121905D01*
X111660057Y39121905D02*
X111612438Y39169524D01*
X111612438Y39169524D02*
X111564819Y39264762D01*
X111564819Y39264762D02*
X111564819Y39455238D01*
X111564819Y39455238D02*
X111612438Y39550476D01*
X111612438Y39550476D02*
X111660057Y39598095D01*
X111660057Y39598095D02*
X111755295Y39645714D01*
X111755295Y39645714D02*
X111993390Y39645714D01*
X111993390Y39645714D02*
X112088628Y39598095D01*
X112088628Y39598095D02*
X112136247Y39550476D01*
X112136247Y39550476D02*
X112183866Y39455238D01*
X112183866Y39455238D02*
X112183866Y39264762D01*
X112183866Y39264762D02*
X112136247Y39169524D01*
X112136247Y39169524D02*
X112088628Y39121905D01*
X112088628Y39121905D02*
X111993390Y39074286D01*
X116904819Y40036667D02*
X116428628Y40370000D01*
X116904819Y40608095D02*
X115904819Y40608095D01*
X115904819Y40608095D02*
X115904819Y40227143D01*
X115904819Y40227143D02*
X115952438Y40131905D01*
X115952438Y40131905D02*
X116000057Y40084286D01*
X116000057Y40084286D02*
X116095295Y40036667D01*
X116095295Y40036667D02*
X116238152Y40036667D01*
X116238152Y40036667D02*
X116333390Y40084286D01*
X116333390Y40084286D02*
X116381009Y40131905D01*
X116381009Y40131905D02*
X116428628Y40227143D01*
X116428628Y40227143D02*
X116428628Y40608095D01*
X116333390Y39465238D02*
X116285771Y39560476D01*
X116285771Y39560476D02*
X116238152Y39608095D01*
X116238152Y39608095D02*
X116142914Y39655714D01*
X116142914Y39655714D02*
X116095295Y39655714D01*
X116095295Y39655714D02*
X116000057Y39608095D01*
X116000057Y39608095D02*
X115952438Y39560476D01*
X115952438Y39560476D02*
X115904819Y39465238D01*
X115904819Y39465238D02*
X115904819Y39274762D01*
X115904819Y39274762D02*
X115952438Y39179524D01*
X115952438Y39179524D02*
X116000057Y39131905D01*
X116000057Y39131905D02*
X116095295Y39084286D01*
X116095295Y39084286D02*
X116142914Y39084286D01*
X116142914Y39084286D02*
X116238152Y39131905D01*
X116238152Y39131905D02*
X116285771Y39179524D01*
X116285771Y39179524D02*
X116333390Y39274762D01*
X116333390Y39274762D02*
X116333390Y39465238D01*
X116333390Y39465238D02*
X116381009Y39560476D01*
X116381009Y39560476D02*
X116428628Y39608095D01*
X116428628Y39608095D02*
X116523866Y39655714D01*
X116523866Y39655714D02*
X116714342Y39655714D01*
X116714342Y39655714D02*
X116809580Y39608095D01*
X116809580Y39608095D02*
X116857200Y39560476D01*
X116857200Y39560476D02*
X116904819Y39465238D01*
X116904819Y39465238D02*
X116904819Y39274762D01*
X116904819Y39274762D02*
X116857200Y39179524D01*
X116857200Y39179524D02*
X116809580Y39131905D01*
X116809580Y39131905D02*
X116714342Y39084286D01*
X116714342Y39084286D02*
X116523866Y39084286D01*
X116523866Y39084286D02*
X116428628Y39131905D01*
X116428628Y39131905D02*
X116381009Y39179524D01*
X116381009Y39179524D02*
X116333390Y39274762D01*
X89826666Y3145181D02*
X90159999Y3621372D01*
X90398094Y3145181D02*
X90398094Y4145181D01*
X90398094Y4145181D02*
X90017142Y4145181D01*
X90017142Y4145181D02*
X89921904Y4097562D01*
X89921904Y4097562D02*
X89874285Y4049943D01*
X89874285Y4049943D02*
X89826666Y3954705D01*
X89826666Y3954705D02*
X89826666Y3811848D01*
X89826666Y3811848D02*
X89874285Y3716610D01*
X89874285Y3716610D02*
X89921904Y3668991D01*
X89921904Y3668991D02*
X90017142Y3621372D01*
X90017142Y3621372D02*
X90398094Y3621372D01*
X89493332Y4145181D02*
X88874285Y4145181D01*
X88874285Y4145181D02*
X89207618Y3764229D01*
X89207618Y3764229D02*
X89064761Y3764229D01*
X89064761Y3764229D02*
X88969523Y3716610D01*
X88969523Y3716610D02*
X88921904Y3668991D01*
X88921904Y3668991D02*
X88874285Y3573753D01*
X88874285Y3573753D02*
X88874285Y3335658D01*
X88874285Y3335658D02*
X88921904Y3240420D01*
X88921904Y3240420D02*
X88969523Y3192800D01*
X88969523Y3192800D02*
X89064761Y3145181D01*
X89064761Y3145181D02*
X89350475Y3145181D01*
X89350475Y3145181D02*
X89445713Y3192800D01*
X89445713Y3192800D02*
X89493332Y3240420D01*
D12*
%TO.C,SW33*%
X95537500Y54150000D02*
X100637500Y54150000D01*
X99437500Y49950000D02*
X104537500Y49950000D01*
X93537500Y52150000D02*
G75*
G02*
X95537500Y54150000I1999999J1D01*
G01*
X97437500Y47950000D02*
G75*
G02*
X99437500Y49950000I1999999J1D01*
G01*
%TO.C,SW7*%
X119350000Y92250000D02*
X124450000Y92250000D01*
X123250000Y88050000D02*
X128350000Y88050000D01*
X117350000Y90250000D02*
G75*
G02*
X119350000Y92250000I1999999J1D01*
G01*
X121250000Y86050000D02*
G75*
G02*
X123250000Y88050000I1999999J1D01*
G01*
%TO.C,SW21*%
X128875000Y73200000D02*
X133975000Y73200000D01*
X132775000Y69000000D02*
X137875000Y69000000D01*
X126875000Y71200000D02*
G75*
G02*
X128875000Y73200000I1999999J1D01*
G01*
X130775000Y67000000D02*
G75*
G02*
X132775000Y69000000I1999999J1D01*
G01*
%TO.C,SW38*%
X190787500Y54150000D02*
X195887500Y54150000D01*
X194687500Y49950000D02*
X199787500Y49950000D01*
X188787500Y52150000D02*
G75*
G02*
X190787500Y54150000I1999999J1D01*
G01*
X192687500Y47950000D02*
G75*
G02*
X194687500Y49950000I1999999J1D01*
G01*
%TO.C,SW23*%
X166975000Y73200000D02*
X172075000Y73200000D01*
X170875000Y69000000D02*
X175975000Y69000000D01*
X164975000Y71200000D02*
G75*
G02*
X166975000Y73200000I1999999J1D01*
G01*
X168875000Y67000000D02*
G75*
G02*
X170875000Y69000000I1999999J1D01*
G01*
%TO.C,SW11*%
X195550000Y92250000D02*
X200650000Y92250000D01*
X199450000Y88050000D02*
X204550000Y88050000D01*
X193550000Y90250000D02*
G75*
G02*
X195550000Y92250000I1999999J1D01*
G01*
X197450000Y86050000D02*
G75*
G02*
X199450000Y88050000I1999999J1D01*
G01*
%TO.C,SW1*%
X9350000Y82650000D02*
X4250000Y82650000D01*
X13250000Y78450000D02*
X8150000Y78450000D01*
X11350000Y84650000D02*
G75*
G02*
X9350000Y82650000I-1999999J-1D01*
G01*
X15250000Y80450000D02*
G75*
G02*
X13250000Y78450000I-1999999J-1D01*
G01*
%TO.C,SW24*%
X186025000Y73200000D02*
X191125000Y73200000D01*
X189925000Y69000000D02*
X195025000Y69000000D01*
X184025000Y71200000D02*
G75*
G02*
X186025000Y73200000I1999999J1D01*
G01*
X187925000Y67000000D02*
G75*
G02*
X189925000Y69000000I1999999J1D01*
G01*
%TO.C,SW60*%
X245556250Y16050000D02*
X250656250Y16050000D01*
X249456250Y11850000D02*
X254556250Y11850000D01*
X243556250Y14050000D02*
G75*
G02*
X245556250Y16050000I1999999J1D01*
G01*
X247456250Y9850000D02*
G75*
G02*
X249456250Y11850000I1999999J1D01*
G01*
%TO.C,SW39*%
X209837500Y54150000D02*
X214937500Y54150000D01*
X213737500Y49950000D02*
X218837500Y49950000D01*
X207837500Y52150000D02*
G75*
G02*
X209837500Y54150000I1999999J1D01*
G01*
X211737500Y47950000D02*
G75*
G02*
X213737500Y49950000I1999999J1D01*
G01*
%TO.C,SW8*%
X138400000Y92250000D02*
X143500000Y92250000D01*
X142300000Y88050000D02*
X147400000Y88050000D01*
X136400000Y90250000D02*
G75*
G02*
X138400000Y92250000I1999999J1D01*
G01*
X140300000Y86050000D02*
G75*
G02*
X142300000Y88050000I1999999J1D01*
G01*
%TO.C,SW37*%
X171737500Y54150000D02*
X176837500Y54150000D01*
X175637500Y49950000D02*
X180737500Y49950000D01*
X169737500Y52150000D02*
G75*
G02*
X171737500Y54150000I1999999J1D01*
G01*
X173637500Y47950000D02*
G75*
G02*
X175637500Y49950000I1999999J1D01*
G01*
%TO.C,SW55*%
X31243750Y16050000D02*
X36343750Y16050000D01*
X35143750Y11850000D02*
X40243750Y11850000D01*
X29243750Y14050000D02*
G75*
G02*
X31243750Y16050000I1999999J1D01*
G01*
X33143750Y9850000D02*
G75*
G02*
X35143750Y11850000I1999999J1D01*
G01*
%TO.C,SW61*%
X269368750Y16050000D02*
X274468750Y16050000D01*
X273268750Y11850000D02*
X278368750Y11850000D01*
X267368750Y14050000D02*
G75*
G02*
X269368750Y16050000I1999999J1D01*
G01*
X271268750Y9850000D02*
G75*
G02*
X273268750Y11850000I1999999J1D01*
G01*
%TO.C,SW56*%
X55056250Y16050000D02*
X60156250Y16050000D01*
X58956250Y11850000D02*
X64056250Y11850000D01*
X53056250Y14050000D02*
G75*
G02*
X55056250Y16050000I1999999J1D01*
G01*
X56956250Y9850000D02*
G75*
G02*
X58956250Y11850000I1999999J1D01*
G01*
%TO.C,SW43*%
X47912500Y35100000D02*
X53012500Y35100000D01*
X51812500Y30900000D02*
X56912500Y30900000D01*
X45912500Y33100000D02*
G75*
G02*
X47912500Y35100000I1999999J1D01*
G01*
X49812500Y28900000D02*
G75*
G02*
X51812500Y30900000I1999999J1D01*
G01*
%TO.C,SW26*%
X224125000Y73200000D02*
X229225000Y73200000D01*
X228025000Y69000000D02*
X233125000Y69000000D01*
X222125000Y71200000D02*
G75*
G02*
X224125000Y73200000I1999999J1D01*
G01*
X226025000Y67000000D02*
G75*
G02*
X228025000Y69000000I1999999J1D01*
G01*
%TO.C,SW13*%
X233650000Y92250000D02*
X238750000Y92250000D01*
X237550000Y88050000D02*
X242650000Y88050000D01*
X231650000Y90250000D02*
G75*
G02*
X233650000Y92250000I1999999J1D01*
G01*
X235550000Y86050000D02*
G75*
G02*
X237550000Y88050000I1999999J1D01*
G01*
%TO.C,SW40*%
X228887500Y54150000D02*
X233987500Y54150000D01*
X232787500Y49950000D02*
X237887500Y49950000D01*
X226887500Y52150000D02*
G75*
G02*
X228887500Y54150000I1999999J1D01*
G01*
X230787500Y47950000D02*
G75*
G02*
X232787500Y49950000I1999999J1D01*
G01*
%TO.C,SW25*%
X205075000Y73200000D02*
X210175000Y73200000D01*
X208975000Y69000000D02*
X214075000Y69000000D01*
X203075000Y71200000D02*
G75*
G02*
X205075000Y73200000I1999999J1D01*
G01*
X206975000Y67000000D02*
G75*
G02*
X208975000Y69000000I1999999J1D01*
G01*
%TO.C,SW18*%
X71725000Y73200000D02*
X76825000Y73200000D01*
X75625000Y69000000D02*
X80725000Y69000000D01*
X69725000Y71200000D02*
G75*
G02*
X71725000Y73200000I1999999J1D01*
G01*
X73625000Y67000000D02*
G75*
G02*
X75625000Y69000000I1999999J1D01*
G01*
%TO.C,SW16*%
X33625000Y73200000D02*
X38725000Y73200000D01*
X37525000Y69000000D02*
X42625000Y69000000D01*
X31625000Y71200000D02*
G75*
G02*
X33625000Y73200000I1999999J1D01*
G01*
X35525000Y67000000D02*
G75*
G02*
X37525000Y69000000I1999999J1D01*
G01*
%TO.C,SW9*%
X157450000Y92250000D02*
X162550000Y92250000D01*
X161350000Y88050000D02*
X166450000Y88050000D01*
X155450000Y90250000D02*
G75*
G02*
X157450000Y92250000I1999999J1D01*
G01*
X159350000Y86050000D02*
G75*
G02*
X161350000Y88050000I1999999J1D01*
G01*
%TO.C,SW42*%
X16956250Y35100000D02*
X22056250Y35100000D01*
X20856250Y30900000D02*
X25956250Y30900000D01*
X14956250Y33100000D02*
G75*
G02*
X16956250Y35100000I1999999J1D01*
G01*
X18856250Y28900000D02*
G75*
G02*
X20856250Y30900000I1999999J1D01*
G01*
%TO.C,SW32*%
X76487500Y54150000D02*
X81587500Y54150000D01*
X80387500Y49950000D02*
X85487500Y49950000D01*
X74487500Y52150000D02*
G75*
G02*
X76487500Y54150000I1999999J1D01*
G01*
X78387500Y47950000D02*
G75*
G02*
X80387500Y49950000I1999999J1D01*
G01*
%TO.C,SW35*%
X137937500Y44550000D02*
X132837500Y44550000D01*
X141837500Y40350000D02*
X136737500Y40350000D01*
X139937500Y46550000D02*
G75*
G02*
X137937500Y44550000I-1999999J-1D01*
G01*
X143837500Y42350000D02*
G75*
G02*
X141837500Y40350000I-1999999J-1D01*
G01*
%TO.C,SW51*%
X200312500Y35100000D02*
X205412500Y35100000D01*
X204212500Y30900000D02*
X209312500Y30900000D01*
X198312500Y33100000D02*
G75*
G02*
X200312500Y35100000I1999999J1D01*
G01*
X202212500Y28900000D02*
G75*
G02*
X204212500Y30900000I1999999J1D01*
G01*
%TO.C,SW6*%
X100300000Y92250000D02*
X105400000Y92250000D01*
X104200000Y88050000D02*
X109300000Y88050000D01*
X98300000Y90250000D02*
G75*
G02*
X100300000Y92250000I1999999J1D01*
G01*
X102200000Y86050000D02*
G75*
G02*
X104200000Y88050000I1999999J1D01*
G01*
%TO.C,SW10*%
X176500000Y92250000D02*
X181600000Y92250000D01*
X180400000Y88050000D02*
X185500000Y88050000D01*
X174500000Y90250000D02*
G75*
G02*
X176500000Y92250000I1999999J1D01*
G01*
X178400000Y86050000D02*
G75*
G02*
X180400000Y88050000I1999999J1D01*
G01*
%TO.C,SW36*%
X152687500Y54150000D02*
X157787500Y54150000D01*
X156587500Y49950000D02*
X161687500Y49950000D01*
X150687500Y52150000D02*
G75*
G02*
X152687500Y54150000I1999999J1D01*
G01*
X154587500Y47950000D02*
G75*
G02*
X156587500Y49950000I1999999J1D01*
G01*
%TO.C,SW46*%
X105062500Y35100000D02*
X110162500Y35100000D01*
X108962500Y30900000D02*
X114062500Y30900000D01*
X103062500Y33100000D02*
G75*
G02*
X105062500Y35100000I1999999J1D01*
G01*
X106962500Y28900000D02*
G75*
G02*
X108962500Y30900000I1999999J1D01*
G01*
%TO.C,SW3*%
X43150000Y92250000D02*
X48250000Y92250000D01*
X47050000Y88050000D02*
X52150000Y88050000D01*
X41150000Y90250000D02*
G75*
G02*
X43150000Y92250000I1999999J1D01*
G01*
X45050000Y86050000D02*
G75*
G02*
X47050000Y88050000I1999999J1D01*
G01*
%TO.C,SW20*%
X109825000Y73200000D02*
X114925000Y73200000D01*
X113725000Y69000000D02*
X118825000Y69000000D01*
X107825000Y71200000D02*
G75*
G02*
X109825000Y73200000I1999999J1D01*
G01*
X111725000Y67000000D02*
G75*
G02*
X113725000Y69000000I1999999J1D01*
G01*
%TO.C,SW30*%
X38387500Y54150000D02*
X43487500Y54150000D01*
X42287500Y49950000D02*
X47387500Y49950000D01*
X36387500Y52150000D02*
G75*
G02*
X38387500Y54150000I1999999J1D01*
G01*
X40287500Y47950000D02*
G75*
G02*
X42287500Y49950000I1999999J1D01*
G01*
%TO.C,SW28*%
X271287500Y63600000D02*
X266187500Y63600000D01*
X275187500Y59400000D02*
X270087500Y59400000D01*
X273287500Y65600000D02*
G75*
G02*
X271287500Y63600000I-1999999J-1D01*
G01*
X277187500Y61400000D02*
G75*
G02*
X275187500Y59400000I-1999999J-1D01*
G01*
%TO.C,SW41*%
X259843750Y54150000D02*
X264943750Y54150000D01*
X263743750Y49950000D02*
X268843750Y49950000D01*
X257843750Y52150000D02*
G75*
G02*
X259843750Y54150000I1999999J1D01*
G01*
X261743750Y47950000D02*
G75*
G02*
X263743750Y49950000I1999999J1D01*
G01*
%TO.C,SW59*%
X221743750Y16050000D02*
X226843750Y16050000D01*
X225643750Y11850000D02*
X230743750Y11850000D01*
X219743750Y14050000D02*
G75*
G02*
X221743750Y16050000I1999999J1D01*
G01*
X223643750Y9850000D02*
G75*
G02*
X225643750Y11850000I1999999J1D01*
G01*
%TO.C,SW57*%
X126493750Y16050000D02*
X131593750Y16050000D01*
X130393750Y11850000D02*
X135493750Y11850000D01*
X124493750Y14050000D02*
G75*
G02*
X126493750Y16050000I1999999J1D01*
G01*
X128393750Y9850000D02*
G75*
G02*
X130393750Y11850000I1999999J1D01*
G01*
%TO.C,SW19*%
X90775000Y73200000D02*
X95875000Y73200000D01*
X94675000Y69000000D02*
X99775000Y69000000D01*
X88775000Y71200000D02*
G75*
G02*
X90775000Y73200000I1999999J1D01*
G01*
X92675000Y67000000D02*
G75*
G02*
X94675000Y69000000I1999999J1D01*
G01*
%TO.C,SW15*%
X9812500Y73200000D02*
X14912500Y73200000D01*
X13712500Y69000000D02*
X18812500Y69000000D01*
X7812500Y71200000D02*
G75*
G02*
X9812500Y73200000I1999999J1D01*
G01*
X11712500Y67000000D02*
G75*
G02*
X13712500Y69000000I1999999J1D01*
G01*
%TO.C,SW50*%
X181262500Y35100000D02*
X186362500Y35100000D01*
X185162500Y30900000D02*
X190262500Y30900000D01*
X179262500Y33100000D02*
G75*
G02*
X181262500Y35100000I1999999J1D01*
G01*
X183162500Y28900000D02*
G75*
G02*
X185162500Y30900000I1999999J1D01*
G01*
%TO.C,SW31*%
X57437500Y54150000D02*
X62537500Y54150000D01*
X61337500Y49950000D02*
X66437500Y49950000D01*
X55437500Y52150000D02*
G75*
G02*
X57437500Y54150000I1999999J1D01*
G01*
X59337500Y47950000D02*
G75*
G02*
X61337500Y49950000I1999999J1D01*
G01*
%TO.C,SW54*%
X7431250Y16050000D02*
X12531250Y16050000D01*
X11331250Y11850000D02*
X16431250Y11850000D01*
X5431250Y14050000D02*
G75*
G02*
X7431250Y16050000I1999999J1D01*
G01*
X9331250Y9850000D02*
G75*
G02*
X11331250Y11850000I1999999J1D01*
G01*
%TO.C,SW47*%
X124112500Y35100000D02*
X129212500Y35100000D01*
X128012500Y30900000D02*
X133112500Y30900000D01*
X122112500Y33100000D02*
G75*
G02*
X124112500Y35100000I1999999J1D01*
G01*
X126012500Y28900000D02*
G75*
G02*
X128012500Y30900000I1999999J1D01*
G01*
%TO.C,SW5*%
X81250000Y92250000D02*
X86350000Y92250000D01*
X85150000Y88050000D02*
X90250000Y88050000D01*
X79250000Y90250000D02*
G75*
G02*
X81250000Y92250000I1999999J1D01*
G01*
X83150000Y86050000D02*
G75*
G02*
X85150000Y88050000I1999999J1D01*
G01*
%TO.C,SW4*%
X62200000Y92250000D02*
X67300000Y92250000D01*
X66100000Y88050000D02*
X71200000Y88050000D01*
X60200000Y90250000D02*
G75*
G02*
X62200000Y92250000I1999999J1D01*
G01*
X64100000Y86050000D02*
G75*
G02*
X66100000Y88050000I1999999J1D01*
G01*
%TO.C,SW49*%
X162212500Y35100000D02*
X167312500Y35100000D01*
X166112500Y30900000D02*
X171212500Y30900000D01*
X160212500Y33100000D02*
G75*
G02*
X162212500Y35100000I1999999J1D01*
G01*
X164112500Y28900000D02*
G75*
G02*
X166112500Y30900000I1999999J1D01*
G01*
%TO.C,SW45*%
X86012500Y35100000D02*
X91112500Y35100000D01*
X89912500Y30900000D02*
X95012500Y30900000D01*
X84012500Y33100000D02*
G75*
G02*
X86012500Y35100000I1999999J1D01*
G01*
X87912500Y28900000D02*
G75*
G02*
X89912500Y30900000I1999999J1D01*
G01*
%TO.C,SW44*%
X66962500Y35100000D02*
X72062500Y35100000D01*
X70862500Y30900000D02*
X75962500Y30900000D01*
X64962500Y33100000D02*
G75*
G02*
X66962500Y35100000I1999999J1D01*
G01*
X68862500Y28900000D02*
G75*
G02*
X70862500Y30900000I1999999J1D01*
G01*
%TO.C,SW34*%
X114587500Y54150000D02*
X119687500Y54150000D01*
X118487500Y49950000D02*
X123587500Y49950000D01*
X112587500Y52150000D02*
G75*
G02*
X114587500Y54150000I1999999J1D01*
G01*
X116487500Y47950000D02*
G75*
G02*
X118487500Y49950000I1999999J1D01*
G01*
%TO.C,SW22*%
X147925000Y73200000D02*
X153025000Y73200000D01*
X151825000Y69000000D02*
X156925000Y69000000D01*
X145925000Y71200000D02*
G75*
G02*
X147925000Y73200000I1999999J1D01*
G01*
X149825000Y67000000D02*
G75*
G02*
X151825000Y69000000I1999999J1D01*
G01*
%TO.C,SW58*%
X197931250Y16050000D02*
X203031250Y16050000D01*
X201831250Y11850000D02*
X206931250Y11850000D01*
X195931250Y14050000D02*
G75*
G02*
X197931250Y16050000I1999999J1D01*
G01*
X199831250Y9850000D02*
G75*
G02*
X201831250Y11850000I1999999J1D01*
G01*
%TO.C,SW12*%
X214600000Y92250000D02*
X219700000Y92250000D01*
X218500000Y88050000D02*
X223600000Y88050000D01*
X212600000Y90250000D02*
G75*
G02*
X214600000Y92250000I1999999J1D01*
G01*
X216500000Y86050000D02*
G75*
G02*
X218500000Y88050000I1999999J1D01*
G01*
%TO.C,SW29*%
X12193750Y54150000D02*
X17293750Y54150000D01*
X16093750Y49950000D02*
X21193750Y49950000D01*
X10193750Y52150000D02*
G75*
G02*
X12193750Y54150000I1999999J1D01*
G01*
X14093750Y47950000D02*
G75*
G02*
X16093750Y49950000I1999999J1D01*
G01*
%TO.C,SW2*%
X28400000Y82650000D02*
X23300000Y82650000D01*
X32300000Y78450000D02*
X27200000Y78450000D01*
X30400000Y84650000D02*
G75*
G02*
X28400000Y82650000I-1999999J-1D01*
G01*
X34300000Y80450000D02*
G75*
G02*
X32300000Y78450000I-1999999J-1D01*
G01*
%TO.C,SW17*%
X52675000Y73200000D02*
X57775000Y73200000D01*
X56575000Y69000000D02*
X61675000Y69000000D01*
X50675000Y71200000D02*
G75*
G02*
X52675000Y73200000I1999999J1D01*
G01*
X54575000Y67000000D02*
G75*
G02*
X56575000Y69000000I1999999J1D01*
G01*
%TO.C,SW27*%
X243175000Y73200000D02*
X248275000Y73200000D01*
X247075000Y69000000D02*
X252175000Y69000000D01*
X241175000Y71200000D02*
G75*
G02*
X243175000Y73200000I1999999J1D01*
G01*
X245075000Y67000000D02*
G75*
G02*
X247075000Y69000000I1999999J1D01*
G01*
%TO.C,SW14*%
X262225000Y92250000D02*
X267325000Y92250000D01*
X266125000Y88050000D02*
X271225000Y88050000D01*
X260225000Y90250000D02*
G75*
G02*
X262225000Y92250000I1999999J1D01*
G01*
X264125000Y86050000D02*
G75*
G02*
X266125000Y88050000I1999999J1D01*
G01*
%TO.C,SW52*%
X219362500Y35100000D02*
X224462500Y35100000D01*
X223262500Y30900000D02*
X228362500Y30900000D01*
X217362500Y33100000D02*
G75*
G02*
X219362500Y35100000I1999999J1D01*
G01*
X221262500Y28900000D02*
G75*
G02*
X223262500Y30900000I1999999J1D01*
G01*
%TO.C,SW48*%
X143162500Y35100000D02*
X148262500Y35100000D01*
X147062500Y30900000D02*
X152162500Y30900000D01*
X141162500Y33100000D02*
G75*
G02*
X143162500Y35100000I1999999J1D01*
G01*
X145062500Y28900000D02*
G75*
G02*
X147062500Y30900000I1999999J1D01*
G01*
%TO.C,SW53*%
X255081250Y35100000D02*
X260181250Y35100000D01*
X258981250Y30900000D02*
X264081250Y30900000D01*
X253081250Y33100000D02*
G75*
G02*
X255081250Y35100000I1999999J1D01*
G01*
X256981250Y28900000D02*
G75*
G02*
X258981250Y30900000I1999999J1D01*
G01*
%TO.C,C4*%
X94123733Y8960000D02*
X94416267Y8960000D01*
X94123733Y7940000D02*
X94416267Y7940000D01*
%TO.C,D31*%
X63637500Y48900000D02*
X63637500Y44890000D01*
X63637500Y44890000D02*
X65637500Y44890000D01*
X65637500Y48900000D02*
X65637500Y44890000D01*
%TO.C,D52*%
X225562500Y29850000D02*
X225562500Y25840000D01*
X225562500Y25840000D02*
X227562500Y25840000D01*
X227562500Y29850000D02*
X227562500Y25840000D01*
%TO.C,U2*%
X22690000Y77450000D02*
X23490000Y77450000D01*
X22690000Y74330000D02*
X23490000Y74330000D01*
X24290000Y77450000D02*
X23490000Y77450000D01*
X24290000Y74330000D02*
X23490000Y74330000D01*
X22430000Y74050000D02*
X21950000Y74050000D01*
X22190000Y74380000D01*
X22430000Y74050000D01*
G36*
X22430000Y74050000D02*
G01*
X21950000Y74050000D01*
X22190000Y74380000D01*
X22430000Y74050000D01*
G37*
%TO.C,D34*%
X120787500Y48900000D02*
X120787500Y44890000D01*
X120787500Y44890000D02*
X122787500Y44890000D01*
X122787500Y48900000D02*
X122787500Y44890000D01*
%TO.C,D8*%
X144600000Y87000000D02*
X144600000Y82990000D01*
X144600000Y82990000D02*
X146600000Y82990000D01*
X146600000Y87000000D02*
X146600000Y82990000D01*
%TO.C,D17*%
X58875000Y67950000D02*
X58875000Y63940000D01*
X58875000Y63940000D02*
X60875000Y63940000D01*
X60875000Y67950000D02*
X60875000Y63940000D01*
%TO.C,D49*%
X168412500Y29850000D02*
X168412500Y25840000D01*
X168412500Y25840000D02*
X170412500Y25840000D01*
X170412500Y29850000D02*
X170412500Y25840000D01*
%TO.C,D48*%
X149362500Y29850000D02*
X149362500Y25840000D01*
X149362500Y25840000D02*
X151362500Y25840000D01*
X151362500Y29850000D02*
X151362500Y25840000D01*
%TO.C,D32*%
X82687500Y48900000D02*
X82687500Y44890000D01*
X82687500Y44890000D02*
X84687500Y44890000D01*
X84687500Y48900000D02*
X84687500Y44890000D01*
D13*
%TO.C,D63*%
X74130000Y12713000D02*
X74130000Y12416000D01*
X74130000Y9724000D02*
X74130000Y12416000D01*
X74131000Y12714000D02*
X74130000Y12713000D01*
X74274000Y9724000D02*
X74130000Y9724000D01*
X74573500Y10663500D02*
X74980000Y11248000D01*
X74979500Y10350000D02*
X74979500Y10663500D01*
X74980000Y11680000D02*
X74980000Y11350000D01*
X74980000Y11248000D02*
X75386500Y10663500D01*
X75386500Y10663500D02*
X74573500Y10663500D01*
X75488000Y11324000D02*
X74472000Y11324000D01*
X75829000Y12709000D02*
X75830000Y12708000D01*
X75830000Y12708000D02*
X75830000Y12416000D01*
X75830000Y12416000D02*
X75830000Y9724000D01*
X75830000Y9724000D02*
X75686000Y9724000D01*
D14*
G36*
X75386500Y10663500D02*
G01*
X74573500Y10663500D01*
X74980000Y11248000D01*
X75386500Y10663500D01*
G37*
G36*
X74373000Y12571500D02*
G01*
X74003000Y12571500D01*
X74003000Y12876500D01*
X74373000Y12876500D01*
X74373000Y12571500D01*
G37*
G36*
X75957000Y12571500D02*
G01*
X75587000Y12571500D01*
X75587000Y12876500D01*
X75957000Y12876500D01*
X75957000Y12571500D01*
G37*
D12*
%TO.C,J1*%
X13530000Y90575000D02*
X13530000Y92275000D01*
X22870000Y90575000D02*
X22870000Y92275000D01*
%TO.C,D7*%
X125550000Y87000000D02*
X125550000Y82990000D01*
X125550000Y82990000D02*
X127550000Y82990000D01*
X127550000Y87000000D02*
X127550000Y82990000D01*
%TO.C,D12*%
X220800000Y87000000D02*
X220800000Y82990000D01*
X220800000Y82990000D02*
X222800000Y82990000D01*
X222800000Y87000000D02*
X222800000Y82990000D01*
%TO.C,D27*%
X249375000Y67950000D02*
X249375000Y63940000D01*
X249375000Y63940000D02*
X251375000Y63940000D01*
X251375000Y67950000D02*
X251375000Y63940000D01*
D13*
%TO.C,U3*%
X86760000Y14480000D02*
X91860000Y14480000D01*
X86760000Y10380000D02*
X86760000Y14480000D01*
X91860000Y14480000D02*
X91860000Y13230000D01*
X91860000Y10380000D02*
X86760000Y10380000D01*
X91860000Y10380000D02*
X91860000Y11630000D01*
X91810000Y11630000D02*
G75*
G02*
X91810000Y13230000I375000J800000D01*
G01*
X92510000Y9930000D02*
G75*
G02*
X92170000Y9930000I-170000J0D01*
G01*
X92170000Y9930000D02*
G75*
G02*
X92510000Y9930000I170000J0D01*
G01*
D12*
%TO.C,D20*%
X116025000Y67950000D02*
X116025000Y63940000D01*
X116025000Y63940000D02*
X118025000Y63940000D01*
X118025000Y67950000D02*
X118025000Y63940000D01*
%TO.C,D51*%
X206512500Y29850000D02*
X206512500Y25840000D01*
X206512500Y25840000D02*
X208512500Y25840000D01*
X208512500Y29850000D02*
X208512500Y25840000D01*
%TO.C,D40*%
X235087500Y48900000D02*
X235087500Y44890000D01*
X235087500Y44890000D02*
X237087500Y44890000D01*
X237087500Y48900000D02*
X237087500Y44890000D01*
%TO.C,C1*%
X85255000Y12262233D02*
X85255000Y12554767D01*
X86275000Y12262233D02*
X86275000Y12554767D01*
%TO.C,D4*%
X68400000Y87000000D02*
X68400000Y82990000D01*
X68400000Y82990000D02*
X70400000Y82990000D01*
X70400000Y87000000D02*
X70400000Y82990000D01*
%TO.C,D42*%
X266043750Y48900000D02*
X266043750Y44890000D01*
X266043750Y44890000D02*
X268043750Y44890000D01*
X268043750Y48900000D02*
X268043750Y44890000D01*
%TO.C,D6*%
X106500000Y87000000D02*
X106500000Y82990000D01*
X106500000Y82990000D02*
X108500000Y82990000D01*
X108500000Y87000000D02*
X108500000Y82990000D01*
D15*
%TO.C,U1*%
X99507200Y2878600D02*
X99507200Y15878600D01*
X117507200Y15878600D02*
X99507200Y15878600D01*
X117507200Y2878600D02*
X99507200Y2878600D01*
X117507200Y2878600D02*
X117507200Y15878600D01*
D12*
%TO.C,J6*%
X107039800Y38175200D02*
X107039800Y40675200D01*
X108089800Y38175200D02*
X107039800Y38175200D01*
X108089800Y37185200D02*
X108089800Y38175200D01*
X110089800Y42645200D02*
X108209800Y42645200D01*
X110209800Y38175200D02*
X111259800Y38175200D01*
X111259800Y38175200D02*
X111259800Y40675200D01*
%TO.C,R4*%
X85415000Y6407064D02*
X85415000Y5952936D01*
X86885000Y6407064D02*
X86885000Y5952936D01*
%TO.C,D54*%
X13631250Y10800000D02*
X13631250Y6790000D01*
X13631250Y6790000D02*
X15631250Y6790000D01*
X15631250Y10800000D02*
X15631250Y6790000D01*
%TO.C,D33*%
X101737500Y48900000D02*
X101737500Y44890000D01*
X101737500Y44890000D02*
X103737500Y44890000D01*
X103737500Y48900000D02*
X103737500Y44890000D01*
%TO.C,D9*%
X163650000Y87000000D02*
X163650000Y82990000D01*
X163650000Y82990000D02*
X165650000Y82990000D01*
X165650000Y87000000D02*
X165650000Y82990000D01*
%TO.C,D5*%
X87450000Y87000000D02*
X87450000Y82990000D01*
X87450000Y82990000D02*
X89450000Y82990000D01*
X89450000Y87000000D02*
X89450000Y82990000D01*
%TO.C,D36*%
X158887500Y48900000D02*
X158887500Y44890000D01*
X158887500Y44890000D02*
X160887500Y44890000D01*
X160887500Y48900000D02*
X160887500Y44890000D01*
%TO.C,Y1*%
X93875000Y4890000D02*
X93875000Y6240000D01*
X95625000Y4890000D02*
X95625000Y6240000D01*
%TO.C,D11*%
X201750000Y87000000D02*
X201750000Y82990000D01*
X201750000Y82990000D02*
X203750000Y82990000D01*
X203750000Y87000000D02*
X203750000Y82990000D01*
%TO.C,U5*%
X93724000Y12524600D02*
X94524000Y12524600D01*
X93724000Y9404600D02*
X94524000Y9404600D01*
X95324000Y12524600D02*
X94524000Y12524600D01*
X95324000Y9404600D02*
X94524000Y9404600D01*
X93464000Y9124600D02*
X92984000Y9124600D01*
X93224000Y9454600D01*
X93464000Y9124600D01*
G36*
X93464000Y9124600D02*
G01*
X92984000Y9124600D01*
X93224000Y9454600D01*
X93464000Y9124600D01*
G37*
%TO.C,D16*%
X39825000Y67950000D02*
X39825000Y63940000D01*
X39825000Y63940000D02*
X41825000Y63940000D01*
X41825000Y67950000D02*
X41825000Y63940000D01*
%TO.C,C2*%
X87395000Y6229733D02*
X87395000Y6522267D01*
X88415000Y6229733D02*
X88415000Y6522267D01*
%TO.C,D39*%
X216037500Y48900000D02*
X216037500Y44890000D01*
X216037500Y44890000D02*
X218037500Y44890000D01*
X218037500Y48900000D02*
X218037500Y44890000D01*
%TO.C,D10*%
X182700000Y87000000D02*
X182700000Y82990000D01*
X182700000Y82990000D02*
X184700000Y82990000D01*
X184700000Y87000000D02*
X184700000Y82990000D01*
%TO.C,D19*%
X96975000Y67950000D02*
X96975000Y63940000D01*
X96975000Y63940000D02*
X98975000Y63940000D01*
X98975000Y67950000D02*
X98975000Y63940000D01*
%TO.C,D46*%
X111262500Y29850000D02*
X111262500Y25840000D01*
X111262500Y25840000D02*
X113262500Y25840000D01*
X113262500Y29850000D02*
X113262500Y25840000D01*
%TO.C,D37*%
X177937500Y48900000D02*
X177937500Y44890000D01*
X177937500Y44890000D02*
X179937500Y44890000D01*
X179937500Y48900000D02*
X179937500Y44890000D01*
%TO.C,D56*%
X61256250Y10800000D02*
X61256250Y6790000D01*
X61256250Y6790000D02*
X63256250Y6790000D01*
X63256250Y10800000D02*
X63256250Y6790000D01*
%TO.C,D26*%
X230325000Y67950000D02*
X230325000Y63940000D01*
X230325000Y63940000D02*
X232325000Y63940000D01*
X232325000Y67950000D02*
X232325000Y63940000D01*
%TO.C,D25*%
X211275000Y67950000D02*
X211275000Y63940000D01*
X211275000Y63940000D02*
X213275000Y63940000D01*
X213275000Y67950000D02*
X213275000Y63940000D01*
%TO.C,D58*%
X204131250Y10800000D02*
X204131250Y6790000D01*
X204131250Y6790000D02*
X206131250Y6790000D01*
X206131250Y10800000D02*
X206131250Y6790000D01*
%TO.C,D2*%
X24100000Y83700000D02*
X24100000Y87710000D01*
X26100000Y87710000D02*
X24100000Y87710000D01*
X26100000Y83700000D02*
X26100000Y87710000D01*
%TO.C,D35*%
X133637500Y45600000D02*
X133637500Y49610000D01*
X135637500Y49610000D02*
X133637500Y49610000D01*
X135637500Y45600000D02*
X135637500Y49610000D01*
%TO.C,D50*%
X187462500Y29850000D02*
X187462500Y25840000D01*
X187462500Y25840000D02*
X189462500Y25840000D01*
X189462500Y29850000D02*
X189462500Y25840000D01*
%TO.C,D24*%
X192225000Y67950000D02*
X192225000Y63940000D01*
X192225000Y63940000D02*
X194225000Y63940000D01*
X194225000Y67950000D02*
X194225000Y63940000D01*
%TO.C,D41*%
X23156250Y29850000D02*
X23156250Y25840000D01*
X23156250Y25840000D02*
X25156250Y25840000D01*
X25156250Y29850000D02*
X25156250Y25840000D01*
%TO.C,D45*%
X92212500Y29850000D02*
X92212500Y25840000D01*
X92212500Y25840000D02*
X94212500Y25840000D01*
X94212500Y29850000D02*
X94212500Y25840000D01*
%TO.C,D18*%
X77925000Y67950000D02*
X77925000Y63940000D01*
X77925000Y63940000D02*
X79925000Y63940000D01*
X79925000Y67950000D02*
X79925000Y63940000D01*
%TO.C,D21*%
X135075000Y67950000D02*
X135075000Y63940000D01*
X135075000Y63940000D02*
X137075000Y63940000D01*
X137075000Y67950000D02*
X137075000Y63940000D01*
%TO.C,R2*%
X8819076Y92984500D02*
X9328524Y92984500D01*
X8819076Y91939500D02*
X9328524Y91939500D01*
%TO.C,Q1*%
X71332800Y12717500D02*
X71982800Y12717500D01*
X71332800Y9597500D02*
X71982800Y9597500D01*
X72632800Y12717500D02*
X71982800Y12717500D01*
X72632800Y9597500D02*
X71982800Y9597500D01*
X71060300Y9317500D02*
X70580300Y9317500D01*
X70820300Y9647500D01*
X71060300Y9317500D01*
G36*
X71060300Y9317500D02*
G01*
X70580300Y9317500D01*
X70820300Y9647500D01*
X71060300Y9317500D01*
G37*
%TO.C,D43*%
X54112500Y29850000D02*
X54112500Y25840000D01*
X54112500Y25840000D02*
X56112500Y25840000D01*
X56112500Y29850000D02*
X56112500Y25840000D01*
%TO.C,D3*%
X49350000Y87000000D02*
X49350000Y82990000D01*
X49350000Y82990000D02*
X51350000Y82990000D01*
X51350000Y87000000D02*
X51350000Y82990000D01*
%TO.C,D47*%
X130312500Y29850000D02*
X130312500Y25840000D01*
X130312500Y25840000D02*
X132312500Y25840000D01*
X132312500Y29850000D02*
X132312500Y25840000D01*
%TO.C,D60*%
X251756250Y10800000D02*
X251756250Y6790000D01*
X251756250Y6790000D02*
X253756250Y6790000D01*
X253756250Y10800000D02*
X253756250Y6790000D01*
%TO.C,C3*%
X94390867Y13963800D02*
X94098333Y13963800D01*
X94390867Y12943800D02*
X94098333Y12943800D01*
%TO.C,D59*%
X227943750Y10800000D02*
X227943750Y6790000D01*
X227943750Y6790000D02*
X229943750Y6790000D01*
X229943750Y10800000D02*
X229943750Y6790000D01*
%TO.C,R1*%
X8819076Y91485900D02*
X9328524Y91485900D01*
X8819076Y90440900D02*
X9328524Y90440900D01*
%TO.C,D38*%
X196987500Y48900000D02*
X196987500Y44890000D01*
X196987500Y44890000D02*
X198987500Y44890000D01*
X198987500Y48900000D02*
X198987500Y44890000D01*
%TO.C,D28*%
X266987500Y64650000D02*
X266987500Y68660000D01*
X268987500Y68660000D02*
X266987500Y68660000D01*
X268987500Y64650000D02*
X268987500Y68660000D01*
%TO.C,D22*%
X154125000Y67950000D02*
X154125000Y63940000D01*
X154125000Y63940000D02*
X156125000Y63940000D01*
X156125000Y67950000D02*
X156125000Y63940000D01*
%TO.C,D13*%
X239850000Y87000000D02*
X239850000Y82990000D01*
X239850000Y82990000D02*
X241850000Y82990000D01*
X241850000Y87000000D02*
X241850000Y82990000D01*
%TO.C,D1*%
X5050000Y83700000D02*
X5050000Y87710000D01*
X7050000Y87710000D02*
X5050000Y87710000D01*
X7050000Y83700000D02*
X7050000Y87710000D01*
%TO.C,D61*%
X275568750Y10800000D02*
X275568750Y6790000D01*
X275568750Y6790000D02*
X277568750Y6790000D01*
X277568750Y10800000D02*
X277568750Y6790000D01*
%TO.C,D44*%
X73162500Y29850000D02*
X73162500Y25840000D01*
X73162500Y25840000D02*
X75162500Y25840000D01*
X75162500Y29850000D02*
X75162500Y25840000D01*
%TO.C,D57*%
X132693750Y10800000D02*
X132693750Y6790000D01*
X132693750Y6790000D02*
X134693750Y6790000D01*
X134693750Y10800000D02*
X134693750Y6790000D01*
%TO.C,D14*%
X268425000Y87000000D02*
X268425000Y82990000D01*
X268425000Y82990000D02*
X270425000Y82990000D01*
X270425000Y87000000D02*
X270425000Y82990000D01*
%TO.C,D23*%
X173175000Y67950000D02*
X173175000Y63940000D01*
X173175000Y63940000D02*
X175175000Y63940000D01*
X175175000Y67950000D02*
X175175000Y63940000D01*
%TO.C,R7*%
X28403924Y92197100D02*
X27894476Y92197100D01*
X28403924Y91152100D02*
X27894476Y91152100D01*
%TO.C,D55*%
X37443750Y10800000D02*
X37443750Y6790000D01*
X37443750Y6790000D02*
X39443750Y6790000D01*
X39443750Y10800000D02*
X39443750Y6790000D01*
%TO.C,R9*%
X114427500Y39595276D02*
X114427500Y40104724D01*
X115472500Y39595276D02*
X115472500Y40104724D01*
%TO.C,D30*%
X44587500Y48900000D02*
X44587500Y44890000D01*
X44587500Y44890000D02*
X46587500Y44890000D01*
X46587500Y48900000D02*
X46587500Y44890000D01*
%TO.C,R8*%
X112897500Y40104724D02*
X112897500Y39595276D01*
X113942500Y40104724D02*
X113942500Y39595276D01*
%TO.C,R3*%
X88912500Y6623224D02*
X88912500Y6113776D01*
X89957500Y6623224D02*
X89957500Y6113776D01*
%TO.C,D53*%
X261281250Y29850000D02*
X261281250Y25840000D01*
X261281250Y25840000D02*
X263281250Y25840000D01*
X263281250Y29850000D02*
X263281250Y25840000D01*
%TO.C,D15*%
X16012500Y67950000D02*
X16012500Y63940000D01*
X16012500Y63940000D02*
X18012500Y63940000D01*
X18012500Y67950000D02*
X18012500Y63940000D01*
%TO.C,D29*%
X18393750Y48900000D02*
X18393750Y44890000D01*
X18393750Y44890000D02*
X20393750Y44890000D01*
X20393750Y48900000D02*
X20393750Y44890000D01*
%TD*%
%LPC*%
D16*
%TO.C,*%
X109092200Y13578600D03*
%TD*%
D17*
%TO.C,SW33*%
X92552500Y49790000D03*
D18*
X94557500Y47250000D03*
D19*
X99637500Y47250000D03*
D18*
X104717500Y47250000D03*
D17*
X105479500Y52330000D03*
D20*
X95827500Y49790000D03*
X102177500Y52330000D03*
%TD*%
D17*
%TO.C,SW7*%
X116365000Y87890000D03*
D18*
X118370000Y85350000D03*
D19*
X123450000Y85350000D03*
D18*
X128530000Y85350000D03*
D17*
X129292000Y90430000D03*
D20*
X119640000Y87890000D03*
X125990000Y90430000D03*
%TD*%
D17*
%TO.C,SW21*%
X125890000Y68840000D03*
D18*
X127895000Y66300000D03*
D19*
X132975000Y66300000D03*
D18*
X138055000Y66300000D03*
D17*
X138817000Y71380000D03*
D20*
X129165000Y68840000D03*
X135515000Y71380000D03*
%TD*%
D17*
%TO.C,SW38*%
X187802500Y49790000D03*
D18*
X189807500Y47250000D03*
D19*
X194887500Y47250000D03*
D18*
X199967500Y47250000D03*
D17*
X200729500Y52330000D03*
D20*
X191077500Y49790000D03*
X197427500Y52330000D03*
%TD*%
D17*
%TO.C,SW23*%
X163990000Y68840000D03*
D18*
X165995000Y66300000D03*
D19*
X171075000Y66300000D03*
D18*
X176155000Y66300000D03*
D17*
X176917000Y71380000D03*
D20*
X167265000Y68840000D03*
X173615000Y71380000D03*
%TD*%
D16*
%TO.C,*%
X110362200Y13578600D03*
%TD*%
D21*
%TO.C,REF\u002A\u002A*%
X252005750Y55089950D03*
D22*
X252005750Y39879950D03*
D21*
X275881750Y55089950D03*
D22*
X275881750Y39879950D03*
%TD*%
D17*
%TO.C,SW11*%
X192565000Y87890000D03*
D18*
X194570000Y85350000D03*
D19*
X199650000Y85350000D03*
D18*
X204730000Y85350000D03*
D17*
X205492000Y90430000D03*
D20*
X195840000Y87890000D03*
X202190000Y90430000D03*
%TD*%
D23*
%TO.C,J3*%
X2040000Y57730000D03*
D24*
X2040000Y55190000D03*
X2040000Y52650000D03*
X2040000Y50110000D03*
%TD*%
D25*
%TO.C,SW1*%
X16235000Y82810000D03*
D18*
X14230000Y85350000D03*
D19*
X9150000Y85350000D03*
D18*
X4070000Y85350000D03*
D25*
X3308000Y80270000D03*
D20*
X12960000Y82810000D03*
X6610000Y80270000D03*
%TD*%
D26*
%TO.C,HOLE*%
X1461100Y38100000D03*
%TD*%
D17*
%TO.C,SW24*%
X183040000Y68840000D03*
D18*
X185045000Y66300000D03*
D19*
X190125000Y66300000D03*
D18*
X195205000Y66300000D03*
D17*
X195967000Y71380000D03*
D20*
X186315000Y68840000D03*
X192665000Y71380000D03*
%TD*%
D17*
%TO.C,SW60*%
X242571250Y11690000D03*
D18*
X244576250Y9150000D03*
D19*
X249656250Y9150000D03*
D18*
X254736250Y9150000D03*
D17*
X255498250Y14230000D03*
D20*
X245846250Y11690000D03*
X252196250Y14230000D03*
%TD*%
D17*
%TO.C,SW39*%
X206852500Y49790000D03*
D18*
X208857500Y47250000D03*
D19*
X213937500Y47250000D03*
D18*
X219017500Y47250000D03*
D17*
X219779500Y52330000D03*
D20*
X210127500Y49790000D03*
X216477500Y52330000D03*
%TD*%
D26*
%TO.C,HOLE*%
X283540000Y38100000D03*
%TD*%
D17*
%TO.C,SW8*%
X135415000Y87890000D03*
D18*
X137420000Y85350000D03*
D19*
X142500000Y85350000D03*
D18*
X147580000Y85350000D03*
D17*
X148342000Y90430000D03*
D20*
X138690000Y87890000D03*
X145040000Y90430000D03*
%TD*%
D17*
%TO.C,SW37*%
X168752500Y49790000D03*
D18*
X170757500Y47250000D03*
D19*
X175837500Y47250000D03*
D18*
X180917500Y47250000D03*
D17*
X181679500Y52330000D03*
D20*
X172027500Y49790000D03*
X178377500Y52330000D03*
%TD*%
D16*
%TO.C,*%
X101807200Y5568850D03*
%TD*%
D17*
%TO.C,SW55*%
X28258750Y11690000D03*
D18*
X30263750Y9150000D03*
D19*
X35343750Y9150000D03*
D18*
X40423750Y9150000D03*
D17*
X41185750Y14230000D03*
D20*
X31533750Y11690000D03*
X37883750Y14230000D03*
%TD*%
D17*
%TO.C,SW61*%
X266383750Y11690000D03*
D18*
X268388750Y9150000D03*
D19*
X273468750Y9150000D03*
D18*
X278548750Y9150000D03*
D17*
X279310750Y14230000D03*
D20*
X269658750Y11690000D03*
X276008750Y14230000D03*
%TD*%
D17*
%TO.C,SW56*%
X52071250Y11690000D03*
D18*
X54076250Y9150000D03*
D19*
X59156250Y9150000D03*
D18*
X64236250Y9150000D03*
D17*
X64998250Y14230000D03*
D20*
X55346250Y11690000D03*
X61696250Y14230000D03*
%TD*%
D27*
%TO.C,SW62*%
X28665000Y47760000D03*
X28665000Y50760000D03*
%TD*%
D17*
%TO.C,SW43*%
X44927500Y30740000D03*
D18*
X46932500Y28200000D03*
D19*
X52012500Y28200000D03*
D18*
X57092500Y28200000D03*
D17*
X57854500Y33280000D03*
D20*
X48202500Y30740000D03*
X54552500Y33280000D03*
%TD*%
D17*
%TO.C,SW26*%
X221140000Y68840000D03*
D18*
X223145000Y66300000D03*
D19*
X228225000Y66300000D03*
D18*
X233305000Y66300000D03*
D17*
X234067000Y71380000D03*
D20*
X224415000Y68840000D03*
X230765000Y71380000D03*
%TD*%
D17*
%TO.C,SW13*%
X230665000Y87890000D03*
D18*
X232670000Y85350000D03*
D19*
X237750000Y85350000D03*
D18*
X242830000Y85350000D03*
D17*
X243592000Y90430000D03*
D20*
X233940000Y87890000D03*
X240290000Y90430000D03*
%TD*%
D17*
%TO.C,SW40*%
X225902500Y49790000D03*
D18*
X227907500Y47250000D03*
D19*
X232987500Y47250000D03*
D18*
X238067500Y47250000D03*
D17*
X238829500Y52330000D03*
D20*
X229177500Y49790000D03*
X235527500Y52330000D03*
%TD*%
D16*
%TO.C,*%
X101807200Y8108850D03*
%TD*%
D17*
%TO.C,SW25*%
X202090000Y68840000D03*
D18*
X204095000Y66300000D03*
D19*
X209175000Y66300000D03*
D18*
X214255000Y66300000D03*
D17*
X215017000Y71380000D03*
D20*
X205365000Y68840000D03*
X211715000Y71380000D03*
%TD*%
D17*
%TO.C,SW18*%
X68740000Y68840000D03*
D18*
X70745000Y66300000D03*
D19*
X75825000Y66300000D03*
D18*
X80905000Y66300000D03*
D17*
X81667000Y71380000D03*
D20*
X72015000Y68840000D03*
X78365000Y71380000D03*
%TD*%
D17*
%TO.C,SW16*%
X30640000Y68840000D03*
D18*
X32645000Y66300000D03*
D19*
X37725000Y66300000D03*
D18*
X42805000Y66300000D03*
D17*
X43567000Y71380000D03*
D20*
X33915000Y68840000D03*
X40265000Y71380000D03*
%TD*%
D28*
%TO.C,J5*%
X118160000Y27980000D03*
D29*
X118160000Y29250000D03*
%TD*%
D30*
%TO.C,HOLE*%
X128200000Y47600000D03*
%TD*%
D28*
%TO.C,J4*%
X37690000Y91700000D03*
D29*
X37690000Y90430000D03*
X37690000Y89160000D03*
%TD*%
D17*
%TO.C,SW9*%
X154465000Y87890000D03*
D18*
X156470000Y85350000D03*
D19*
X161550000Y85350000D03*
D18*
X166630000Y85350000D03*
D17*
X167392000Y90430000D03*
D20*
X157740000Y87890000D03*
X164090000Y90430000D03*
%TD*%
D17*
%TO.C,SW42*%
X13971250Y30740000D03*
D18*
X15976250Y28200000D03*
D19*
X21056250Y28200000D03*
D18*
X26136250Y28200000D03*
D17*
X26898250Y33280000D03*
D20*
X17246250Y30740000D03*
X23596250Y33280000D03*
%TD*%
D16*
%TO.C,*%
X111632200Y13578600D03*
%TD*%
D17*
%TO.C,SW32*%
X73502500Y49790000D03*
D18*
X75507500Y47250000D03*
D19*
X80587500Y47250000D03*
D18*
X85667500Y47250000D03*
D17*
X86429500Y52330000D03*
D20*
X76777500Y49790000D03*
X83127500Y52330000D03*
%TD*%
D25*
%TO.C,SW35*%
X144822500Y44710000D03*
D18*
X142817500Y47250000D03*
D19*
X137737500Y47250000D03*
D18*
X132657500Y47250000D03*
D25*
X131895500Y42170000D03*
D20*
X141547500Y44710000D03*
X135197500Y42170000D03*
%TD*%
D17*
%TO.C,SW51*%
X197327500Y30740000D03*
D18*
X199332500Y28200000D03*
D19*
X204412500Y28200000D03*
D18*
X209492500Y28200000D03*
D17*
X210254500Y33280000D03*
D20*
X200602500Y30740000D03*
X206952500Y33280000D03*
%TD*%
D17*
%TO.C,SW6*%
X97315000Y87890000D03*
D18*
X99320000Y85350000D03*
D19*
X104400000Y85350000D03*
D18*
X109480000Y85350000D03*
D17*
X110242000Y90430000D03*
D20*
X100590000Y87890000D03*
X106940000Y90430000D03*
%TD*%
D16*
%TO.C,*%
X101807200Y9378850D03*
%TD*%
D17*
%TO.C,SW10*%
X173515000Y87890000D03*
D18*
X175520000Y85350000D03*
D19*
X180600000Y85350000D03*
D18*
X185680000Y85350000D03*
D17*
X186442000Y90430000D03*
D20*
X176790000Y87890000D03*
X183140000Y90430000D03*
%TD*%
D17*
%TO.C,SW36*%
X149702500Y49790000D03*
D18*
X151707500Y47250000D03*
D19*
X156787500Y47250000D03*
D18*
X161867500Y47250000D03*
D17*
X162629500Y52330000D03*
D20*
X152977500Y49790000D03*
X159327500Y52330000D03*
%TD*%
D21*
%TO.C,REF\u002A\u002A*%
X180593750Y2165000D03*
D22*
X180593750Y17375000D03*
D21*
X80593750Y2165000D03*
D22*
X80593750Y17375000D03*
%TD*%
D17*
%TO.C,SW46*%
X102077500Y30740000D03*
D18*
X104082500Y28200000D03*
D19*
X109162500Y28200000D03*
D18*
X114242500Y28200000D03*
D17*
X115004500Y33280000D03*
D20*
X105352500Y30740000D03*
X111702500Y33280000D03*
%TD*%
D17*
%TO.C,SW3*%
X40165000Y87890000D03*
D18*
X42170000Y85350000D03*
D19*
X47250000Y85350000D03*
D18*
X52330000Y85350000D03*
D17*
X53092000Y90430000D03*
D20*
X43440000Y87890000D03*
X49790000Y90430000D03*
%TD*%
D21*
%TO.C,REF\u002A\u002A*%
X254387000Y92335000D03*
D22*
X254387000Y77125000D03*
D21*
X278263000Y92335000D03*
D22*
X278263000Y77125000D03*
%TD*%
D16*
%TO.C,*%
X101807200Y11918850D03*
%TD*%
D17*
%TO.C,SW20*%
X106840000Y68840000D03*
D18*
X108845000Y66300000D03*
D19*
X113925000Y66300000D03*
D18*
X119005000Y66300000D03*
D17*
X119767000Y71380000D03*
D20*
X110115000Y68840000D03*
X116465000Y71380000D03*
%TD*%
D17*
%TO.C,SW30*%
X35402500Y49790000D03*
D18*
X37407500Y47250000D03*
D19*
X42487500Y47250000D03*
D18*
X47567500Y47250000D03*
D17*
X48329500Y52330000D03*
D20*
X38677500Y49790000D03*
X45027500Y52330000D03*
%TD*%
D21*
%TO.C,REF\u002A\u002A*%
X9118250Y35185000D03*
D22*
X9118250Y19975000D03*
D21*
X32994250Y35185000D03*
D22*
X32994250Y19975000D03*
%TD*%
D25*
%TO.C,SW28*%
X278172500Y63760000D03*
D18*
X276167500Y66300000D03*
D19*
X271087500Y66300000D03*
D18*
X266007500Y66300000D03*
D25*
X265245500Y61220000D03*
D20*
X274897500Y63760000D03*
X268547500Y61220000D03*
%TD*%
D17*
%TO.C,SW41*%
X256858750Y49790000D03*
D18*
X258863750Y47250000D03*
D19*
X263943750Y47250000D03*
D18*
X269023750Y47250000D03*
D17*
X269785750Y52330000D03*
D20*
X260133750Y49790000D03*
X266483750Y52330000D03*
%TD*%
D17*
%TO.C,SW59*%
X218758750Y11690000D03*
D18*
X220763750Y9150000D03*
D19*
X225843750Y9150000D03*
D18*
X230923750Y9150000D03*
D17*
X231685750Y14230000D03*
D20*
X222033750Y11690000D03*
X228383750Y14230000D03*
%TD*%
D17*
%TO.C,SW57*%
X123508750Y11690000D03*
D18*
X125513750Y9150000D03*
D19*
X130593750Y9150000D03*
D18*
X135673750Y9150000D03*
D17*
X136435750Y14230000D03*
D20*
X126783750Y11690000D03*
X133133750Y14230000D03*
%TD*%
D17*
%TO.C,SW19*%
X87790000Y68840000D03*
D18*
X89795000Y66300000D03*
D19*
X94875000Y66300000D03*
D18*
X99955000Y66300000D03*
D17*
X100717000Y71380000D03*
D20*
X91065000Y68840000D03*
X97415000Y71380000D03*
%TD*%
D31*
%TO.C,HOLE*%
X25200000Y66600000D03*
%TD*%
D17*
%TO.C,SW15*%
X6827500Y68840000D03*
D18*
X8832500Y66300000D03*
D19*
X13912500Y66300000D03*
D18*
X18992500Y66300000D03*
D17*
X19754500Y71380000D03*
D20*
X10102500Y68840000D03*
X16452500Y71380000D03*
%TD*%
D17*
%TO.C,SW50*%
X178277500Y30740000D03*
D18*
X180282500Y28200000D03*
D19*
X185362500Y28200000D03*
D18*
X190442500Y28200000D03*
D17*
X191204500Y33280000D03*
D20*
X181552500Y30740000D03*
X187902500Y33280000D03*
%TD*%
D17*
%TO.C,SW31*%
X54452500Y49790000D03*
D18*
X56457500Y47250000D03*
D19*
X61537500Y47250000D03*
D18*
X66617500Y47250000D03*
D17*
X67379500Y52330000D03*
D20*
X57727500Y49790000D03*
X64077500Y52330000D03*
%TD*%
D17*
%TO.C,SW54*%
X4446250Y11690000D03*
D18*
X6451250Y9150000D03*
D19*
X11531250Y9150000D03*
D18*
X16611250Y9150000D03*
D17*
X17373250Y14230000D03*
D20*
X7721250Y11690000D03*
X14071250Y14230000D03*
%TD*%
D17*
%TO.C,SW47*%
X121127500Y30740000D03*
D18*
X123132500Y28200000D03*
D19*
X128212500Y28200000D03*
D18*
X133292500Y28200000D03*
D17*
X134054500Y33280000D03*
D20*
X124402500Y30740000D03*
X130752500Y33280000D03*
%TD*%
D17*
%TO.C,SW5*%
X78265000Y87890000D03*
D18*
X80270000Y85350000D03*
D19*
X85350000Y85350000D03*
D18*
X90430000Y85350000D03*
D17*
X91192000Y90430000D03*
D20*
X81540000Y87890000D03*
X87890000Y90430000D03*
%TD*%
D17*
%TO.C,SW4*%
X59215000Y87890000D03*
D18*
X61220000Y85350000D03*
D19*
X66300000Y85350000D03*
D18*
X71380000Y85350000D03*
D17*
X72142000Y90430000D03*
D20*
X62490000Y87890000D03*
X68840000Y90430000D03*
%TD*%
D32*
%TO.C,HOLE*%
X260050000Y66700000D03*
%TD*%
D17*
%TO.C,SW49*%
X159227500Y30740000D03*
D18*
X161232500Y28200000D03*
D19*
X166312500Y28200000D03*
D18*
X171392500Y28200000D03*
D17*
X172154500Y33280000D03*
D20*
X162502500Y30740000D03*
X168852500Y33280000D03*
%TD*%
D17*
%TO.C,SW45*%
X83027500Y30740000D03*
D18*
X85032500Y28200000D03*
D19*
X90112500Y28200000D03*
D18*
X95192500Y28200000D03*
D17*
X95954500Y33280000D03*
D20*
X86302500Y30740000D03*
X92652500Y33280000D03*
%TD*%
D17*
%TO.C,SW44*%
X63977500Y30740000D03*
D18*
X65982500Y28200000D03*
D19*
X71062500Y28200000D03*
D18*
X76142500Y28200000D03*
D17*
X76904500Y33280000D03*
D20*
X67252500Y30740000D03*
X73602500Y33280000D03*
%TD*%
D17*
%TO.C,SW34*%
X111602500Y49790000D03*
D18*
X113607500Y47250000D03*
D19*
X118687500Y47250000D03*
D18*
X123767500Y47250000D03*
D17*
X124529500Y52330000D03*
D20*
X114877500Y49790000D03*
X121227500Y52330000D03*
%TD*%
D17*
%TO.C,SW22*%
X144940000Y68840000D03*
D18*
X146945000Y66300000D03*
D19*
X152025000Y66300000D03*
D18*
X157105000Y66300000D03*
D17*
X157867000Y71380000D03*
D20*
X148215000Y68840000D03*
X154565000Y71380000D03*
%TD*%
D16*
%TO.C,*%
X101807200Y6838850D03*
%TD*%
D17*
%TO.C,SW58*%
X194946250Y11690000D03*
D18*
X196951250Y9150000D03*
D19*
X202031250Y9150000D03*
D18*
X207111250Y9150000D03*
D17*
X207873250Y14230000D03*
D20*
X198221250Y11690000D03*
X204571250Y14230000D03*
%TD*%
D17*
%TO.C,SW12*%
X211615000Y87890000D03*
D18*
X213620000Y85350000D03*
D19*
X218700000Y85350000D03*
D18*
X223780000Y85350000D03*
D17*
X224542000Y90430000D03*
D20*
X214890000Y87890000D03*
X221240000Y90430000D03*
%TD*%
D16*
%TO.C,*%
X99507200Y11283600D03*
%TD*%
D17*
%TO.C,SW29*%
X9208750Y49790000D03*
D18*
X11213750Y47250000D03*
D19*
X16293750Y47250000D03*
D18*
X21373750Y47250000D03*
D17*
X22135750Y52330000D03*
D20*
X12483750Y49790000D03*
X18833750Y52330000D03*
%TD*%
D25*
%TO.C,SW2*%
X35285000Y82810000D03*
D18*
X33280000Y85350000D03*
D19*
X28200000Y85350000D03*
D18*
X23120000Y85350000D03*
D25*
X22358000Y80270000D03*
D20*
X32010000Y82810000D03*
X25660000Y80270000D03*
%TD*%
D17*
%TO.C,SW17*%
X49690000Y68840000D03*
D18*
X51695000Y66300000D03*
D19*
X56775000Y66300000D03*
D18*
X61855000Y66300000D03*
D17*
X62617000Y71380000D03*
D20*
X52965000Y68840000D03*
X59315000Y71380000D03*
%TD*%
D16*
%TO.C,*%
X101807200Y13188600D03*
%TD*%
D17*
%TO.C,SW27*%
X240190000Y68840000D03*
D18*
X242195000Y66300000D03*
D19*
X247275000Y66300000D03*
D18*
X252355000Y66300000D03*
D17*
X253117000Y71380000D03*
D20*
X243465000Y68840000D03*
X249815000Y71380000D03*
%TD*%
D17*
%TO.C,SW14*%
X259240000Y87890000D03*
D18*
X261245000Y85350000D03*
D19*
X266325000Y85350000D03*
D18*
X271405000Y85350000D03*
D17*
X272167000Y90430000D03*
D20*
X262515000Y87890000D03*
X268865000Y90430000D03*
%TD*%
D17*
%TO.C,SW52*%
X216377500Y30740000D03*
D18*
X218382500Y28200000D03*
D19*
X223462500Y28200000D03*
D18*
X228542500Y28200000D03*
D17*
X229304500Y33280000D03*
D20*
X219652500Y30740000D03*
X226002500Y33280000D03*
%TD*%
D17*
%TO.C,SW48*%
X140177500Y30740000D03*
D18*
X142182500Y28200000D03*
D19*
X147262500Y28200000D03*
D18*
X152342500Y28200000D03*
D17*
X153104500Y33280000D03*
D20*
X143452500Y30740000D03*
X149802500Y33280000D03*
%TD*%
D16*
%TO.C,*%
X112897200Y13578600D03*
%TD*%
D17*
%TO.C,SW53*%
X252096250Y30740000D03*
D18*
X254101250Y28200000D03*
D19*
X259181250Y28200000D03*
D18*
X264261250Y28200000D03*
D17*
X265023250Y33280000D03*
D20*
X255371250Y30740000D03*
X261721250Y33280000D03*
%TD*%
D33*
%TO.C,C4*%
X95132500Y8450000D03*
X93407500Y8450000D03*
%TD*%
D34*
%TO.C,D31*%
X64637500Y45600000D03*
X64637500Y48900000D03*
%TD*%
%TO.C,D52*%
X226562500Y26550000D03*
X226562500Y29850000D03*
%TD*%
D35*
%TO.C,U2*%
X22352500Y74940000D03*
X22352500Y75890000D03*
X22352500Y76840000D03*
X24627500Y76840000D03*
X24627500Y75890000D03*
X24627500Y74940000D03*
%TD*%
D34*
%TO.C,D34*%
X121787500Y45600000D03*
X121787500Y48900000D03*
%TD*%
%TO.C,D8*%
X145600000Y83700000D03*
X145600000Y87000000D03*
%TD*%
%TO.C,D17*%
X59875000Y64650000D03*
X59875000Y67950000D03*
%TD*%
%TO.C,D49*%
X169412500Y26550000D03*
X169412500Y29850000D03*
%TD*%
%TO.C,D48*%
X150362500Y26550000D03*
X150362500Y29850000D03*
%TD*%
%TO.C,D32*%
X83687500Y45600000D03*
X83687500Y48900000D03*
%TD*%
D36*
%TO.C,D63*%
X74980000Y12770000D03*
X74980000Y9370000D03*
%TD*%
D37*
%TO.C,J1*%
X15310000Y89770000D03*
X21090000Y89770000D03*
D38*
X15000000Y88695000D03*
X15800000Y88695000D03*
D39*
X16950000Y88695000D03*
X17950000Y88695000D03*
X18450000Y88695000D03*
X19450000Y88695000D03*
D38*
X20600000Y88695000D03*
X21400000Y88695000D03*
X21400000Y88695000D03*
X20600000Y88695000D03*
D39*
X19950000Y88695000D03*
X18950000Y88695000D03*
X17450000Y88695000D03*
X16450000Y88695000D03*
D38*
X15800000Y88695000D03*
X15000000Y88695000D03*
D40*
X13880000Y93450000D03*
D41*
X13880000Y89270000D03*
D40*
X22520000Y93450000D03*
D41*
X22520000Y89270000D03*
%TD*%
D34*
%TO.C,D7*%
X126550000Y83700000D03*
X126550000Y87000000D03*
%TD*%
%TO.C,D12*%
X221800000Y83700000D03*
X221800000Y87000000D03*
%TD*%
%TO.C,D27*%
X250375000Y64650000D03*
X250375000Y67950000D03*
%TD*%
D42*
%TO.C,U3*%
X91215000Y9521500D03*
X89945000Y9521500D03*
X88675000Y9521500D03*
X87405000Y9521500D03*
X87405000Y15338500D03*
X88675000Y15338500D03*
X89945000Y15338500D03*
X91215000Y15338500D03*
D43*
X89310000Y12430000D03*
%TD*%
D34*
%TO.C,D20*%
X117025000Y64650000D03*
X117025000Y67950000D03*
%TD*%
%TO.C,D51*%
X207512500Y26550000D03*
X207512500Y29850000D03*
%TD*%
%TO.C,D40*%
X236087500Y45600000D03*
X236087500Y48900000D03*
%TD*%
D44*
%TO.C,C1*%
X85765000Y13271000D03*
X85765000Y11546000D03*
%TD*%
D34*
%TO.C,D4*%
X69400000Y83700000D03*
X69400000Y87000000D03*
%TD*%
%TO.C,D42*%
X267043750Y45600000D03*
X267043750Y48900000D03*
%TD*%
%TO.C,D6*%
X107500000Y83700000D03*
X107500000Y87000000D03*
%TD*%
D45*
%TO.C,U1*%
X113537200Y2878600D03*
X112267200Y2878600D03*
X110997200Y2878600D03*
X109727200Y2878600D03*
X108457200Y2878600D03*
X107187200Y2878600D03*
X105917200Y2878600D03*
X104647200Y2878600D03*
X103380000Y2878300D03*
X102107200Y2878600D03*
D46*
X99507200Y4933600D03*
D47*
X101807200Y5568850D03*
D46*
X99507200Y6203600D03*
D47*
X101807200Y6838850D03*
D46*
X99507200Y7473600D03*
D47*
X101807200Y8108850D03*
D46*
X99507200Y8743600D03*
D47*
X101807200Y9378850D03*
D46*
X99507200Y10013600D03*
D47*
X101807200Y10648850D03*
D46*
X99507200Y11283600D03*
D47*
X101807200Y11918850D03*
D46*
X99507200Y12553600D03*
D47*
X101807200Y13188600D03*
D46*
X99507200Y13823600D03*
D45*
X102107200Y15878600D03*
X103377200Y15878600D03*
D48*
X104012200Y13578600D03*
D45*
X104647200Y15878600D03*
D48*
X105282200Y13578600D03*
D45*
X105917200Y15878600D03*
D48*
X106552200Y13578600D03*
D45*
X107187200Y15878600D03*
D48*
X107822200Y13578600D03*
D45*
X108457200Y15878600D03*
D48*
X109092200Y13578600D03*
D45*
X109727200Y15878600D03*
D48*
X110362200Y13578600D03*
D45*
X110997200Y15878600D03*
D48*
X111632200Y13578600D03*
D45*
X112264400Y15878900D03*
D48*
X112897200Y13578600D03*
D45*
X113537200Y15878600D03*
%TD*%
D49*
%TO.C,J6*%
X108649800Y37960200D03*
X109649800Y37960200D03*
D50*
X107349800Y41835200D03*
X110949800Y41835200D03*
%TD*%
D51*
%TO.C,R4*%
X86150000Y5180000D03*
X86150000Y7180000D03*
%TD*%
D34*
%TO.C,D54*%
X14631250Y7500000D03*
X14631250Y10800000D03*
%TD*%
%TO.C,D33*%
X102737500Y45600000D03*
X102737500Y48900000D03*
%TD*%
%TO.C,D9*%
X164650000Y83700000D03*
X164650000Y87000000D03*
%TD*%
%TO.C,D5*%
X88450000Y83700000D03*
X88450000Y87000000D03*
%TD*%
%TO.C,D36*%
X159887500Y45600000D03*
X159887500Y48900000D03*
%TD*%
D52*
%TO.C,Y1*%
X94750000Y4315000D03*
X94750000Y6815000D03*
%TD*%
D34*
%TO.C,D11*%
X202750000Y83700000D03*
X202750000Y87000000D03*
%TD*%
D35*
%TO.C,U5*%
X93386500Y10014600D03*
X93386500Y10964600D03*
X93386500Y11914600D03*
X95661500Y11914600D03*
X95661500Y10014600D03*
%TD*%
D34*
%TO.C,D16*%
X40825000Y64650000D03*
X40825000Y67950000D03*
%TD*%
D44*
%TO.C,C2*%
X87905000Y7238500D03*
X87905000Y5513500D03*
%TD*%
D22*
%TO.C,REF\u002A\u002A*%
X271119250Y20829950D03*
D21*
X271119250Y36039950D03*
D22*
X247243250Y20829950D03*
D21*
X247243250Y36039950D03*
%TD*%
D34*
%TO.C,D39*%
X217037500Y45600000D03*
X217037500Y48900000D03*
%TD*%
%TO.C,D10*%
X183700000Y83700000D03*
X183700000Y87000000D03*
%TD*%
%TO.C,D19*%
X97975000Y64650000D03*
X97975000Y67950000D03*
%TD*%
%TO.C,D46*%
X112262500Y26550000D03*
X112262500Y29850000D03*
%TD*%
%TO.C,D37*%
X178937500Y45600000D03*
X178937500Y48900000D03*
%TD*%
%TO.C,D56*%
X62256250Y7500000D03*
X62256250Y10800000D03*
%TD*%
%TO.C,D26*%
X231325000Y64650000D03*
X231325000Y67950000D03*
%TD*%
%TO.C,D25*%
X212275000Y64650000D03*
X212275000Y67950000D03*
%TD*%
%TO.C,D58*%
X205131250Y7500000D03*
X205131250Y10800000D03*
%TD*%
D53*
%TO.C,D2*%
X25100000Y87000000D03*
X25100000Y83700000D03*
%TD*%
%TO.C,D35*%
X134637500Y48900000D03*
X134637500Y45600000D03*
%TD*%
D34*
%TO.C,D50*%
X188462500Y26550000D03*
X188462500Y29850000D03*
%TD*%
%TO.C,D24*%
X193225000Y64650000D03*
X193225000Y67950000D03*
%TD*%
%TO.C,D41*%
X24156250Y26550000D03*
X24156250Y29850000D03*
%TD*%
%TO.C,D45*%
X93212500Y26550000D03*
X93212500Y29850000D03*
%TD*%
%TO.C,D18*%
X78925000Y64650000D03*
X78925000Y67950000D03*
%TD*%
%TO.C,D21*%
X136075000Y64650000D03*
X136075000Y67950000D03*
%TD*%
D54*
%TO.C,R2*%
X9986300Y92462000D03*
X8161300Y92462000D03*
%TD*%
D55*
%TO.C,Q1*%
X71045300Y10207500D03*
X71045300Y12107500D03*
X72920300Y11157500D03*
%TD*%
D34*
%TO.C,D43*%
X55112500Y26550000D03*
X55112500Y29850000D03*
%TD*%
%TO.C,D3*%
X50350000Y83700000D03*
X50350000Y87000000D03*
%TD*%
%TO.C,D47*%
X131312500Y26550000D03*
X131312500Y29850000D03*
%TD*%
%TO.C,D60*%
X252756250Y7500000D03*
X252756250Y10800000D03*
%TD*%
D56*
%TO.C,C3*%
X93382100Y13453800D03*
X95107100Y13453800D03*
%TD*%
D34*
%TO.C,D59*%
X228943750Y7500000D03*
X228943750Y10800000D03*
%TD*%
D54*
%TO.C,R1*%
X9986300Y90963400D03*
X8161300Y90963400D03*
%TD*%
D34*
%TO.C,D38*%
X197987500Y45600000D03*
X197987500Y48900000D03*
%TD*%
D53*
%TO.C,D28*%
X267987500Y67950000D03*
X267987500Y64650000D03*
%TD*%
D34*
%TO.C,D22*%
X155125000Y64650000D03*
X155125000Y67950000D03*
%TD*%
%TO.C,D13*%
X240850000Y83700000D03*
X240850000Y87000000D03*
%TD*%
D53*
%TO.C,D1*%
X6050000Y87000000D03*
X6050000Y83700000D03*
%TD*%
D34*
%TO.C,D61*%
X276568750Y7500000D03*
X276568750Y10800000D03*
%TD*%
%TO.C,D44*%
X74162500Y26550000D03*
X74162500Y29850000D03*
%TD*%
%TO.C,D57*%
X133693750Y7500000D03*
X133693750Y10800000D03*
%TD*%
%TO.C,D14*%
X269425000Y83700000D03*
X269425000Y87000000D03*
%TD*%
%TO.C,D23*%
X174175000Y64650000D03*
X174175000Y67950000D03*
%TD*%
D57*
%TO.C,R7*%
X27236700Y91674600D03*
X29061700Y91674600D03*
%TD*%
D34*
%TO.C,D55*%
X38443750Y7500000D03*
X38443750Y10800000D03*
%TD*%
D58*
%TO.C,R9*%
X114950000Y40762500D03*
X114950000Y38937500D03*
%TD*%
D34*
%TO.C,D30*%
X45587500Y45600000D03*
X45587500Y48900000D03*
%TD*%
D59*
%TO.C,R8*%
X113420000Y38937500D03*
X113420000Y40762500D03*
%TD*%
%TO.C,R3*%
X89435000Y5456000D03*
X89435000Y7281000D03*
%TD*%
D34*
%TO.C,D53*%
X262281250Y26550000D03*
X262281250Y29850000D03*
%TD*%
%TO.C,D15*%
X17012500Y64650000D03*
X17012500Y67950000D03*
%TD*%
%TO.C,D29*%
X19393750Y45600000D03*
X19393750Y48900000D03*
%TD*%
%LPD*%
M02*
